<?xml version="1.0" standalone="no"?>
<!DOCTYPE svg PUBLIC "-//W3C//DTD SVG 1.1//EN" "http://www.w3.org/Graphics/SVG/1.1/DTD/svg11.dtd" >
<svg>
<metadata>
Created by FontForge 20090622 at Fri Sep  7 10:28:37 2018
 By deploy user
2010 published by Monotype GmbH
</metadata>
<defs>
<font id="DINRoundOT" horiz-adv-x="1044" >
  <font-face 
    font-family="DIN Round OT"
    font-weight="400"
    font-stretch="normal"
    units-per-em="2000"
    panose-1="2 11 5 4 2 2 1 2 1 4"
    ascent="1528"
    descent="-472"
    x-height="984"
    cap-height="1432"
    bbox="-316 -463 2230 1969"
    underline-thickness="112"
    underline-position="-170"
    unicode-range="U+000D-U+FEFF"
  />
<missing-glyph horiz-adv-x="1139" 
d="M274 1424h591q51 0 72 -21t21 -72v-1238q0 -51 -21 -72t-72 -21h-591q-51 0 -72 21t-21 72v1238q0 51 21 72t72 21zM335 1288v-1152h469v1152h-469z" />
    <glyph glyph-name=".notdef" horiz-adv-x="1139" 
d="M274 1424h591q51 0 72 -21t21 -72v-1238q0 -51 -21 -72t-72 -21h-591q-51 0 -72 21t-21 72v1238q0 51 21 72t72 21zM335 1288v-1152h469v1152h-469z" />
    <glyph glyph-name=".null" horiz-adv-x="0" 
 />
    <glyph glyph-name=".null" horiz-adv-x="0" 
 />
    <glyph glyph-name="nonmarkingreturn" horiz-adv-x="666" 
 />
    <glyph glyph-name="CR" unicode="&#xd;" horiz-adv-x="498" 
 />
    <glyph glyph-name="space" unicode=" " horiz-adv-x="498" 
 />
    <glyph glyph-name="exclam" unicode="!" horiz-adv-x="633" 
d="M270 1328q0 50 14 72q20 32 63 32t63 -32q14 -22 14 -72v-831q0 -50 -14 -72q-20 -32 -63 -32t-63 32q-14 22 -14 72v831zM247 94q0 42 29 71.5t71 29.5t71.5 -29.5t29.5 -71.5t-29.5 -71t-71.5 -29t-71 29t-29 71z" />
    <glyph glyph-name="quotedbl" unicode="&#x22;" horiz-adv-x="790" 
d="M298 1338v-215q0 -46 -13 -67q-19 -31 -60 -31t-60 31q-13 21 -13 67v215q0 46 13 67q19 31 60 31t60 -31q13 -21 13 -67zM638 1338v-215q0 -46 -13 -67q-19 -31 -60 -31t-60 31q-13 21 -13 67v215q0 46 13 67q19 31 60 31t60 -31q13 -21 13 -67z" />
    <glyph glyph-name="numbersign" unicode="#" horiz-adv-x="1328" 
d="M869 997l71 357q9 47 29 65q17 16 43 16q31 0 52 -21q15 -15 17.5 -34.5t-4.5 -52.5l-66 -330h110q44 0 61 -11q28 -19 28 -54t-28 -54q-17 -11 -61 -11h-135l-57 -287h130q44 0 61 -11q28 -19 28 -54t-28 -54q-17 -11 -61 -11h-156l-75 -377q-9 -47 -29 -65
q-17 -16 -43 -16q-31 0 -52 21q-15 15 -17.5 34.5t4.5 52.5l69 350h-301l-75 -377q-9 -47 -29 -65q-17 -16 -43 -16q-31 0 -52 21q-15 15 -17.5 34.5t4.5 52.5l69 350h-109q-44 0 -61 11q-28 19 -28 54t28 54q17 11 61 11h135l57 287h-130q-44 0 -61 11q-28 19 -28 54t28 54
q17 11 61 11h156l71 357q9 47 29 65q17 16 43 16q31 0 52 -21q15 -15 17.5 -34.5t-4.5 -52.5l-66 -330h302zM542 867l-57 -287h301l57 287h-301z" />
    <glyph glyph-name="dollar" unicode="$" horiz-adv-x="1177" 
d="M661 1482v-50q72 -7 132 -29t135 -67q59 -36 59 -78q0 -27 -17 -45q-19 -22 -48 -22q-26 0 -70 28q-102 69 -202 81v-522l35 -5q100 -16 158 -38t103 -61q119 -100 119 -282q0 -166 -109 -272t-295 -127v-51q0 -46 -13 -67q-19 -31 -60 -31t-60 31q-13 21 -13 67v47
q-105 5 -183 32.5t-165 86.5q-64 42 -64 87q0 31 21 52q19 19 47 19q30 0 71 -32q69 -53 134.5 -78.5t149.5 -30.5v530l-34 6q-86 13 -146 37.5t-113 71.5q-110 97 -110 265t104.5 274.5t287.5 123.5v49q0 46 13 67q19 31 60 31t60 -31q13 -21 13 -67zM659 635l-9 1v-508
q125 16 194.5 83t69.5 176q0 118 -69 179q-34 30 -71 43.5t-115 25.5zM337 875q38 -33 79.5 -50.5t109.5 -27.5v505q-120 -12 -187.5 -82t-67.5 -178q0 -111 66 -167z" />
    <glyph glyph-name="percent" unicode="%" horiz-adv-x="1667" 
d="M670 958q0 -123 -75.5 -196.5t-194.5 -73.5t-195 73.5t-76 196.5v208q0 123 76 196.5t195 73.5t194.5 -73.5t75.5 -196.5v-208zM244 1161v-198q0 -174 156 -174q155 0 155 174v198q0 174 -155 174q-156 0 -156 -174zM1538 258q0 -123 -75.5 -196.5t-194.5 -73.5
t-195 73.5t-76 196.5v208q0 123 76 196.5t195 73.5t194.5 -73.5t75.5 -196.5v-208zM1112 461v-198q0 -174 156 -174q155 0 155 174v198q0 174 -155 174q-156 0 -156 -174zM1206 1335l-646 -1294q-15 -31 -32 -42q-11 -7 -25 -7q-12 0 -24 6q-27 14 -29 41q-1 19 14 50
l646 1294q16 31 32 42q11 7 25 7q12 0 24 -6q27 -14 29 -41q1 -19 -14 -50z" />
    <glyph glyph-name="ampersand" unicode="&#x26;" horiz-adv-x="1446" 
d="M939 259l-394 473q-49 -33 -78 -54.5t-64.5 -54t-55 -62t-33 -69.5t-13.5 -85q0 -127 84.5 -207t217.5 -80q181 0 336 139zM1124 262l109 -130q34 -41 34 -67q0 -33 -26 -55q-23 -18 -49 -18q-33 0 -71 47l-97 117q-180 -168 -421 -168q-204 0 -326 112.5t-122 298.5
q0 61 17.5 115t42.5 93.5t69.5 82t81.5 70t97 67.5q-36 43 -55.5 68.5t-46.5 69t-39.5 86.5t-12.5 88q0 127 89.5 212t224.5 85q132 0 220.5 -85.5t88.5 -212.5q0 -148 -167 -261l-97 -66l364 -439q38 57 54.5 114t23.5 150q4 47 16 65q18 28 56 28q39 0 57 -29
q13 -19 13 -62q0 -95 -34 -203q-31 -97 -94 -173zM586 906l36 24q87 56 127.5 101.5t40.5 106.5q0 73 -47.5 121t-119.5 48t-119 -47t-47 -118q0 -50 27 -99.5t102 -136.5z" />
    <glyph glyph-name="quotesingle" unicode="'" horiz-adv-x="450" 
d="M298 1338v-215q0 -46 -13 -67q-19 -31 -60 -31t-60 31q-13 21 -13 67v215q0 46 13 67q19 31 60 31t60 -31q13 -21 13 -67z" />
    <glyph glyph-name="parenleft" unicode="(" horiz-adv-x="595" 
d="M229 -12q-39 78 -39 201v1047q0 123 39 201q33 66 99 132q40 40 70 40q31 0 51 -20q19 -19 19 -46q0 -33 -40 -73q-44 -44 -64 -87q-28 -60 -28 -160v-1021q0 -100 28 -160q20 -43 64 -87q40 -40 40 -73q0 -27 -19 -46q-20 -20 -51 -20q-30 0 -70 40q-66 66 -99 132z" />
    <glyph glyph-name="parenright" unicode=")" horiz-adv-x="595" 
d="M366 -12q-33 -66 -99 -132q-40 -40 -70 -40q-31 0 -51 20q-19 19 -19 46q0 33 40 73q44 44 64 87q28 60 28 160v1021q0 100 -28 160q-20 43 -64 87q-40 40 -40 73q0 27 19 46q20 20 51 20q30 0 70 -40q66 -66 99 -132q39 -78 39 -201v-1047q0 -123 -39 -201z" />
    <glyph glyph-name="asterisk" unicode="*" horiz-adv-x="952" 
d="M253 1274l169 -102v196q0 36 10 51q14 23 44 23t44 -23q10 -15 10 -51v-196l169 102q29 17 48 17q28 0 44 -28q15 -25 4 -48q-8 -17 -39 -36l-174 -105l174 -104q31 -19 39 -36q11 -23 -4 -48q-16 -28 -44 -28q-19 0 -48 17l-169 101v-195q0 -36 -10 -51q-14 -23 -44 -23
t-44 23q-10 15 -10 51v195l-169 -101q-29 -17 -48 -17q-28 0 -44 28q-15 25 -4 48q8 17 39 36l174 104l-174 105q-31 19 -39 36q-11 23 4 48q16 28 44 28q19 0 48 -17z" />
    <glyph glyph-name="plus" unicode="+" 
d="M457 604v271q0 44 11 61q19 28 54 28t54 -28q11 -17 11 -61v-271h271q44 0 61 -11q28 -19 28 -54t-28 -54q-17 -11 -61 -11h-271v-271q0 -44 -11 -61q-19 -28 -54 -28t-54 28q-11 17 -11 61v271h-271q-44 0 -61 11q-28 19 -28 54t28 54q17 11 61 11h271z" />
    <glyph glyph-name="comma" unicode="," horiz-adv-x="477" 
d="M87 -119l89 267q14 43 33 59q17 15 42 15q24 0 45.5 -15t26.5 -37q5 -25 -9 -68l-89 -267q-14 -43 -33 -59q-16 -15 -42 -15q-24 0 -45.5 15t-26.5 37q-5 25 9 68z" />
    <glyph glyph-name="hyphen" unicode="-" horiz-adv-x="852" 
d="M708 539q0 -35 -28 -54q-17 -11 -61 -11h-386q-44 0 -61 11q-28 19 -28 54t28 54q17 11 61 11h386q44 0 61 -11q28 -19 28 -54z" />
    <glyph glyph-name="period" unicode="." horiz-adv-x="540" 
d="M156 108q0 47 33.5 80.5t80.5 33.5t80.5 -33.5t33.5 -80.5t-33.5 -80.5t-80.5 -33.5t-80.5 33.5t-33.5 80.5z" />
    <glyph glyph-name="slash" unicode="/" horiz-adv-x="708" 
d="M679 1466l-518 -1552q-11 -34 -27 -52t-45 -18q-21 0 -40 12t-26 31q-9 26 6 71l518 1552q11 34 27 52t45 18q21 0 40 -12t26 -31q9 -26 -6 -71z" />
    <glyph glyph-name="zero" unicode="0" 
d="M522 -12q-169 0 -279.5 109t-110.5 283v664q0 174 110.5 283t279.5 109t279.5 -109t110.5 -283v-664q0 -174 -110.5 -283t-279.5 -109zM522 1306q-115 0 -179.5 -72.5t-64.5 -188.5v-666q0 -116 64.5 -188.5t179.5 -72.5t179.5 72.5t64.5 188.5v666q0 116 -64.5 188.5
t-179.5 72.5z" />
    <glyph glyph-name="one" unicode="1" 
d="M516 1215l-168 -167q-35 -35 -61 -35q-28 0 -49 21q-20 20 -20 47q0 17 8 30.5t31 36.5l244 244q40 40 82 40q33 0 57 -22q22 -21 22 -82v-1238q0 -46 -13 -67q-19 -31 -60 -31t-60 31q-13 21 -13 67v1125z" />
    <glyph glyph-name="two" unicode="2" 
d="M126 70q0 31 44 88l511 661q49 63 71.5 121t22.5 130q0 107 -64 171.5t-179 64.5q-91 0 -158 -46.5t-88 -144.5q-9 -42 -29 -66q-16 -21 -49 -21q-34 0 -52 24q-16 21 -16 52q0 49 28 114.5t79 114.5q109 103 284 103q179 0 284.5 -97t105.5 -268q0 -94 -30.5 -165.5
t-101.5 -163.5l-473 -612h524q42 0 61 -12q28 -17 28 -53q0 -35 -28 -54q-19 -11 -61 -11h-601q-28 0 -41 1t-28.5 6t-25.5 15q-18 18 -18 48z" />
    <glyph glyph-name="three" unicode="3" horiz-adv-x="1045" 
d="M423 730q0 33 28 52q18 11 53 11q122 1 185.5 69.5t63.5 189.5q0 118 -69.5 186t-179.5 68q-99 0 -157.5 -43t-79.5 -137q-10 -43 -31 -63q-18 -16 -45 -16q-46 0 -59 44q-8 27 -5 58q5 49 31 100t64 87q103 100 282 100q173 0 284.5 -103t111.5 -277q0 -234 -198 -320
q104 -35 162 -121.5t58 -226.5q0 -120 -58 -212t-153.5 -140t-211.5 -48q-110 0 -182 25.5t-129 80.5q-93 90 -93 211q0 45 21 66q19 21 51 21q28 0 44 -16q21 -20 28 -59q18 -104 82.5 -151.5t176.5 -47.5q118 0 198 75t80 199q0 130 -69.5 202t-202.5 73q-35 0 -53 11
q-28 19 -28 52z" />
    <glyph glyph-name="four" unicode="4" 
d="M633 230h-479q-46 0 -67 15q-27 19 -27 54q0 22 18 58l509 1013q15 30 31 46t41 16q26 0 47 -18.5t21 -44.5q0 -24 -18 -60l-475 -949h399v316q0 46 13 67q19 31 60 31t60 -31q13 -21 13 -67v-316h108q44 0 61 -11q28 -19 28 -54t-28 -54q-17 -11 -61 -11h-108v-140
q0 -46 -13 -67q-19 -31 -60 -31t-60 31q-13 21 -13 67v140z" />
    <glyph glyph-name="five" unicode="5" 
d="M901 1359q0 -35 -28 -54q-17 -11 -61 -11h-509v-446q94 96 256 96q156 0 247 -89q121 -121 121 -384q0 -126 -23 -216.5t-93 -160.5q-106 -106 -286 -106q-181 0 -285 98q-43 42 -71 100t-28 113q0 35 19 57t51 22q30 0 47 -17q19 -17 32 -71q43 -172 235 -172
q114 0 178 64q35 35 53 88t21.5 94.5t3.5 106.5q0 57 -5 102.5t-21 93t-42 79t-70.5 51.5t-104.5 20q-76 0 -129.5 -24t-93.5 -81q-16 -22 -30 -32q-15 -11 -42 -11q-31 0 -50 19q-20 19 -20 63v585q0 48 20 68t68 20h551q44 0 61 -11q28 -19 28 -54z" />
    <glyph glyph-name="six" unicode="6" 
d="M684 1369q0 -24 -18 -60l-260 -521q63 26 144 26q166 0 268.5 -113.5t102.5 -290.5q0 -185 -107.5 -303.5t-287.5 -118.5q-182 0 -290 113t-108 298q0 138 89 316l327 655q15 30 31 46t41 16q26 0 47 -18.5t21 -44.5zM274 404q0 -131 68 -208.5t182 -77.5t183 77.5
t69 208.5q0 123 -67 204t-185 81q-114 0 -182 -76.5t-68 -208.5z" />
    <glyph glyph-name="seven" unicode="7" 
d="M348 110l443 1184h-494v-133q0 -46 -13 -67q-19 -31 -60 -31t-60 31q-13 21 -13 67v175q0 48 20 68t68 20h605q64 0 87 -21q20 -19 20 -50q0 -21 -19 -72l-456 -1219q-17 -45 -34 -58q-16 -12 -36 -12q-25 1 -45.5 15t-24.5 37t12 66z" />
    <glyph glyph-name="eight" unicode="8" 
d="M522 -12q-180 0 -300.5 114t-120.5 291q0 119 58.5 206t156.5 140q-188 106 -188 315q0 167 111.5 274.5t282.5 107.5t282.5 -107.5t111.5 -274.5q0 -209 -188 -315q98 -53 156.5 -140t58.5 -206q0 -177 -120.5 -291t-300.5 -114zM522 1306q-109 0 -178.5 -72t-69.5 -182
t69.5 -182t178.5 -72t178.5 72t69.5 182t-69.5 182t-178.5 72zM522 672q-117 0 -196 -79.5t-79 -197.5q0 -119 79 -198t196 -79t196 79t79 198q0 118 -79 197.5t-196 79.5z" />
    <glyph glyph-name="nine" unicode="9" 
d="M360 55q0 24 18 60l260 521q-63 -26 -144 -26q-166 0 -268.5 113.5t-102.5 290.5q0 185 107.5 303.5t287.5 118.5q182 0 290 -113t108 -298q0 -138 -89 -316l-327 -655q-15 -30 -31 -46t-41 -16q-26 0 -47 18.5t-21 44.5zM770 1020q0 131 -68 208.5t-182 77.5t-183 -77.5
t-69 -208.5q0 -123 67 -204t185 -81q114 0 182 76.5t68 208.5z" />
    <glyph glyph-name="colon" unicode=":" horiz-adv-x="594" 
d="M210 108q0 47 33.5 80.5t80.5 33.5t80.5 -33.5t33.5 -80.5t-33.5 -80.5t-80.5 -33.5t-80.5 33.5t-33.5 80.5zM210 689q0 47 33.5 80.5t80.5 33.5t80.5 -33.5t33.5 -80.5t-33.5 -80.5t-80.5 -33.5t-80.5 33.5t-33.5 80.5z" />
    <glyph glyph-name="semicolon" unicode=";" horiz-adv-x="594" 
d="M189 -119l89 267q14 43 33 59q17 15 42 15q24 0 45.5 -15t26.5 -37q5 -25 -9 -68l-89 -267q-14 -43 -33 -59q-16 -15 -42 -15q-24 0 -45.5 15t-26.5 37q-5 25 9 68zM240 689q0 47 33.5 80.5t80.5 33.5t80.5 -33.5t33.5 -80.5t-33.5 -80.5t-80.5 -33.5t-80.5 33.5
t-33.5 80.5z" />
    <glyph glyph-name="less" unicode="&#x3c;" 
d="M270 644l464 232q36 18 60 18q26 0 44.5 -21t18.5 -47q0 -25 -15.5 -41t-46.5 -31l-429 -215l429 -215q31 -15 46.5 -31t15.5 -41q0 -26 -18.5 -47t-44.5 -21q-24 0 -60 18l-464 232q-24 12 -37.5 20t-28.5 20.5t-21.5 28.5t-6.5 36q0 38 23 59.5t71 45.5z" />
    <glyph glyph-name="equal" unicode="=" 
d="M947 709q0 -35 -28 -54q-17 -11 -61 -11h-672q-44 0 -61 11q-28 19 -28 54t28 54q17 11 61 11h672q44 0 61 -11q28 -19 28 -54zM947 366q0 -35 -28 -54q-17 -11 -61 -11h-672q-44 0 -61 11q-28 19 -28 54t28 54q17 11 61 11h672q44 0 61 -11q28 -19 28 -54z" />
    <glyph glyph-name="greater" unicode="&#x3e;" 
d="M310 875l464 -232q24 -12 37.5 -20t28.5 -20.5t21.5 -28.5t6.5 -36q0 -38 -23 -59.5t-71 -45.5l-464 -232q-36 -18 -60 -18q-26 0 -44.5 21t-18.5 47q0 25 15.5 41t46.5 31l429 215l-429 215q-31 15 -46.5 31t-15.5 41q0 26 18.5 47t44.5 21q24 0 60 -18z" />
    <glyph glyph-name="question" unicode="?" horiz-adv-x="995" 
d="M440 94q0 42 29 71.5t71 29.5t71.5 -29.5t29.5 -71.5t-29.5 -71t-71.5 -29t-71 29t-29 71zM658 608q-38 -56 -43 -143q-2 -42 -22 -62t-52 -20q-38 0 -58 28q-15 22 -15 60q0 64 12 104.5t50 94.5l163 232q65 92 65 172q0 100 -65.5 167t-164.5 67q-101 0 -165 -63
q-54 -52 -68 -143q-5 -35 -19 -53q-18 -23 -55 -23q-33 0 -51 22q-16 20 -16 56q0 56 28 118.5t74 109.5q48 49 118.5 76.5t152.5 27.5q161 0 269 -102t108 -260q0 -67 -22.5 -121t-68.5 -121z" />
    <glyph glyph-name="at" unicode="@" horiz-adv-x="1427" 
d="M657 477q0 -62 4.5 -110t20 -98.5t41 -83t70.5 -53.5t106 -21t105.5 21t70.5 53.5t41 83t20 98.5t5 110t-5 110t-20 98.5t-41 83t-70.5 53.5t-105.5 21t-106 -21t-70.5 -53.5t-41 -83t-20 -98.5t-4.5 -110zM874 966q169 0 267 -123v144q0 82 -18.5 135t-61.5 96
q-42 42 -92.5 60t-122.5 18h-265q-72 0 -122.5 -18t-92.5 -60q-43 -43 -61.5 -96t-18.5 -135v-664q0 -84 14.5 -120t58.5 -83q34 -37 34 -63q0 -33 -23 -53q-21 -20 -50 -20q-19 0 -34.5 10.5t-36.5 33.5q-57 59 -82 120.5t-25 170.5v673q0 209 111 320q114 114 308 114h305
q194 0 308 -114q111 -111 111 -320v-902q0 -46 -13 -67q-19 -31 -60 -31t-60 31q-13 21 -13 67v18q-50 -62 -113 -91t-152 -29q-176 0 -271 119q-50 62 -69.5 146.5t-19.5 223.5t19.5 223.5t69.5 146.5q95 119 271 119z" />
    <glyph glyph-name="A" unicode="A" horiz-adv-x="1222" 
d="M62 118l462 1234q13 35 30 55q23 25 57 25t57 -25q17 -21 30 -55l462 -1234q8 -23 11.5 -38t-0.5 -33t-18 -32q-23 -23 -56 -23q-21 0 -39 13q-20 16 -37 61l-94 256h-633l-94 -256q-17 -45 -37 -61q-18 -13 -39 -13q-33 0 -56 23q-14 14 -17.5 32.5t0 33t11.5 37.5z
M611 1187l-269 -733h537z" />
    <glyph glyph-name="B" unicode="B" horiz-adv-x="1340" 
d="M299 0q-51 0 -72 21t-21 72v1238q0 51 21 72t72 21h445q190 0 306 -102t116 -278q0 -110 -59.5 -194t-152.5 -118q107 -39 170.5 -126.5t63.5 -211.5q0 -189 -115.5 -291.5t-310.5 -102.5h-463zM748 658h-388v-522h388q132 0 209 71t77 191t-77 190t-209 70zM732 1288
h-372v-494h372q125 0 202.5 63t77.5 185t-77.5 184t-202.5 62z" />
    <glyph glyph-name="C" unicode="C" horiz-adv-x="1276" 
d="M152 712q0 138 3.5 212.5t18.5 148.5t43.5 123t79.5 100q138 140 354 140q242 0 382 -171q42 -51 66.5 -110t24.5 -97q0 -36 -20 -56t-51 -20q-29 0 -47 16q-21 18 -36 64q-39 114 -121 176t-199 62q-145 0 -244 -102q-65 -66 -82.5 -161t-17.5 -325t17.5 -325t82.5 -161
q99 -102 244 -102q117 0 199 62t121 176q15 46 36 64q18 16 47 16q31 0 51 -20t20 -56q0 -38 -24.5 -97t-66.5 -110q-140 -171 -382 -171q-216 0 -354 140q-51 51 -79.5 100t-43.5 123t-18.5 148.5t-3.5 212.5z" />
    <glyph glyph-name="D" unicode="D" horiz-adv-x="1350" 
d="M299 0q-51 0 -72 21t-21 72v1238q0 51 21 72t72 21h397q121 0 212.5 -36t163.5 -114q31 -33 53 -72t35.5 -88t21.5 -88.5t11.5 -103t4 -101t0.5 -109.5t-0.5 -109.5t-4 -101t-11.5 -103t-21.5 -88.5t-35.5 -88t-53 -72q-72 -78 -163.5 -114t-212.5 -36h-397zM670 1288
h-310v-1152h310q187 0 281 105q32 36 52 84.5t28.5 117.5t10.5 123t2 146t-2 146t-10.5 123t-28.5 117.5t-52 84.5q-94 105 -281 105z" />
    <glyph glyph-name="E" unicode="E" horiz-adv-x="1200" 
d="M299 1424h704q46 0 66 -12q29 -19 29 -56t-29 -56q-20 -12 -66 -12h-643v-502h534q46 0 66 -12q29 -19 29 -56t-29 -56q-20 -12 -66 -12h-534v-514h643q46 0 66 -12q29 -19 29 -56t-29 -56q-20 -12 -66 -12h-704q-51 0 -72 21t-21 72v1238q0 51 21 72t72 21z" />
    <glyph glyph-name="F" unicode="F" horiz-adv-x="1160" 
d="M360 1288v-524h535q46 0 66 -12q29 -19 29 -56t-29 -56q-20 -12 -66 -12h-535v-532q0 -50 -14 -72q-20 -32 -63 -32t-63 32q-14 22 -14 72v1235q0 51 21 72t72 21h704q46 0 66 -12q29 -19 29 -56t-29 -56q-20 -12 -66 -12h-643z" />
    <glyph glyph-name="G" unicode="G" horiz-adv-x="1300" 
d="M306 712q0 -231 18 -325.5t82 -160.5q100 -102 246 -102q148 0 247 99q59 60 78.5 140.5t19.5 238.5h-263q-46 0 -66 12q-29 19 -29 56t29 56q20 12 66 12h319q51 0 72 -21t21 -72v-26q0 -202 -27.5 -303.5t-113.5 -186.5q-141 -141 -353 -141q-213 0 -355 140
q-41 41 -67.5 83t-42.5 84.5t-23.5 110t-9.5 131t-2 175.5q0 138 3.5 212.5t18.5 148.5t43.5 123t79.5 100q138 140 354 140q242 0 382 -171q42 -51 66.5 -110t24.5 -97q0 -36 -20 -56t-51 -20q-29 0 -47 16q-21 18 -36 64q-39 114 -121 176t-199 62q-145 0 -244 -102
q-65 -66 -82.5 -161t-17.5 -325z" />
    <glyph glyph-name="H" unicode="H" horiz-adv-x="1392" 
d="M1186 96q0 -50 -14 -72q-20 -32 -63 -32t-63 32q-14 22 -14 72v554h-672v-554q0 -50 -14 -72q-20 -32 -63 -32t-63 32q-14 22 -14 72v1232q0 50 14 72q20 32 63 32t63 -32q14 -22 14 -72v-542h672v542q0 50 14 72q20 32 63 32t63 -32q14 -22 14 -72v-1232z" />
    <glyph glyph-name="I" unicode="I" horiz-adv-x="566" 
d="M360 1328v-1232q0 -50 -14 -72q-20 -32 -63 -32t-63 32q-14 22 -14 72v1232q0 50 14 72q20 32 63 32t63 -32q14 -22 14 -72z" />
    <glyph glyph-name="J" unicode="J" horiz-adv-x="993" 
d="M362 124q140 0 216 85.5t76 242.5v876q0 50 14 72q20 32 63 32t63 -32q14 -22 14 -72v-896q0 -203 -124 -323.5t-322 -120.5q-159 0 -271 83q-40 30 -40 66q0 29 18 49q20 21 47 21q28 0 69 -29q76 -54 177 -54z" />
    <glyph glyph-name="K" unicode="K" horiz-adv-x="1299" 
d="M360 1328v-709l631 766q38 47 71 47q26 0 49 -18q26 -22 26 -55q0 -26 -34 -67l-338 -411l427 -750q23 -41 23 -69q0 -37 -39 -59q-19 -11 -39 -11q-26 0 -43 16t-35 47l-401 711l-298 -358v-312q0 -50 -14 -72q-20 -32 -63 -32t-63 32q-14 22 -14 72v1232q0 50 14 72
q20 32 63 32t63 -32q14 -22 14 -72z" />
    <glyph glyph-name="L" unicode="L" horiz-adv-x="1144" 
d="M299 0q-51 0 -72 21t-21 72v1235q0 50 14 72q20 32 63 32t63 -32q14 -22 14 -72v-1192h638q46 0 66 -12q29 -19 29 -56t-29 -56q-20 -12 -66 -12h-699z" />
    <glyph glyph-name="M" unicode="M" horiz-adv-x="1632" 
d="M816 212q-32 0 -52 17.5t-37 53.5l-367 790v-977q0 -50 -14 -72q-20 -32 -63 -32t-63 32q-14 22 -14 72v1238q0 51 24 75q22 23 55 23q27 0 46 -12q22 -13 41 -53l444 -958l444 958q19 40 41 53q19 12 46 12q33 0 55 -23q24 -24 24 -75v-1238q0 -50 -14 -72
q-20 -32 -63 -32t-63 32q-14 22 -14 72v977l-367 -790q-17 -36 -37 -53.5t-52 -17.5z" />
    <glyph glyph-name="N" unicode="N" horiz-adv-x="1466" 
d="M1260 1328v-1235q0 -53 -24 -77t-58 -24q-46 0 -87 61l-731 1080v-1037q0 -50 -14 -72q-20 -32 -63 -32t-63 32q-14 22 -14 72v1235q0 53 24 77q22 24 58 24q26 0 45.5 -14.5t41.5 -46.5l731 -1080v1037q0 50 14 72q20 32 63 32t63 -32q14 -22 14 -72z" />
    <glyph glyph-name="O" unicode="O" horiz-adv-x="1304" 
d="M652 1436q214 0 356 -140q41 -41 67 -83t42 -85t23.5 -110t9.5 -130.5t2 -175.5t-2 -175.5t-9.5 -130.5t-23.5 -110t-42 -85t-67 -83q-142 -140 -356 -140t-356 140q-41 41 -67 83t-42 85t-23.5 110t-9.5 130.5t-2 175.5t2 175.5t9.5 130.5t23.5 110t42 85t67 83
q142 140 356 140zM652 124q147 0 246 102q64 66 82 160.5t18 325.5t-18 325.5t-82 160.5q-99 102 -246 102t-246 -102q-64 -66 -82 -160.5t-18 -325.5t18 -325.5t82 -160.5q99 -102 246 -102z" />
    <glyph glyph-name="P" unicode="P" horiz-adv-x="1265" 
d="M206 1331q0 51 21 72t72 21h439q196 0 319 -114.5t123 -303.5t-123 -304.5t-319 -115.5h-378v-490q0 -50 -14 -72q-20 -32 -63 -32t-63 32q-14 22 -14 72v1235zM726 1288h-366v-566h366q137 0 218 73t81 211q0 137 -80.5 209.5t-218.5 72.5z" />
    <glyph glyph-name="Q" unicode="Q" horiz-adv-x="1304" 
d="M652 1436q214 0 356 -140q41 -41 67 -83t42 -85t23.5 -110t9.5 -130.5t2 -175.5q0 -237 -17.5 -344.5t-82.5 -190.5l103 -103q27 -27 33 -50q8 -31 -18 -57t-57 -18q-23 6 -50 33l-104 103q-130 -97 -307 -97q-214 0 -356 140q-41 41 -67 83t-42 85t-23.5 110t-9.5 130.5
t-2 175.5t2 175.5t9.5 130.5t23.5 110t42 85t67 83q142 140 356 140zM852 192l-133 134q-27 27 -33 50q-8 31 18 57t57 18q23 -6 50 -33l127 -127q37 61 48.5 150.5t11.5 270.5q0 231 -18 325.5t-82 160.5q-99 102 -246 102t-246 -102q-64 -66 -82 -160.5t-18 -325.5
t18 -325.5t82 -160.5q99 -102 244 -102q118 0 202 68z" />
    <glyph glyph-name="R" unicode="R" horiz-adv-x="1314" 
d="M206 1331q0 51 21 72t72 21h455q189 0 306.5 -107t117.5 -289q0 -152 -84.5 -252t-226.5 -130l295 -515q23 -41 23 -69q0 -37 -39 -59q-19 -11 -39 -11q-26 0 -43 16t-35 47l-330 577h-339v-536q0 -50 -14 -72q-20 -32 -63 -32t-63 32q-14 22 -14 72v1235zM740 1288h-380
v-522h380q129 0 206.5 66.5t77.5 193.5t-77.5 194.5t-206.5 67.5z" />
    <glyph glyph-name="S" unicode="S" horiz-adv-x="1177" 
d="M659 635l-167 26q-86 13 -146 37.5t-113 71.5q-110 97 -110 265q0 182 123 291.5t333 109.5q108 0 182 -21.5t167 -78.5q59 -36 59 -78q0 -27 -17 -45q-19 -22 -48 -22q-26 0 -70 28q-72 49 -132 67t-147 18q-141 0 -221.5 -71.5t-80.5 -190.5q0 -111 66 -167
q39 -33 81 -50.5t110 -27.5l157 -24q100 -16 158 -38t103 -61q119 -100 119 -282q0 -186 -134.5 -295t-358.5 -109q-130 0 -218.5 27t-186.5 93q-64 42 -64 87q0 31 21 52q19 19 47 19q30 0 71 -32q79 -61 154.5 -85.5t180.5 -24.5q158 0 247.5 69t89.5 194q0 118 -69 179
q-34 30 -71 43.5t-115 25.5z" />
    <glyph glyph-name="T" unicode="T" horiz-adv-x="1094" 
d="M146 1424h802q46 0 66 -12q29 -19 29 -56t-29 -56q-20 -12 -66 -12h-324v-1192q0 -50 -14 -72q-20 -32 -63 -32t-63 32q-14 22 -14 72v1192h-324q-46 0 -66 12q-29 19 -29 56t29 56q20 12 66 12z" />
    <glyph glyph-name="U" unicode="U" horiz-adv-x="1368" 
d="M1183 470q0 -212 -141 -347t-359 -135t-358 135t-140 347v858q0 50 14 72q20 32 63 32t63 -32q14 -22 14 -72v-846q0 -162 94 -260t250 -98t251 98t95 260v846q0 50 14 72q20 32 63 32t63 -32q14 -22 14 -72v-858z" />
    <glyph glyph-name="V" unicode="V" horiz-adv-x="1086" 
d="M1039 1312l-412 -1237q-15 -46 -32 -62q-22 -21 -52 -21q-31 0 -52 21q-17 16 -32 62l-412 1237q-14 43 -9 68q5 22 26.5 37t45.5 15q26 0 42 -15q19 -16 33 -59l358 -1095l358 1095q14 43 33 59q16 15 42 15q24 0 45.5 -15t26.5 -37q5 -25 -9 -68z" />
    <glyph glyph-name="W" unicode="W" horiz-adv-x="1720" 
d="M860 1151l-294 -1071q-12 -46 -35 -66q-23 -22 -57 -22t-57 22q-23 20 -35 66l-310 1235q-12 48 -5 70q6 21 26.5 34t42.5 13q30 0 46 -16q18 -18 30 -66l269 -1077l294 1080q11 40 29 57q21 20 56 20t56 -20q18 -17 29 -57l294 -1080l269 1077q12 48 30 66q16 16 46 16
q22 0 42.5 -13t26.5 -34q7 -22 -5 -70l-310 -1235q-12 -46 -35 -66q-23 -22 -57 -22t-57 22q-23 20 -35 66z" />
    <glyph glyph-name="X" unicode="X" horiz-adv-x="1093" 
d="M853 55l-307 544l-306 -544q-12 -20 -20.5 -31.5t-24 -21.5t-33.5 -10q-20 0 -39 11q-39 22 -39 59q0 28 23 69l345 599l-322 563q-23 41 -23 69q0 37 39 59q19 11 39 11q26 0 43 -16t35 -47l283 -511l286 511q12 20 20.5 31.5t24 21.5t33.5 10q20 0 39 -11
q39 -22 39 -59q0 -28 -23 -69l-326 -562l347 -600q23 -41 23 -69q0 -37 -39 -59q-19 -11 -39 -11q-26 0 -43 16t-35 47z" />
    <glyph glyph-name="Y" unicode="Y" horiz-adv-x="1008" 
d="M942 1304l-361 -722v-486q0 -50 -14 -72q-20 -32 -63 -32t-63 32q-14 22 -14 72v486l-361 722q-21 43 -19 66q3 36 39 54q16 8 34 8q19 0 34 -10q20 -13 40 -54l310 -620l310 620q20 41 40 54q15 10 34 10q18 0 34 -8q36 -18 39 -54q2 -23 -19 -66z" />
    <glyph glyph-name="Z" unicode="Z" horiz-adv-x="1099" 
d="M904 0h-713q-54 0 -75 21q-21 23 -21 53q0 28 26 71l691 1143h-592q-46 0 -66 12q-29 19 -29 56t29 56q20 12 66 12h683q54 0 75 -21q21 -22 21 -53q0 -26 -27 -71l-689 -1143h621q46 0 66 -12q29 -19 29 -56t-29 -56q-20 -12 -66 -12z" />
    <glyph glyph-name="bracketleft" unicode="[" horiz-adv-x="629" 
d="M547 -83q0 -35 -28 -54q-17 -11 -61 -11h-185q-48 0 -68 20t-20 68v1544q0 48 20 68t68 20h185q44 0 61 -11q28 -19 28 -54t-28 -54q-17 -11 -61 -11h-127v-1460h127q44 0 61 -11q28 -19 28 -54z" />
    <glyph glyph-name="backslash" unicode="\" horiz-adv-x="712" 
d="M549 -86l-518 1552q-15 45 -6 71q7 19 26 31t40 12q29 0 45 -18t27 -52l518 -1552q15 -45 6 -71q-7 -19 -26 -31t-40 -12q-29 0 -45 18t-27 52z" />
    <glyph glyph-name="bracketright" unicode="]" horiz-adv-x="629" 
d="M82 -83q0 35 28 54q17 11 61 11h127v1460h-127q-44 0 -61 11q-28 19 -28 54t28 54q17 11 61 11h185q48 0 68 -20t20 -68v-1544q0 -48 -20 -68t-68 -20h-185q-44 0 -61 11q-28 19 -28 54z" />
    <glyph glyph-name="asciicircum" unicode="^" 
d="M627 1338l232 -464q18 -36 18 -60q0 -26 -21 -44.5t-47 -18.5q-25 0 -41 15.5t-31 46.5l-215 429l-215 -429q-15 -31 -31 -46.5t-41 -15.5q-26 0 -47 18.5t-21 44.5q0 24 18 60l232 464q12 24 20 37.5t20.5 28.5t28.5 21.5t36 6.5q38 0 59.5 -23t45.5 -71z" />
    <glyph glyph-name="underscore" unicode="_" horiz-adv-x="1072" 
d="M949 -338h-826q-38 0 -53 10q-24 14 -24 46t24 46q15 10 53 10h826q38 0 53 -10q24 -14 24 -46t-24 -46q-15 -10 -53 -10z" />
    <glyph glyph-name="grave" unicode="`" horiz-adv-x="1064" 
d="M330 1446q0 37 34 58q18 11 38 11q22 0 38.5 -13t34.5 -43l97 -155q25 -40 25 -62q0 -37 -34 -58q-18 -11 -38 -11q-22 0 -38.5 13t-34.5 43l-97 155q-25 40 -25 62z" />
    <glyph glyph-name="a" unicode="a" horiz-adv-x="1053" 
d="M99 279q0 131 90.5 208t249.5 77h298v80q0 115 -57.5 171t-184.5 56q-73 0 -122 -20t-101 -67q-29 -26 -61 -26q-27 0 -44 18q-18 21 -18 46q0 48 94 110q101 64 253 64q190 0 288 -83.5t98 -245.5v-577q0 -46 -13 -67q-19 -31 -60 -31t-60 31q-13 21 -13 67v2
q-59 -58 -122.5 -81t-159.5 -23q-102 0 -167.5 21.5t-112.5 68.5q-75 78 -75 201zM242 280q0 -169 227 -169q72 0 123.5 13.5t93.5 53.5q51 49 51 171v105h-282q-105 0 -159 -44.5t-54 -129.5z" />
    <glyph glyph-name="b" unicode="b" horiz-adv-x="1095" 
d="M967 492q0 -296 -122 -418q-86 -86 -240 -86q-89 0 -154.5 28t-123.5 102v-28q0 -46 -13 -67q-19 -31 -60 -31t-60 31q-13 21 -13 67v1244q0 46 13 67q19 31 60 31t60 -31q13 -21 13 -67v-464q58 72 124 99t154 27q154 0 240 -86q122 -122 122 -418zM821 492
q0 64 -5 113.5t-20.5 100.5t-41.5 84.5t-72 54.5t-108 21t-108 -21t-72 -54.5t-41.5 -84.5t-20.5 -100.5t-5 -113.5t5 -113.5t20.5 -100.5t41.5 -84.5t72 -54.5t108 -21t108 21t72 54.5t41.5 84.5t20.5 100.5t5 113.5z" />
    <glyph glyph-name="c" unicode="c" horiz-adv-x="978" 
d="M126 492q0 245 119.5 374.5t315.5 129.5q74 0 130 -19t110 -62q40 -31 55 -49.5t15 -43.5q0 -26 -21 -47q-20 -18 -45 -18q-24 0 -70 38q-48 40 -86.5 55.5t-87.5 15.5q-147 0 -225 -109q-34 -49 -49 -110t-15 -155q0 -93 15 -154t49 -110q78 -110 225 -110q50 0 89 15.5
t85 55.5q43 38 70 38q25 0 45 -18q21 -21 21 -47q0 -25 -17 -46t-53 -48q-101 -80 -240 -80q-196 0 -315.5 130t-119.5 374z" />
    <glyph glyph-name="d" unicode="d" horiz-adv-x="1095" 
d="M128 492q0 296 122 418q86 86 240 86q88 0 154 -27t124 -99v464q0 46 13 67q19 31 60 31t60 -31q13 -21 13 -67v-1244q0 -46 -13 -67q-19 -31 -60 -31t-60 31q-13 21 -13 67v28q-58 -74 -123.5 -102t-154.5 -28q-154 0 -240 86q-122 122 -122 418zM274 492
q0 -64 5 -113.5t20.5 -100.5t41.5 -84.5t72 -54.5t108 -21t108 21t72 54.5t41.5 84.5t20.5 100.5t5 113.5t-5 113.5t-20.5 100.5t-41.5 84.5t-72 54.5t-108 21t-108 -21t-72 -54.5t-41.5 -84.5t-20.5 -100.5t-5 -113.5z" />
    <glyph glyph-name="e" unicode="e" horiz-adv-x="1058" 
d="M852 455h-581q0 -163 75.5 -252t216.5 -89q127 0 211 71q42 35 68 35q24 0 43 -19t19 -44q0 -49 -102 -112q-96 -57 -245 -57q-203 0 -317 125.5t-114 378.5q0 241 108.5 372.5t297.5 131.5q186 0 294 -124.5t110 -331.5q0 -46 -20 -66q-19 -19 -64 -19zM271 565h522
q-4 94 -31 160q-28 68 -89 107.5t-141 39.5t-141.5 -40t-88.5 -107q-27 -66 -31 -160z" />
    <glyph glyph-name="f" unicode="f" horiz-adv-x="633" 
d="M362 984h145q38 0 53 -10q24 -14 24 -46t-24 -46q-15 -10 -53 -10h-145v-782q0 -46 -13 -67q-19 -31 -60 -31t-60 31q-13 21 -13 67v782h-69q-38 0 -53 10q-24 14 -24 46t24 46q15 10 53 10h69v180q0 115 65 189.5t185 74.5h26q46 0 65 -12q27 -17 27 -51t-27 -51
q-19 -12 -65 -12q-130 0 -130 -143v-175z" />
    <glyph glyph-name="g" unicode="g" horiz-adv-x="1093" 
d="M493 -325q136 0 204.5 84t68.5 217v157q-55 -73 -123 -102t-155 -29q-74 0 -137 24t-103 64q-68 68 -94 171t-26 239t26 239t94 171q40 40 103.5 63t138.5 23q89 0 154.5 -27.5t121.5 -100.5v26q0 46 13 67q19 31 60 31t60 -31q13 -21 13 -67v-923q0 -187 -112 -304.5
t-304 -117.5q-130 0 -219 48q-104 58 -104 108q0 29 19.5 47.5t41.5 18.5q25 0 73 -37q74 -59 186 -59zM764 500q0 61 -4.5 108.5t-20 98t-41 83.5t-71 54.5t-107.5 21.5t-107.5 -21.5t-71.5 -54.5t-41.5 -83.5t-20.5 -98.5t-5 -109t5 -109t20.5 -98t41.5 -83t71.5 -54
t107.5 -21t107.5 21t71 54t41 83.5t20 98t4.5 109.5z" />
    <glyph glyph-name="h" unicode="h" horiz-adv-x="1129" 
d="M327 90q0 -46 -13 -67q-19 -31 -60 -31t-60 31q-13 21 -13 67v1244q0 46 13 67q19 31 60 31t60 -31q13 -21 13 -67v-458q108 120 276 120q167 0 261.5 -98t94.5 -266v-542q0 -46 -13 -67q-19 -31 -60 -31t-60 31q-13 21 -13 67v518q0 128 -62.5 193t-177.5 65
t-180.5 -65.5t-65.5 -192.5v-518z" />
    <glyph glyph-name="i" unicode="i" horiz-adv-x="518" 
d="M332 894v-804q0 -46 -13 -67q-19 -31 -60 -31t-60 31q-13 21 -13 67v804q0 46 13 67q19 31 60 31t60 -31q13 -21 13 -67zM160 1353q0 41 29 70t70 29t70 -29t29 -70t-29 -70t-70 -29t-70 29t-29 70z" />
    <glyph glyph-name="j" unicode="j" horiz-adv-x="518" 
d="M160 1353q0 41 29 70t70 29t70 -29t29 -70t-29 -70t-70 -29t-70 29t-29 70zM186 -172v1066q0 46 13 67q19 31 60 31t60 -31q13 -21 13 -67v-1071q0 -115 -65 -189.5t-185 -74.5h-26q-46 0 -65 12q-27 17 -27 51t27 51q20 12 65 12q130 0 130 143z" />
    <glyph glyph-name="k" unicode="k" horiz-adv-x="1028" 
d="M949 61q0 -37 -34 -58q-18 -11 -38 -11q-22 0 -38 13t-35 43l-286 453l-191 -217v-194q0 -46 -13 -67q-19 -31 -60 -31t-60 31q-13 21 -13 67v1244q0 46 13 67q19 31 60 31t60 -31q13 -21 13 -67v-861l421 480q21 24 36 33.5t33 9.5q23 0 42 -16q24 -21 24 -48t-35 -67
l-229 -261l305 -481q25 -40 25 -62z" />
    <glyph glyph-name="l" unicode="l" horiz-adv-x="590" 
d="M322 1334v-1065q0 -143 130 -143q46 0 65 -12q27 -17 27 -51t-27 -51q-19 -12 -65 -12h-26q-120 0 -185 74.5t-65 189.5v1070q0 46 13 67q19 31 60 31t60 -31q13 -21 13 -67z" />
    <glyph glyph-name="m" unicode="m" horiz-adv-x="1763" 
d="M814 606q0 127 -64 193.5t-177 66.5q-114 0 -180 -67t-66 -193v-516q0 -46 -13 -67q-19 -31 -60 -31t-60 31q-13 21 -13 67v804q0 46 13 67q19 31 60 31t60 -31q13 -21 13 -67v-18q105 120 278 120q211 0 302 -164q115 164 324 164q159 0 254 -92q108 -103 108 -274v-540
q0 -46 -13 -67q-19 -31 -60 -31t-60 31q-13 21 -13 67v516q0 127 -64.5 193.5t-177.5 66.5q-110 0 -177.5 -65t-67.5 -179v-532q0 -46 -13 -67q-19 -31 -60 -31t-60 31q-13 21 -13 67v516z" />
    <glyph glyph-name="n" unicode="n" horiz-adv-x="1130" 
d="M960 629v-539q0 -45 -13 -67q-19 -31 -60 -31q-43 0 -60 31q-13 22 -13 67v514q0 129 -63 195.5t-178 66.5t-180.5 -67.5t-65.5 -194.5v-514q0 -45 -13 -67q-19 -31 -60 -31t-60 31q-13 22 -13 67v804q0 46 13 67q19 31 60 31t60 -31q13 -21 13 -67v-18q108 120 276 120
q161 0 255 -92q102 -99 102 -275z" />
    <glyph glyph-name="o" unicode="o" horiz-adv-x="1064" 
d="M532 118q107 0 178 71q80 80 80 303q0 222 -80 302q-72 72 -178 72t-178 -72q-80 -80 -80 -302q0 -223 80 -303q71 -71 178 -71zM532 996q171 0 283 -112q71 -72 96 -167t25 -225t-25 -225t-96 -167q-112 -112 -283 -112t-283 112q-71 72 -96 167t-25 225t25 225t96 167
q112 112 283 112z" />
    <glyph glyph-name="p" unicode="p" horiz-adv-x="1095" 
d="M967 492q0 -296 -122 -418q-86 -86 -240 -86q-88 0 -154 27t-124 99v-464q0 -46 -13 -67q-19 -31 -60 -31t-60 31q-13 21 -13 67v1244q0 46 13 67q19 31 60 31t60 -31q13 -21 13 -67v-28q58 74 123.5 102t154.5 28q154 0 240 -86q122 -122 122 -418zM327 492
q0 -64 5 -113.5t20.5 -100.5t41.5 -84.5t72 -54.5t108 -21t108 21t72 54.5t41.5 84.5t20.5 100.5t5 113.5t-5 113.5t-20.5 100.5t-41.5 84.5t-72 54.5t-108 21t-108 -21t-72 -54.5t-41.5 -84.5t-20.5 -100.5t-5 -113.5z" />
    <glyph glyph-name="q" unicode="q" horiz-adv-x="1095" 
d="M128 492q0 296 122 418q86 86 240 86q89 0 154.5 -28t123.5 -102v28q0 46 13 67q19 31 60 31t60 -31q13 -21 13 -67v-1244q0 -46 -13 -67q-19 -31 -60 -31t-60 31q-13 21 -13 67v464q-58 -72 -124 -99t-154 -27q-154 0 -240 86q-122 122 -122 418zM274 492
q0 -64 5 -113.5t20.5 -100.5t41.5 -84.5t72 -54.5t108 -21t108 21t72 54.5t41.5 84.5t20.5 100.5t5 113.5t-5 113.5t-20.5 100.5t-41.5 84.5t-72 54.5t-108 21t-108 -21t-72 -54.5t-41.5 -84.5t-20.5 -100.5t-5 -113.5z" />
    <glyph glyph-name="r" unicode="r" horiz-adv-x="844" 
d="M327 895v-29q41 60 114.5 95t154.5 35q102 0 177 -47q55 -35 55 -74q0 -30 -21 -51t-50 -21q-21 0 -69 28q-59 35 -123 35q-108 0 -173 -74t-65 -191v-511q0 -46 -13 -67q-19 -31 -60 -31t-60 31q-13 21 -13 67v805q0 46 13 67q19 31 60 31t60 -31q13 -21 13 -67z" />
    <glyph glyph-name="s" unicode="s" horiz-adv-x="992" 
d="M145 82q-48 33 -48 68q0 29 23 50q16 15 42 15q28 0 66 -28q103 -74 259 -74q127 0 194.5 43.5t67.5 129.5q0 66 -40 100.5t-124 42.5l-162 15q-294 26 -294 264q0 132 100.5 210.5t261.5 78.5q153 0 275 -62q35 -18 49 -36q11 -16 11 -37q0 -19 -16 -39q-20 -21 -46 -21
q-20 0 -55 19q-101 53 -220 53q-105 0 -162.5 -42t-57.5 -120q0 -66 42 -100t131 -42l158 -15q140 -13 215 -74t75 -193q0 -140 -110 -220t-291 -80q-209 0 -344 94z" />
    <glyph glyph-name="t" unicode="t" horiz-adv-x="672" 
d="M357 872v-603q0 -143 130 -143q45 0 65 -12q27 -17 27 -51t-27 -51q-20 -12 -65 -12h-26q-120 0 -185 74.5t-65 189.5v608h-69q-38 0 -53 10q-24 14 -24 46t24 46q15 10 53 10h69v211q0 46 13 67q19 31 60 31t60 -31q13 -21 13 -67v-211h145q38 0 53 -10q24 -14 24 -46
t-24 -46q-15 -10 -53 -10h-145z" />
    <glyph glyph-name="u" unicode="u" horiz-adv-x="1130" 
d="M170 355v539q0 45 13 67q19 31 60 31q43 0 60 -31q13 -22 13 -67v-514q0 -129 63 -195.5t178 -66.5t180.5 67.5t65.5 194.5v514q0 45 13 67q19 31 60 31t60 -31q13 -22 13 -67v-804q0 -46 -13 -67q-19 -31 -60 -31t-60 31q-13 21 -13 67v18q-108 -120 -276 -120
q-161 0 -255 92q-102 99 -102 275z" />
    <glyph glyph-name="v" unicode="v" horiz-adv-x="874" 
d="M808 878l-276 -798q-17 -50 -41 -70q-23 -18 -54 -18t-54 18q-24 20 -41 70l-276 798q-15 45 -6 71q7 19 26 31t40 12q29 0 45 -18t27 -52l239 -716l239 716q11 34 27 52t45 18q21 0 40 -12t26 -31q9 -26 -6 -71z" />
    <glyph glyph-name="w" unicode="w" horiz-adv-x="1438" 
d="M719 779l-207 -679q-20 -68 -45 -88q-23 -20 -56 -20q-34 0 -57 20q-25 20 -45 88l-232 778q-12 44 -6 67q6 20 25 33.5t42 13.5q26 0 46 -20q14 -14 26 -56l205 -716l206 688q21 68 44 86q22 19 54 19t54 -19q23 -18 44 -86l206 -688l205 716q12 42 26 56q20 20 46 20
q23 0 42 -13.5t25 -33.5q6 -23 -6 -67l-232 -778q-20 -68 -45 -88q-23 -20 -57 -20q-33 0 -56 20q-25 20 -45 88z" />
    <glyph glyph-name="x" unicode="x" horiz-adv-x="880" 
d="M440 385l-206 -337q-18 -30 -34.5 -43t-38.5 -13q-19 0 -39 12q-34 22 -34 58q0 23 25 61l235 371l-233 367q-25 41 -25 62q0 37 35 58q20 12 38 12q23 0 38.5 -13t34.5 -43l204 -334l204 334q19 30 34.5 43t38.5 13q19 0 38 -12q35 -21 35 -58q0 -21 -25 -62l-234 -367
l236 -371q25 -38 25 -61q0 -36 -34 -58q-20 -12 -39 -12q-22 0 -38.5 13t-34.5 43z" />
    <glyph glyph-name="y" unicode="y" horiz-adv-x="873" 
d="M436 195l239 727q11 34 27 52t45 18q21 0 40 -12t26 -31q9 -26 -6 -71l-386 -1115q-26 -77 -70 -118q-70 -67 -181 -67q-49 0 -68 15q-22 19 -22 50q0 34 23 51q19 14 53 14q56 0 91.5 27t57.5 94l62 186l-301 863q-15 45 -6 71q7 19 26 31t40 12q29 0 45 -18t27 -52z
" />
    <glyph glyph-name="z" unicode="z" horiz-adv-x="909" 
d="M204 984h519q45 0 67 -14q27 -18 27 -51q0 -31 -29 -71l-514 -718h457q44 0 61 -11q28 -19 28 -54t-28 -54q-17 -11 -61 -11h-548q-47 0 -66 14q-28 19 -28 52q0 30 30 71l513 717h-428q-44 0 -61 11q-28 19 -28 54t28 54q17 11 61 11z" />
    <glyph glyph-name="braceleft" unicode="{" horiz-adv-x="707" 
d="M419 138q0 -100 29 -129q24 -24 87 -24q37 0 58 -12q28 -16 28 -54q0 -39 -30 -54q-20 -10 -63 -10h-20q-116 0 -174 58q-33 33 -46.5 77t-13.5 121v380q0 84 -36 120q-31 31 -72 35t-57 20q-17 17 -17 46t17 46q16 16 57 20t72 35q36 36 36 120v381q0 77 13.5 121
t46.5 77q58 58 174 58h20q43 0 63 -10q30 -15 30 -54q0 -38 -28 -54q-21 -12 -58 -12q-63 0 -87 -24q-29 -29 -29 -129v-375q0 -81 -32 -125.5t-94 -74.5q62 -30 94 -74.5t32 -125.5v-374z" />
    <glyph glyph-name="bar" unicode="|" horiz-adv-x="652" 
d="M399 -58q0 -46 -13 -67q-19 -31 -60 -31t-60 31q-13 21 -13 67v1540q0 46 13 67q19 31 60 31t60 -31q13 -21 13 -67v-1540z" />
    <glyph glyph-name="braceright" unicode="}" horiz-adv-x="707" 
d="M288 138v374q0 81 32 125.5t94 74.5q-62 30 -94 74.5t-32 125.5v375q0 100 -29 129q-24 24 -87 24q-37 0 -58 12q-28 16 -28 54q0 39 30 54q20 10 63 10h20q116 0 174 -58q33 -33 46.5 -77t13.5 -121v-381q0 -84 36 -120q31 -31 72 -35t57 -20q17 -17 17 -46t-17 -46
q-16 -16 -57 -20t-72 -35q-36 -36 -36 -120v-380q0 -77 -13.5 -121t-46.5 -77q-58 -58 -174 -58h-20q-43 0 -63 10q-30 15 -30 54q0 38 28 54q21 12 58 12q63 0 87 24q29 29 29 129z" />
    <glyph glyph-name="asciitilde" unicode="~" horiz-adv-x="1078" 
d="M167 440q-25 0 -43 20q-17 18 -17 42q0 34 39 70q54 52 102.5 71.5t107.5 19.5q32 0 72 -10.5t64.5 -20.5l74.5 -32q103 -47 155 -47q39 0 68 12.5t66 46.5q27 26 54 26q24 0 44 -20q17 -19 17 -41q0 -34 -40 -71q-53 -51 -101 -70.5t-108 -19.5q-73 0 -212 63
q-37 17 -55 24t-46.5 14.5t-53.5 7.5q-39 0 -67.5 -12.5t-65.5 -46.5q-29 -26 -55 -26z" />
    <glyph glyph-name="uni00A0" unicode="&#xa0;" horiz-adv-x="498" 
 />
    <glyph glyph-name="exclamdown" unicode="&#xa1;" horiz-adv-x="629" 
d="M208 -344v831q0 50 14 72q20 32 63 32t63 -32q14 -22 14 -72v-831q0 -50 -14 -72q-20 -32 -63 -32t-63 32q-14 22 -14 72zM185 890q0 42 29 71t71 29t71.5 -29t29.5 -71t-29.5 -71.5t-71.5 -29.5t-71 29.5t-29 71.5z" />
    <glyph glyph-name="cent" unicode="&#xa2;" horiz-adv-x="978" 
d="M126 734q0 218 96 345t259 153v104q0 44 11 61q19 28 54 28t54 -28q11 -17 11 -61v-101q102 -10 190 -78q40 -31 55 -49.5t15 -43.5q0 -26 -21 -47q-20 -18 -45 -18q-24 0 -70 38q-67 55 -127 67v-741q62 12 127 68q43 38 70 38q25 0 45 -18q21 -21 21 -47q0 -25 -17 -46
t-53 -48q-85 -67 -190 -78v-151q0 -44 -11 -61q-19 -28 -54 -28t-54 28q-11 17 -11 61v155q-163 26 -259 153.5t-96 344.5zM336 470q54 -78 148 -101v730q-92 -21 -148 -100q-34 -49 -49 -110t-15 -155q0 -93 15 -154t49 -110z" />
    <glyph glyph-name="sterling" unicode="&#xa3;" horiz-adv-x="1100" 
d="M115 759q15 10 53 10h65v223q0 203 123.5 323.5t321.5 120.5q163 0 268 -80q47 -36 47 -74q0 -27 -18 -48q-19 -21 -44 -21q-26 0 -63 27q-46 33 -89 47t-101 14q-140 0 -215.5 -85.5t-75.5 -243.5v-203h233q38 0 53 -10q24 -14 24 -46t-24 -46q-15 -10 -53 -10h-233
v-521h531q46 0 66 -12q29 -19 29 -56t-29 -56q-20 -12 -66 -12h-592q-51 0 -72 21t-21 72v564h-65q-38 0 -53 10q-24 14 -24 46t24 46z" />
    <glyph glyph-name="currency" unicode="&#xa4;" horiz-adv-x="1321" 
d="M1104 541q0 -145 -86 -263l100 -98q31 -31 37 -54q8 -33 -19 -60t-60 -19q-23 6 -54 37l-99 98q-116 -86 -263 -86q-149 0 -263 86l-98 -98q-31 -31 -54 -37q-33 -8 -60 19t-19 60q6 23 37 54l98 98q-85 119 -85 263q0 143 85 262l-98 98q-31 31 -37 54q-8 33 19 60
t60 19q23 -6 54 -37l98 -98q114 86 263 86q147 0 263 -86l99 98q31 31 54 37q33 8 60 -19t19 -60q-6 -23 -37 -54l-100 -98q86 -118 86 -262zM347 541q0 -130 91 -221t220 -91t220.5 91t91.5 221q0 129 -91.5 220t-220.5 91t-220 -91t-91 -220z" />
    <glyph glyph-name="yen" unicode="&#xa5;" horiz-adv-x="1022" 
d="M830 376h-242v-280q0 -50 -14 -72q-20 -32 -63 -32t-63 32q-14 22 -14 72v280h-242q-38 0 -53 10q-24 14 -24 46t24 46q15 10 53 10h242v97l-49 98h-193q-38 0 -53 10q-24 14 -24 46t24 46q15 10 53 10h138l-253 509q-21 43 -19 66q3 36 39 54q16 8 34 8q19 0 34 -10
q20 -13 40 -54l307 -615l307 615q21 41 40 54q15 10 34 10q18 0 34 -8q36 -18 39 -54q2 -23 -19 -66l-254 -509h137q38 0 53 -10q24 -14 24 -46t-24 -46q-15 -10 -53 -10h-193l-49 -98v-97h242q38 0 53 -10q24 -14 24 -46t-24 -46q-15 -10 -53 -10z" />
    <glyph glyph-name="brokenbar" unicode="&#xa6;" horiz-adv-x="652" 
d="M399 -58q0 -46 -13 -67q-19 -31 -60 -31t-60 31q-13 21 -13 67v520q0 46 13 67q19 31 60 31t60 -31q13 -21 13 -67v-520zM399 962q0 -46 -13 -67q-19 -31 -60 -31t-60 31q-13 21 -13 67v520q0 46 13 67q19 31 60 31t60 -31q13 -21 13 -67v-520z" />
    <glyph glyph-name="section" unicode="&#xa7;" horiz-adv-x="1113" 
d="M604 93l-155 45q-132 39 -203.5 134t-71.5 232q0 115 60.5 200.5t150.5 128.5q-91 41 -138.5 106.5t-47.5 169.5q0 145 100.5 236t258.5 91q230 0 319 -150q40 -67 40 -128q0 -31 -15 -51q-17 -27 -56 -27t-57 30q-9 14 -14 43q-13 81 -67 118t-150 37q-102 0 -159 -50.5
t-57 -146.5q0 -142 169 -192l155 -45q130 -38 202 -134t72 -232q0 -115 -60.5 -201t-148.5 -128q88 -33 141 -107.5t53 -180.5q0 -153 -105 -247.5t-263 -94.5q-220 0 -320 146q-47 70 -47 136q0 30 15 52q17 27 55 27q39 0 58 -30q9 -13 14 -43q25 -157 225 -157
q103 0 162.5 55t59.5 154q0 70 -46 125t-129 79zM794 506q0 115 -64 184q-67 72 -173 72t-173 -72q-64 -69 -64 -184t64 -184q67 -72 173 -72t173 72q64 69 64 184z" />
    <glyph glyph-name="dieresis" unicode="&#xa8;" horiz-adv-x="1064" 
d="M228 1289q0 38 26.5 64.5t63.5 26.5q38 0 64.5 -27t26.5 -64t-26.5 -63.5t-64.5 -26.5t-64 26.5t-26 63.5zM655 1289q0 38 26.5 64.5t63.5 26.5t64 -27t27 -64t-26.5 -63.5t-64.5 -26.5q-37 0 -63.5 26.5t-26.5 63.5z" />
    <glyph glyph-name="copyright" unicode="&#xa9;" horiz-adv-x="1762" 
d="M157 712q0 197 97 363.5t263.5 263.5t363.5 97t363.5 -97t263.5 -263.5t97 -363.5t-97 -363.5t-263.5 -263.5t-363.5 -97t-363.5 97t-263.5 263.5t-97 363.5zM1499 712q0 127 -49 242.5t-132 199.5t-197.5 134t-239.5 50t-239.5 -50t-197.5 -134t-132 -199.5t-49 -242.5
t49 -242.5t132 -199.5t197.5 -134t239.5 -50t239.5 50t197.5 134t132 199.5t49 242.5zM575 712q0 164 83 263.5t237 99.5q116 0 188 -66q36 -33 36 -58q0 -19 -12 -31q-14 -14 -33 -14t-53 28q-32 28 -60.5 38.5t-65.5 10.5q-114 0 -166 -74.5t-52 -196.5t52 -196.5
t166 -74.5q37 0 65.5 10.5t60.5 38.5q34 28 53 28t33 -14q12 -12 12 -31q0 -25 -36 -58q-72 -66 -188 -66q-154 0 -237 99.5t-83 263.5z" />
    <glyph glyph-name="ordfeminine" unicode="&#xaa;" horiz-adv-x="898" 
d="M613 915v84h-216q-172 0 -172 -138q0 -67 42.5 -99.5t135.5 -32.5q119 0 173 54q37 38 37 132zM419 1430q155 0 232.5 -67t77.5 -195v-457q0 -40 -11 -56q-16 -25 -48 -25q-24 0 -39 16q-17 17 -17 45v19q-48 -46 -97.5 -64t-125.5 -18q-81 0 -132 16.5t-88 54.5
q-60 60 -60 160q0 105 71 166t201 61h230v73q0 86 -46.5 128t-149.5 42q-59 0 -100 -18.5t-80 -59.5q-20 -20 -45 -20q-20 0 -33 14q-14 14 -14 38q0 42 78 96q74 51 196 51z" />
    <glyph glyph-name="guillemotleft" unicode="&#xab;" horiz-adv-x="1148" 
d="M513 751l-242 -242l242 -242q31 -31 37 -54q8 -33 -19 -60t-60 -19q-23 6 -54 37l-338 338l338 338q31 31 54 37q33 8 60 -19t19 -60q-6 -23 -37 -54zM965 751l-242 -242l242 -242q31 -31 37 -54q8 -33 -19 -60t-60 -19q-23 6 -54 37l-338 338l338 338q31 31 54 37
q33 8 60 -19t19 -60q-6 -23 -37 -54z" />
    <glyph glyph-name="logicalnot" unicode="&#xac;" 
d="M874 196q-35 0 -54 28q-11 17 -11 61v189h-626q-44 0 -61 11q-28 19 -28 54t28 54q17 11 61 11h668q48 0 68 -20t20 -68v-231q0 -44 -11 -61q-19 -28 -54 -28z" />
    <glyph glyph-name="uni00AD" unicode="&#xad;" horiz-adv-x="852" 
d="M708 539q0 -35 -28 -54q-17 -11 -61 -11h-386q-44 0 -61 11q-28 19 -28 54t28 54q17 11 61 11h386q44 0 61 -11q28 -19 28 -54z" />
    <glyph glyph-name="registered" unicode="&#xae;" horiz-adv-x="1762" 
d="M1605 712q0 -197 -97 -363.5t-263.5 -263.5t-363.5 -97t-363.5 97t-263.5 263.5t-97 363.5t97 363.5t263.5 263.5t363.5 97t363.5 -97t263.5 -263.5t97 -363.5zM1499 712q0 127 -49 242.5t-132 199.5t-197.5 134t-239.5 50t-239.5 -50t-197.5 -134t-132 -199.5
t-49 -242.5t49 -242.5t132 -199.5t197.5 -134t239.5 -50t239.5 50t197.5 134t132 199.5t49 242.5zM901 977h-130v-242h130q59 0 96.5 32.5t37.5 88.5t-37.5 88.5t-96.5 32.5zM720 351q-27 0 -41 21q-10 15 -10 50v582q0 35 14 50q15 14 50 14h180q95 0 159.5 -60t64.5 -152
q0 -75 -41 -124.5t-110 -70.5l127 -215q17 -30 17 -47q0 -25 -25 -40q-14 -8 -27 -8q-27 0 -53 44l-148 254h-106v-227q0 -35 -10 -50q-14 -21 -41 -21z" />
    <glyph glyph-name="macron" unicode="&#xaf;" horiz-adv-x="1064" 
d="M749 1228h-434q-39 0 -58 11q-26 17 -26 50t26 50q19 11 58 11h434q39 0 58 -11q26 -17 26 -50t-26 -50q-19 -11 -58 -11z" />
    <glyph glyph-name="degree" unicode="&#xb0;" horiz-adv-x="926" 
d="M134 1113q0 137 96 233t233 96t233 -96t96 -233t-96 -233t-233 -96t-233 96t-96 233zM256 1114q0 -88 60 -150t147 -62t147 62t60 150t-60 150t-147 62t-147 -62t-60 -150z" />
    <glyph glyph-name="plusminus" unicode="&#xb1;" 
d="M457 712v271q0 44 11 61q19 28 54 28t54 -28q11 -17 11 -61v-271h271q44 0 61 -11q28 -19 28 -54t-28 -54q-17 -11 -61 -11h-271v-271q0 -44 -11 -61q-19 -28 -54 -28t-54 28q-11 17 -11 61v271h-271q-44 0 -61 11q-28 19 -28 54t28 54q17 11 61 11h271zM947 65
q0 -35 -28 -54q-17 -11 -61 -11h-672q-44 0 -61 11q-28 19 -28 54t28 54q17 11 61 11h672q44 0 61 -11q28 -19 28 -54z" />
    <glyph glyph-name="twosuperior" unicode="&#xb2;" horiz-adv-x="636" 
d="M511 570h-357q-48 0 -65 17q-14 16 -14 37q0 22 30 61l303 392q46 59 46 118q0 61 -34.5 97t-96.5 36q-45 0 -81 -25.5t-46 -72.5q-5 -26 -20 -46q-12 -16 -39 -16q-29 0 -44 21q-9 13 -9 36q0 45 37 105q65 102 202 102q112 0 179 -64t67 -173q0 -49 -16 -87.5
t-57 -90.5l-267 -343h282q35 0 50 -10q21 -14 21 -42t-21 -42q-15 -10 -50 -10z" />
    <glyph glyph-name="threesuperior" unicode="&#xb3;" horiz-adv-x="636" 
d="M564 1193q0 -131 -108 -182q122 -51 122 -201q0 -118 -73.5 -183.5t-185.5 -65.5t-181.5 58.5t-69.5 140.5q0 30 14.5 47.5t41.5 17.5q35 0 46 -38q15 -58 53 -90t96 -32q62 0 102.5 39.5t40.5 106.5q0 66 -37.5 105t-109.5 39q-25 0 -39.5 14.5t-14.5 35.5q0 22 14 36.5
t40 14.5q64 0 98.5 36t34.5 98q0 63 -38 100t-92 37q-93 0 -121 -74q-2 -5 -8.5 -25.5t-11 -29.5t-16 -18.5t-27.5 -9.5q-26 0 -40.5 18t-14.5 46q0 45 30 94q65 103 209 103q110 0 178 -65t68 -173z" />
    <glyph glyph-name="acute" unicode="&#xb4;" horiz-adv-x="1064" 
d="M495 1303l102 163q18 30 33 41q17 12 36 12q20 0 36 -11q35 -21 33 -57q-1 -22 -24 -57l-102 -163q-18 -30 -33 -41q-16 -12 -36 -12t-36 11q-35 21 -33 57q1 22 24 57z" />
    <glyph glyph-name="mu" unicode="&#xb5;" horiz-adv-x="1139" 
d="M327 346q8 -113 71.5 -171.5t169.5 -58.5q113 0 178.5 67.5t65.5 194.5v516q0 46 13 67q19 31 60 31t60 -31q13 -21 13 -67v-804q0 -46 -13 -67q-19 -31 -60 -31t-60 31q-13 21 -13 67v18q-105 -120 -276 -120q-127 0 -209 72v-409q0 -46 -13 -67q-19 -31 -60 -31t-60 31
q-13 21 -13 67v1243q0 46 13 67q19 31 60 31t60 -31q13 -21 13 -67v-548z" />
    <glyph glyph-name="paragraph" unicode="&#xb6;" horiz-adv-x="1207" 
d="M478 652q-173 0 -283.5 115t-110.5 269q0 166 117 277t317 111h396q48 0 68 -20t20 -68v-1686q0 -46 -13 -67q-19 -31 -60 -31t-60 31q-13 21 -13 67v1638h-232v-1638q0 -46 -13 -67q-19 -31 -60 -31t-60 31q-13 21 -13 67v1002z" />
    <glyph glyph-name="periodcentered" unicode="&#xb7;" horiz-adv-x="614" 
d="M193 539q0 47 33.5 80.5t80.5 33.5t80.5 -33.5t33.5 -80.5t-33.5 -80.5t-80.5 -33.5t-80.5 33.5t-33.5 80.5z" />
    <glyph glyph-name="cedilla" unicode="&#xb8;" horiz-adv-x="1064" 
d="M349 -338l102 163q18 30 33 41q16 12 36 12t36 -11q35 -21 33 -57q-1 -22 -24 -57l-102 -163q-18 -30 -33 -41q-16 -12 -36 -12t-36 11q-35 21 -33 57q1 22 24 57z" />
    <glyph glyph-name="onesuperior" unicode="&#xb9;" horiz-adv-x="636" 
d="M130 1170q-21 21 -15 47q4 19 29 44l135 135q36 36 73 36q31 0 48 -18q16 -18 16 -58v-714q0 -38 -10 -54q-17 -26 -48 -26t-48 26q-10 16 -10 54v621l-79 -79q-25 -25 -44 -29q-26 -6 -47 15z" />
    <glyph glyph-name="ordmasculine" unicode="&#xba;" horiz-adv-x="911" 
d="M136 1030q0 104 20.5 180.5t76.5 132.5q87 87 223 87q135 0 222 -87q56 -56 76.5 -132.5t20.5 -180.5t-20.5 -180.5t-76.5 -132.5q-87 -87 -222 -87q-136 0 -223 87q-56 56 -76.5 132.5t-20.5 180.5zM660 1030q0 82 -12 141.5t-50 97.5q-58 58 -142 58q-85 0 -143 -58
q-38 -38 -49.5 -97t-11.5 -142t11.5 -142t49.5 -97q58 -58 143 -58q84 0 142 58q38 38 50 97.5t12 141.5z" />
    <glyph glyph-name="guillemotright" unicode="&#xbb;" horiz-adv-x="1148" 
d="M425 509l-242 242q-31 31 -37 54q-8 33 19 60t60 19q23 -6 54 -37l338 -338l-338 -338q-31 -31 -54 -37q-33 -8 -60 19t-19 60q6 23 37 54zM877 509l-242 242q-31 31 -37 54q-8 33 19 60t60 19q23 -6 54 -37l338 -338l-338 -338q-31 -31 -54 -37q-33 -8 -60 19t-19 60
q6 23 37 54z" />
    <glyph glyph-name="onequarter" unicode="&#xbc;" horiz-adv-x="1626" 
d="M1184 1335l-646 -1294q-16 -31 -32 -42q-11 -7 -25 -7q-12 0 -24 6q-27 14 -29 41q-1 19 14 50l646 1294q16 31 32 42q11 7 25 7q12 0 24 -6q27 -14 29 -41q1 -19 -14 -50zM130 1170q-21 21 -15 47q4 19 29 44l135 135q36 36 73 36q31 0 48 -18q16 -18 16 -58v-714
q0 -38 -10 -54q-17 -26 -48 -26t-48 26q-10 16 -10 54v621l-79 -79q-25 -25 -44 -29q-26 -6 -47 15zM1037 225l294 587q25 50 59 50q20 0 37 -14.5t17 -35.5q0 -19 -15 -49l-265 -529h218v156q0 28 9 40q15 22 42 22t42 -22q9 -12 9 -40v-156h37q35 0 50 -10q21 -14 21 -42
t-21 -42q-15 -10 -50 -10h-37v-76q0 -28 -9 -40q-15 -22 -42 -22t-42 22q-9 12 -9 40v76h-289q-31 0 -46 8q-24 15 -24 43q0 16 14 44z" />
    <glyph glyph-name="onehalf" unicode="&#xbd;" horiz-adv-x="1626" 
d="M1184 1335l-646 -1294q-16 -31 -32 -42q-11 -7 -25 -7q-12 0 -24 6q-27 14 -29 41q-1 19 14 50l646 1294q16 31 32 42q11 7 25 7q12 0 24 -6q27 -14 29 -41q1 -19 -14 -50zM130 1170q-21 21 -15 47q4 19 29 44l135 135q36 36 73 36q31 0 48 -18q16 -18 16 -58v-714
q0 -38 -10 -54q-17 -26 -48 -26t-48 26q-10 16 -10 54v621l-79 -79q-25 -25 -44 -29q-26 -6 -47 15zM1501 0h-357q-48 0 -65 17q-14 16 -14 37q0 22 30 61l303 392q46 59 46 118q0 61 -34.5 97t-96.5 36q-45 0 -81 -25.5t-46 -72.5q-5 -26 -20 -46q-12 -16 -39 -16
q-29 0 -44 21q-9 13 -9 36q0 45 37 105q65 102 202 102q112 0 179 -64t67 -173q0 -49 -16 -87.5t-57 -90.5l-267 -343h282q35 0 50 -10q21 -14 21 -42t-21 -42q-15 -10 -50 -10z" />
    <glyph glyph-name="threequarters" unicode="&#xbe;" horiz-adv-x="1626" 
d="M1184 1335l-646 -1294q-16 -31 -32 -42q-11 -7 -25 -7q-12 0 -24 6q-27 14 -29 41q-1 19 14 50l646 1294q16 31 32 42q11 7 25 7q12 0 24 -6q27 -14 29 -41q1 -19 -14 -50zM564 1194q0 -131 -108 -182q122 -51 122 -201q0 -118 -73.5 -183.5t-185.5 -65.5t-181.5 58.5
t-69.5 140.5q0 30 14.5 47.5t41.5 17.5q35 0 46 -38q15 -58 53 -90t96 -32q62 0 102.5 39.5t40.5 106.5q0 66 -37.5 105t-109.5 39q-25 0 -39.5 14.5t-14.5 35.5q0 22 14 36.5t40 14.5q64 0 98.5 36t34.5 98q0 63 -38 100t-92 37q-93 0 -121 -74q-2 -5 -8.5 -25.5t-11 -29.5
t-16 -18.5t-27.5 -9.5q-26 0 -40.5 18t-14.5 46q0 45 30 94q65 103 209 103q110 0 178 -65t68 -173zM1037 225l294 587q25 50 59 50q20 0 37 -14.5t17 -35.5q0 -19 -15 -49l-265 -529h218v156q0 28 9 40q15 22 42 22t42 -22q9 -12 9 -40v-156h37q35 0 50 -10q21 -14 21 -42
t-21 -42q-15 -10 -50 -10h-37v-76q0 -28 -9 -40q-15 -22 -42 -22t-42 22q-9 12 -9 40v76h-289q-31 0 -46 8q-24 15 -24 43q0 16 14 44z" />
    <glyph glyph-name="questiondown" unicode="&#xbf;" horiz-adv-x="995" 
d="M555 889q0 -42 -29 -71.5t-71 -29.5t-71.5 29.5t-29.5 71.5t29.5 71t71.5 29t71 -29t29 -71zM337 375q38 56 43 143q2 42 22 62t52 20q38 0 58 -28q15 -22 15 -60q0 -64 -12 -104.5t-50 -94.5l-163 -232q-65 -92 -65 -172q0 -100 65.5 -167t164.5 -67q101 0 165 63
q54 52 68 143q5 35 19 53q18 23 55 23q33 0 51 -22q16 -20 16 -56q0 -56 -28 -118.5t-74 -109.5q-48 -49 -118.5 -76.5t-152.5 -27.5q-161 0 -269 102t-108 260q0 67 22.5 121t68.5 121z" />
    <glyph glyph-name="Agrave" unicode="&#xc0;" horiz-adv-x="1222" 
d="M62 118l462 1234q13 35 30 55q23 25 57 25t57 -25q17 -21 30 -55l462 -1234q8 -23 11.5 -38t-0.5 -33t-18 -32q-23 -23 -56 -23q-21 0 -39 13q-20 16 -37 61l-94 256h-633l-94 -256q-17 -45 -37 -61q-18 -13 -39 -13q-33 0 -56 23q-14 14 -17.5 32.5t0 33t11.5 37.5z
M611 1187l-269 -733h537zM404 1817q0 37 34 58q18 11 38 11q22 0 38.5 -13t34.5 -43l97 -155q25 -40 25 -62q0 -37 -34 -58q-18 -11 -38 -11q-22 0 -38.5 13t-34.5 43l-97 155q-25 40 -25 62z" />
    <glyph glyph-name="Aacute" unicode="&#xc1;" horiz-adv-x="1222" 
d="M62 118l462 1234q13 35 30 55q23 25 57 25t57 -25q17 -21 30 -55l462 -1234q8 -23 11.5 -38t-0.5 -33t-18 -32q-23 -23 -56 -23q-21 0 -39 13q-20 16 -37 61l-94 256h-633l-94 -256q-17 -45 -37 -61q-18 -13 -39 -13q-33 0 -56 23q-14 14 -17.5 32.5t0 33t11.5 37.5z
M611 1187l-269 -733h537zM572 1670l102 163q18 30 33 41q17 12 36 12q20 0 36 -11q35 -21 33 -57q-1 -22 -24 -57l-102 -163q-18 -30 -33 -41q-16 -12 -36 -12q-19 0 -36 11q-35 21 -33 57q1 22 24 57z" />
    <glyph glyph-name="Acircumflex" unicode="&#xc2;" horiz-adv-x="1222" 
d="M62 118l462 1234q13 35 30 55q23 25 57 25t57 -25q17 -21 30 -55l462 -1234q8 -23 11.5 -38t-0.5 -33t-18 -32q-23 -23 -56 -23q-21 0 -39 13q-20 16 -37 61l-94 256h-633l-94 -256q-17 -45 -37 -61q-18 -13 -39 -13q-33 0 -56 23q-14 14 -17.5 32.5t0 33t11.5 37.5z
M611 1187l-269 -733h537zM611 1734l-155 -155q-27 -27 -49 -33q-30 -6 -53 17q-24 24 -17 54q6 23 32 49l187 186q27 27 55 27t55 -27l187 -186q26 -26 32 -49q7 -30 -17 -54q-23 -23 -53 -17q-22 6 -49 33z" />
    <glyph glyph-name="Atilde" unicode="&#xc3;" horiz-adv-x="1222" 
d="M62 118l462 1234q13 35 30 55q23 25 57 25t57 -25q17 -21 30 -55l462 -1234q8 -23 11.5 -38t-0.5 -33t-18 -32q-23 -23 -56 -23q-21 0 -39 13q-20 16 -37 61l-94 256h-633l-94 -256q-17 -45 -37 -61q-18 -13 -39 -13q-33 0 -56 23q-14 14 -17.5 32.5t0 33t11.5 37.5z
M611 1187l-269 -733h537zM594 1620q-70 41 -111 41q-24 0 -42.5 -6.5t-45.5 -29.5q-31 -26 -51 -26q-22 0 -37 15t-15 39q0 30 36 61q72 62 153 62q41 0 70.5 -10.5t72.5 -35.5q70 -41 111 -41q24 0 42.5 6.5t45.5 29.5q31 26 51 26q22 0 37 -15t15 -39q0 -30 -36 -61
q-72 -62 -153 -62q-41 0 -70.5 10.5t-72.5 35.5z" />
    <glyph glyph-name="Adieresis" unicode="&#xc4;" horiz-adv-x="1222" 
d="M62 118l462 1234q13 35 30 55q23 25 57 25t57 -25q17 -21 30 -55l462 -1234q8 -23 11.5 -38t-0.5 -33t-18 -32q-23 -23 -56 -23q-21 0 -39 13q-20 16 -37 61l-94 256h-633l-94 -256q-17 -45 -37 -61q-18 -13 -39 -13q-33 0 -56 23q-14 14 -17.5 32.5t0 33t11.5 37.5z
M611 1187l-269 -733h537zM307 1664q0 38 26.5 64.5t63.5 26.5t64 -26.5t27 -64.5q0 -37 -26.5 -63.5t-64.5 -26.5q-37 0 -63.5 26t-26.5 64zM734 1664q0 38 26.5 64.5t63.5 26.5q38 0 64.5 -26.5t26.5 -64.5q0 -37 -26.5 -63.5t-64.5 -26.5t-64 26t-26 64z" />
    <glyph glyph-name="Aring" unicode="&#xc5;" horiz-adv-x="1222" 
d="M62 118l462 1234q13 35 30 55q23 25 57 25t57 -25q17 -21 30 -55l462 -1234q8 -23 11.5 -38t-0.5 -33t-18 -32q-23 -23 -56 -23q-21 0 -39 13q-20 16 -37 61l-94 256h-633l-94 -256q-17 -45 -37 -61q-18 -13 -39 -13q-33 0 -56 23q-14 14 -17.5 32.5t0 33t11.5 37.5z
M611 1187l-269 -733h537zM374 1732q0 98 69.5 167.5t167.5 69.5t167.5 -69.5t69.5 -167.5t-69.5 -167.5t-167.5 -69.5t-167.5 69.5t-69.5 167.5zM473 1732q0 -57 40.5 -97.5t97.5 -40.5t97.5 40.5t40.5 97.5t-40.5 97.5t-97.5 40.5t-97.5 -40.5t-40.5 -97.5z" />
    <glyph glyph-name="AE" unicode="&#xc6;" horiz-adv-x="1804" 
d="M810 337h-474l-140 -281q-20 -41 -40 -54q-15 -10 -34 -10q-18 0 -34 8q-36 18 -39 54q-2 23 19 66l607 1215q21 42 51 66q30 23 75 23h806q46 0 66 -12q29 -19 29 -56t-29 -56q-20 -12 -66 -12h-643v-502h534q46 0 66 -12q29 -19 29 -56t-29 -56q-20 -12 -66 -12h-534
v-514h643q46 0 66 -12q29 -19 29 -56t-29 -56q-20 -12 -66 -12h-704q-51 0 -72 21t-21 72v244zM810 469v817l-408 -817h408z" />
    <glyph glyph-name="Ccedilla" unicode="&#xc7;" horiz-adv-x="1276" 
d="M152 712q0 138 3.5 212.5t18.5 148.5t43.5 123t79.5 100q138 140 354 140q242 0 382 -171q42 -51 66.5 -110t24.5 -97q0 -36 -20 -56t-51 -20q-29 0 -47 16q-21 18 -36 64q-39 114 -121 176t-199 62q-145 0 -244 -102q-65 -66 -82.5 -161t-17.5 -325t17.5 -325t82.5 -161
q99 -102 244 -102q117 0 199 62t121 176q15 46 36 64q18 16 47 16q31 0 51 -20t20 -56q0 -38 -24.5 -97t-66.5 -110q-140 -171 -382 -171q-216 0 -354 140q-51 51 -79.5 100t-43.5 123t-18.5 148.5t-3.5 212.5zM490 -338l102 163q18 30 33 41q17 12 36 12t36 -11
q35 -21 33 -57q-1 -22 -24 -57l-102 -163q-18 -30 -33 -41q-17 -12 -36 -12t-36 11q-35 21 -33 57q1 22 24 57z" />
    <glyph glyph-name="Egrave" unicode="&#xc8;" horiz-adv-x="1200" 
d="M299 1424h704q46 0 66 -12q29 -19 29 -56t-29 -56q-20 -12 -66 -12h-643v-502h534q46 0 66 -12q29 -19 29 -56t-29 -56q-20 -12 -66 -12h-534v-514h643q46 0 66 -12q29 -19 29 -56t-29 -56q-20 -12 -66 -12h-704q-51 0 -72 21t-21 72v1238q0 51 21 72t72 21zM420 1817
q0 37 34 58q18 11 38 11q22 0 38.5 -13t34.5 -43l97 -155q25 -40 25 -62q0 -37 -34 -58q-18 -11 -38 -11q-22 0 -38.5 13t-34.5 43l-97 155q-25 40 -25 62z" />
    <glyph glyph-name="Eacute" unicode="&#xc9;" horiz-adv-x="1200" 
d="M299 1424h704q46 0 66 -12q29 -19 29 -56t-29 -56q-20 -12 -66 -12h-643v-502h534q46 0 66 -12q29 -19 29 -56t-29 -56q-20 -12 -66 -12h-534v-514h643q46 0 66 -12q29 -19 29 -56t-29 -56q-20 -12 -66 -12h-704q-51 0 -72 21t-21 72v1238q0 51 21 72t72 21zM588 1670
l102 163q18 30 33 41q16 12 36 12q19 0 36 -11q35 -21 33 -57q-1 -22 -24 -57l-102 -163q-18 -30 -33 -41q-17 -12 -36 -12t-36 11q-35 21 -33 57q1 22 24 57z" />
    <glyph glyph-name="Ecircumflex" unicode="&#xca;" horiz-adv-x="1200" 
d="M299 1424h704q46 0 66 -12q29 -19 29 -56t-29 -56q-20 -12 -66 -12h-643v-502h534q46 0 66 -12q29 -19 29 -56t-29 -56q-20 -12 -66 -12h-534v-514h643q46 0 66 -12q29 -19 29 -56t-29 -56q-20 -12 -66 -12h-704q-51 0 -72 21t-21 72v1238q0 51 21 72t72 21zM627 1734
l-155 -155q-27 -27 -49 -33q-30 -6 -53 17q-24 24 -17 54q6 23 32 49l187 186q27 27 55 27t55 -27l187 -186q26 -26 32 -49q7 -30 -17 -54q-23 -23 -53 -17q-22 6 -49 33z" />
    <glyph glyph-name="Edieresis" unicode="&#xcb;" horiz-adv-x="1200" 
d="M299 1424h704q46 0 66 -12q29 -19 29 -56t-29 -56q-20 -12 -66 -12h-643v-502h534q46 0 66 -12q29 -19 29 -56t-29 -56q-20 -12 -66 -12h-534v-514h643q46 0 66 -12q29 -19 29 -56t-29 -56q-20 -12 -66 -12h-704q-51 0 -72 21t-21 72v1238q0 51 21 72t72 21zM323 1664
q0 38 26.5 64.5t63.5 26.5t64 -26.5t27 -64.5q0 -37 -26.5 -63.5t-64.5 -26.5q-37 0 -63.5 26t-26.5 64zM750 1664q0 38 26.5 64.5t63.5 26.5q38 0 64.5 -26.5t26.5 -64.5q0 -37 -26.5 -63.5t-64.5 -26.5t-64 26t-26 64z" />
    <glyph glyph-name="Igrave" unicode="&#xcc;" horiz-adv-x="566" 
d="M360 1328v-1232q0 -50 -14 -72q-20 -32 -63 -32t-63 32q-14 22 -14 72v1232q0 50 14 72q20 32 63 32t63 -32q14 -22 14 -72zM76 1817q0 37 34 58q18 11 38 11q22 0 38.5 -13t34.5 -43l97 -155q25 -40 25 -62q0 -37 -34 -58q-18 -11 -38 -11q-22 0 -38.5 13t-34.5 43
l-97 155q-25 40 -25 62z" />
    <glyph glyph-name="Iacute" unicode="&#xcd;" horiz-adv-x="566" 
d="M360 1328v-1232q0 -50 -14 -72q-20 -32 -63 -32t-63 32q-14 22 -14 72v1232q0 50 14 72q20 32 63 32t63 -32q14 -22 14 -72zM244 1670l102 163q18 30 33 41q16 12 36 12t36 -11q35 -21 33 -57q-1 -22 -24 -57l-102 -163q-18 -30 -33 -41q-17 -12 -36 -12t-36 11
q-35 21 -33 57q1 22 24 57z" />
    <glyph glyph-name="Icircumflex" unicode="&#xce;" horiz-adv-x="566" 
d="M360 1328v-1232q0 -50 -14 -72q-20 -32 -63 -32t-63 32q-14 22 -14 72v1232q0 50 14 72q20 32 63 32t63 -32q14 -22 14 -72zM283 1734l-155 -155q-27 -27 -49 -33q-30 -6 -53 17q-24 24 -17 54q6 23 32 49l187 186q27 27 55 27t55 -27l187 -186q26 -26 32 -49
q7 -30 -17 -54q-23 -23 -53 -17q-22 6 -49 33z" />
    <glyph glyph-name="Idieresis" unicode="&#xcf;" horiz-adv-x="566" 
d="M5 1664q0 38 26.5 64.5t63.5 26.5t64 -26.5t27 -64.5q0 -37 -26.5 -63.5t-64.5 -26.5q-37 0 -63.5 26t-26.5 64zM380 1664q0 38 26.5 64.5t63.5 26.5q38 0 64.5 -26.5t26.5 -64.5q0 -37 -26.5 -63.5t-64.5 -26.5t-64 26t-26 64zM360 1328v-1232q0 -50 -14 -72
q-20 -32 -63 -32t-63 32q-14 22 -14 72v1232q0 50 14 72q20 32 63 32t63 -32q14 -22 14 -72z" />
    <glyph glyph-name="Eth" unicode="&#xd0;" horiz-adv-x="1378" 
d="M327 0q-51 0 -72 21t-21 72v563h-86q-43 0 -60 11q-26 17 -26 51t26 51q17 11 60 11h86v551q0 51 21 72t72 21h397q121 0 212.5 -36t163.5 -114q31 -33 53 -72t35.5 -88t21.5 -88.5t11.5 -103t4 -101t0.5 -109.5t-0.5 -109.5t-4 -101t-11.5 -103t-21.5 -88.5t-35.5 -88
t-53 -72q-72 -78 -163.5 -114t-212.5 -36h-397zM698 1288h-310v-508h250q43 0 60 -11q26 -17 26 -51t-26 -51q-17 -11 -60 -11h-250v-520h310q186 0 281 105q32 36 52 84.5t28.5 117.5t10.5 123t2 146t-2 146t-10.5 123t-28.5 117.5t-52 84.5q-95 105 -281 105z" />
    <glyph glyph-name="Ntilde" unicode="&#xd1;" horiz-adv-x="1466" 
d="M1260 1328v-1235q0 -53 -24 -77t-58 -24q-46 0 -87 61l-731 1080v-1037q0 -50 -14 -72q-20 -32 -63 -32t-63 32q-14 22 -14 72v1235q0 53 24 77q22 24 58 24q26 0 45.5 -14.5t41.5 -46.5l731 -1080v1037q0 50 14 72q20 32 63 32t63 -32q14 -22 14 -72zM715 1620
q-70 41 -111 41q-24 0 -42.5 -6.5t-45.5 -29.5q-31 -26 -51 -26q-22 0 -37 15t-15 39q0 30 36 61q72 62 153 62q41 0 70.5 -10.5t72.5 -35.5q70 -41 111 -41q24 0 42.5 6.5t45.5 29.5q31 26 51 26q22 0 37 -15t15 -39q0 -30 -36 -61q-72 -62 -153 -62q-41 0 -70.5 10.5
t-72.5 35.5z" />
    <glyph glyph-name="Ograve" unicode="&#xd2;" horiz-adv-x="1304" 
d="M652 1436q214 0 356 -140q41 -41 67 -83t42 -85t23.5 -110t9.5 -130.5t2 -175.5t-2 -175.5t-9.5 -130.5t-23.5 -110t-42 -85t-67 -83q-142 -140 -356 -140t-356 140q-41 41 -67 83t-42 85t-23.5 110t-9.5 130.5t-2 175.5t2 175.5t9.5 130.5t23.5 110t42 85t67 83
q142 140 356 140zM652 124q147 0 246 102q64 66 82 160.5t18 325.5t-18 325.5t-82 160.5q-99 102 -246 102t-246 -102q-64 -66 -82 -160.5t-18 -325.5t18 -325.5t82 -160.5q99 -102 246 -102zM445 1817q0 37 34 58q18 11 38 11q22 0 38.5 -13t34.5 -43l97 -155
q25 -40 25 -62q0 -37 -34 -58q-18 -11 -38 -11q-22 0 -38.5 13t-34.5 43l-97 155q-25 40 -25 62z" />
    <glyph glyph-name="Oacute" unicode="&#xd3;" horiz-adv-x="1304" 
d="M652 1436q214 0 356 -140q41 -41 67 -83t42 -85t23.5 -110t9.5 -130.5t2 -175.5t-2 -175.5t-9.5 -130.5t-23.5 -110t-42 -85t-67 -83q-142 -140 -356 -140t-356 140q-41 41 -67 83t-42 85t-23.5 110t-9.5 130.5t-2 175.5t2 175.5t9.5 130.5t23.5 110t42 85t67 83
q142 140 356 140zM652 124q147 0 246 102q64 66 82 160.5t18 325.5t-18 325.5t-82 160.5q-99 102 -246 102t-246 -102q-64 -66 -82 -160.5t-18 -325.5t18 -325.5t82 -160.5q99 -102 246 -102zM613 1670l102 163q18 30 33 41q16 12 36 12t36 -11q35 -21 33 -57
q-1 -22 -24 -57l-102 -163q-18 -30 -33 -41q-16 -12 -36 -12t-36 11q-35 21 -33 57q1 22 24 57z" />
    <glyph glyph-name="Ocircumflex" unicode="&#xd4;" horiz-adv-x="1304" 
d="M652 1436q214 0 356 -140q41 -41 67 -83t42 -85t23.5 -110t9.5 -130.5t2 -175.5t-2 -175.5t-9.5 -130.5t-23.5 -110t-42 -85t-67 -83q-142 -140 -356 -140t-356 140q-41 41 -67 83t-42 85t-23.5 110t-9.5 130.5t-2 175.5t2 175.5t9.5 130.5t23.5 110t42 85t67 83
q142 140 356 140zM652 124q147 0 246 102q64 66 82 160.5t18 325.5t-18 325.5t-82 160.5q-99 102 -246 102t-246 -102q-64 -66 -82 -160.5t-18 -325.5t18 -325.5t82 -160.5q99 -102 246 -102zM652 1734l-155 -155q-27 -27 -49 -33q-30 -6 -53 17q-24 24 -17 54q6 23 32 49
l187 186q27 27 55 27t55 -27l187 -186q26 -26 32 -49q7 -30 -17 -54q-23 -23 -53 -17q-22 6 -49 33z" />
    <glyph glyph-name="Otilde" unicode="&#xd5;" horiz-adv-x="1304" 
d="M652 1436q214 0 356 -140q41 -41 67 -83t42 -85t23.5 -110t9.5 -130.5t2 -175.5t-2 -175.5t-9.5 -130.5t-23.5 -110t-42 -85t-67 -83q-142 -140 -356 -140t-356 140q-41 41 -67 83t-42 85t-23.5 110t-9.5 130.5t-2 175.5t2 175.5t9.5 130.5t23.5 110t42 85t67 83
q142 140 356 140zM652 124q147 0 246 102q64 66 82 160.5t18 325.5t-18 325.5t-82 160.5q-99 102 -246 102t-246 -102q-64 -66 -82 -160.5t-18 -325.5t18 -325.5t82 -160.5q99 -102 246 -102zM635 1620q-70 41 -111 41q-24 0 -42.5 -6.5t-45.5 -29.5q-31 -26 -51 -26
q-22 0 -37 15t-15 39q0 30 36 61q72 62 153 62q41 0 70.5 -10.5t72.5 -35.5q70 -41 111 -41q24 0 42.5 6.5t45.5 29.5q31 26 51 26q22 0 37 -15t15 -39q0 -30 -36 -61q-72 -62 -153 -62q-41 0 -70.5 10.5t-72.5 35.5z" />
    <glyph glyph-name="Odieresis" unicode="&#xd6;" horiz-adv-x="1304" 
d="M652 1436q214 0 356 -140q41 -41 67 -83t42 -85t23.5 -110t9.5 -130.5t2 -175.5t-2 -175.5t-9.5 -130.5t-23.5 -110t-42 -85t-67 -83q-142 -140 -356 -140t-356 140q-41 41 -67 83t-42 85t-23.5 110t-9.5 130.5t-2 175.5t2 175.5t9.5 130.5t23.5 110t42 85t67 83
q142 140 356 140zM652 124q147 0 246 102q64 66 82 160.5t18 325.5t-18 325.5t-82 160.5q-99 102 -246 102t-246 -102q-64 -66 -82 -160.5t-18 -325.5t18 -325.5t82 -160.5q99 -102 246 -102zM348 1664q0 38 26.5 64.5t63.5 26.5q38 0 64.5 -26.5t26.5 -64.5
q0 -37 -26.5 -63.5t-64.5 -26.5t-64 26t-26 64zM775 1664q0 38 26.5 64.5t63.5 26.5t64 -26.5t27 -64.5q0 -37 -26.5 -63.5t-64.5 -26.5q-37 0 -63.5 26t-26.5 64z" />
    <glyph glyph-name="multiply" unicode="&#xd7;" 
d="M426 539l-227 226q-31 31 -37 54q-8 33 19 60t60 19q23 -6 54 -37l227 -226l227 226q31 31 54 37q33 8 60 -19t19 -60q-6 -23 -37 -54l-227 -226l227 -226q31 -31 37 -54q8 -33 -19 -60t-60 -19q-23 6 -54 37l-227 226l-227 -226q-31 -31 -54 -37q-33 -8 -60 19t-19 60
q6 23 37 54z" />
    <glyph glyph-name="Oslash" unicode="&#xd8;" horiz-adv-x="1304" 
d="M249 21l52 104q-42 41 -69 84t-43.5 86.5t-24.5 111t-10 131.5t-2 174q0 112 2 175.5t9.5 130.5t23.5 110t42 85t67 83q142 140 356 140q138 0 246 -62l43 87q19 38 34 49q28 21 63 4q35 -18 35 -53q0 -21 -18 -57l-53 -105q52 -52 82 -102t45 -124t19 -149t4 -212
q0 -112 -2 -175.5t-9.5 -130.5t-23.5 -110t-42 -85t-67 -83q-142 -140 -356 -140q-140 0 -247 61l-42 -85q-19 -38 -34 -49q-28 -21 -63 -4t-35 53q0 21 18 57zM381 272l464 972q-84 57 -193 57q-147 0 -247 -102q-64 -65 -81.5 -160t-17.5 -327q0 -199 13 -288t62 -152z
M652 123q147 0 246 102q64 66 82 161t18 326q0 199 -13 288t-62 152l-464 -972q84 -57 193 -57z" />
    <glyph glyph-name="Ugrave" unicode="&#xd9;" horiz-adv-x="1368" 
d="M1183 470q0 -212 -141 -347t-359 -135t-358 135t-140 347v858q0 50 14 72q20 32 63 32t63 -32q14 -22 14 -72v-846q0 -162 94 -260t250 -98t251 98t95 260v846q0 50 14 72q20 32 63 32t63 -32q14 -22 14 -72v-858zM476 1817q0 37 34 58q18 11 38 11q22 0 38.5 -13
t34.5 -43l97 -155q25 -40 25 -62q0 -37 -34 -58q-18 -11 -38 -11q-22 0 -38.5 13t-34.5 43l-97 155q-25 40 -25 62z" />
    <glyph glyph-name="Uacute" unicode="&#xda;" horiz-adv-x="1368" 
d="M1183 470q0 -212 -141 -347t-359 -135t-358 135t-140 347v858q0 50 14 72q20 32 63 32t63 -32q14 -22 14 -72v-846q0 -162 94 -260t250 -98t251 98t95 260v846q0 50 14 72q20 32 63 32t63 -32q14 -22 14 -72v-858zM644 1670l102 163q18 30 33 41q16 12 36 12t36 -11
q35 -21 33 -57q-1 -22 -24 -57l-102 -163q-18 -30 -33 -41q-17 -12 -36 -12t-36 11q-35 21 -33 57q1 22 24 57z" />
    <glyph glyph-name="Ucircumflex" unicode="&#xdb;" horiz-adv-x="1368" 
d="M1183 470q0 -212 -141 -347t-359 -135t-358 135t-140 347v858q0 50 14 72q20 32 63 32t63 -32q14 -22 14 -72v-846q0 -162 94 -260t250 -98t251 98t95 260v846q0 50 14 72q20 32 63 32t63 -32q14 -22 14 -72v-858zM683 1734l-155 -155q-27 -27 -49 -33q-30 -6 -53 17
q-24 24 -17 54q6 23 32 49l187 186q27 27 55 27t55 -27l187 -186q26 -26 32 -49q7 -30 -17 -54q-23 -23 -53 -17q-22 6 -49 33z" />
    <glyph glyph-name="Udieresis" unicode="&#xdc;" horiz-adv-x="1368" 
d="M1183 470q0 -212 -141 -347t-359 -135t-358 135t-140 347v858q0 50 14 72q20 32 63 32t63 -32q14 -22 14 -72v-846q0 -162 94 -260t250 -98t251 98t95 260v846q0 50 14 72q20 32 63 32t63 -32q14 -22 14 -72v-858zM379 1664q0 38 26.5 64.5t63.5 26.5t64 -26.5t27 -64.5
q0 -37 -26.5 -63.5t-64.5 -26.5q-37 0 -63.5 26t-26.5 64zM806 1664q0 38 26.5 64.5t63.5 26.5q38 0 64.5 -26.5t26.5 -64.5q0 -37 -26.5 -63.5t-64.5 -26.5t-64 26t-26 64z" />
    <glyph glyph-name="Yacute" unicode="&#xdd;" horiz-adv-x="1008" 
d="M942 1304l-361 -722v-486q0 -50 -14 -72q-20 -32 -63 -32t-63 32q-14 22 -14 72v486l-361 722q-21 43 -19 66q3 36 39 54q16 8 34 8q19 0 34 -10q20 -13 40 -54l310 -620l310 620q20 41 40 54q15 10 34 10q18 0 34 -8q36 -18 39 -54q2 -23 -19 -66zM465 1670l102 163
q18 30 33 41q16 12 36 12t36 -11q35 -21 33 -57q-1 -22 -24 -57l-102 -163q-18 -30 -33 -41q-16 -12 -36 -12t-36 11q-35 21 -33 57q1 22 24 57z" />
    <glyph glyph-name="Thorn" unicode="&#xde;" horiz-adv-x="1289" 
d="M360 1138h378q196 0 319 -114.5t123 -303.5t-123 -304.5t-319 -115.5h-378v-204q0 -50 -14 -72q-20 -32 -63 -32t-63 32q-14 22 -14 72v1232q0 50 14 72q20 32 63 32t63 -32q14 -22 14 -72v-190zM726 1002h-366v-566h366q137 0 218 73t81 211q0 137 -80.5 209.5
t-218.5 72.5z" />
    <glyph glyph-name="germandbls" unicode="&#xdf;" horiz-adv-x="1112" 
d="M652 128h17q72 0 115 41q42 39 42 123v346q0 81 -41 121q-41 41 -114 41h-28q-37 0 -54 11q-25 17 -25 49t25 49q17 11 54 11h12q77 0 124 49.5t47 130.5q0 92 -62 151t-190 59q-247 0 -247 -271v-949q0 -45 -13 -67q-19 -31 -60 -31q-43 0 -60 31q-13 22 -13 67v956
q0 185 108 287.5t295 102.5q110 0 195 -34t138 -110.5t53 -186.5q0 -155 -125 -239q72 -38 99.5 -90.5t27.5 -149.5v-349q0 -130 -80 -205q-79 -72 -198 -72h-42q-42 0 -61 12q-27 19 -27 52t27 52q19 12 61 12z" />
    <glyph glyph-name="agrave" unicode="&#xe0;" horiz-adv-x="1053" 
d="M99 279q0 131 90.5 208t249.5 77h298v80q0 115 -57.5 171t-184.5 56q-73 0 -122 -20t-101 -67q-29 -26 -61 -26q-27 0 -44 18q-18 21 -18 46q0 48 94 110q101 64 253 64q190 0 288 -83.5t98 -245.5v-577q0 -46 -13 -67q-19 -31 -60 -31t-60 31q-13 21 -13 67v2
q-59 -58 -122.5 -81t-159.5 -23q-102 0 -167.5 21.5t-112.5 68.5q-75 78 -75 201zM242 280q0 -169 227 -169q72 0 123.5 13.5t93.5 53.5q51 49 51 171v105h-282q-105 0 -159 -44.5t-54 -129.5zM304 1446q0 37 34 58q18 11 38 11q22 0 38.5 -13t34.5 -43l97 -155
q25 -40 25 -62q0 -37 -34 -58q-18 -11 -38 -11q-22 0 -38.5 13t-34.5 43l-97 155q-25 40 -25 62z" />
    <glyph glyph-name="aacute" unicode="&#xe1;" horiz-adv-x="1053" 
d="M99 279q0 131 90.5 208t249.5 77h298v80q0 115 -57.5 171t-184.5 56q-73 0 -122 -20t-101 -67q-29 -26 -61 -26q-27 0 -44 18q-18 21 -18 46q0 48 94 110q101 64 253 64q190 0 288 -83.5t98 -245.5v-577q0 -46 -13 -67q-19 -31 -60 -31t-60 31q-13 21 -13 67v2
q-59 -58 -122.5 -81t-159.5 -23q-102 0 -167.5 21.5t-112.5 68.5q-75 78 -75 201zM242 280q0 -169 227 -169q72 0 123.5 13.5t93.5 53.5q51 49 51 171v105h-282q-105 0 -159 -44.5t-54 -129.5zM469 1303l102 163q18 30 33 41q16 12 36 12t36 -11q35 -21 33 -57
q-1 -22 -24 -57l-102 -163q-18 -30 -33 -41q-16 -12 -36 -12q-19 0 -36 11q-35 21 -33 57q1 22 24 57z" />
    <glyph glyph-name="acircumflex" unicode="&#xe2;" horiz-adv-x="1053" 
d="M99 279q0 131 90.5 208t249.5 77h298v80q0 115 -57.5 171t-184.5 56q-73 0 -122 -20t-101 -67q-29 -26 -61 -26q-27 0 -44 18q-18 21 -18 46q0 48 94 110q101 64 253 64q190 0 288 -83.5t98 -245.5v-577q0 -46 -13 -67q-19 -31 -60 -31t-60 31q-13 21 -13 67v2
q-59 -58 -122.5 -81t-159.5 -23q-102 0 -167.5 21.5t-112.5 68.5q-75 78 -75 201zM242 280q0 -169 227 -169q72 0 123.5 13.5t93.5 53.5q51 49 51 171v105h-282q-105 0 -159 -44.5t-54 -129.5zM506 1360l-155 -155q-27 -27 -49 -33q-30 -6 -53 17q-24 24 -17 54q6 23 32 49
l187 186q27 27 55 27t55 -27l187 -186q26 -26 32 -49q7 -30 -17 -54q-23 -23 -53 -17q-22 6 -49 33z" />
    <glyph glyph-name="atilde" unicode="&#xe3;" horiz-adv-x="1053" 
d="M99 279q0 131 90.5 208t249.5 77h298v80q0 115 -57.5 171t-184.5 56q-73 0 -122 -20t-101 -67q-29 -26 -61 -26q-27 0 -44 18q-18 21 -18 46q0 48 94 110q101 64 253 64q190 0 288 -83.5t98 -245.5v-577q0 -46 -13 -67q-19 -31 -60 -31t-60 31q-13 21 -13 67v2
q-59 -58 -122.5 -81t-159.5 -23q-102 0 -167.5 21.5t-112.5 68.5q-75 78 -75 201zM242 280q0 -169 227 -169q72 0 123.5 13.5t93.5 53.5q51 49 51 171v105h-282q-105 0 -159 -44.5t-54 -129.5zM491 1258q-70 41 -111 41q-24 0 -42.5 -6.5t-45.5 -29.5q-31 -26 -51 -26
q-22 0 -37 15t-15 39q0 30 36 61q72 62 153 62q41 0 70.5 -10.5t72.5 -35.5q70 -41 111 -41q24 0 42.5 6.5t45.5 29.5q31 26 51 26q22 0 37 -15t15 -39q0 -30 -36 -61q-72 -62 -153 -62q-41 0 -70.5 10.5t-72.5 35.5z" />
    <glyph glyph-name="adieresis" unicode="&#xe4;" horiz-adv-x="1053" 
d="M99 279q0 131 90.5 208t249.5 77h298v80q0 115 -57.5 171t-184.5 56q-73 0 -122 -20t-101 -67q-29 -26 -61 -26q-27 0 -44 18q-18 21 -18 46q0 48 94 110q101 64 253 64q190 0 288 -83.5t98 -245.5v-577q0 -46 -13 -67q-19 -31 -60 -31t-60 31q-13 21 -13 67v2
q-59 -58 -122.5 -81t-159.5 -23q-102 0 -167.5 21.5t-112.5 68.5q-75 78 -75 201zM242 280q0 -169 227 -169q72 0 123.5 13.5t93.5 53.5q51 49 51 171v105h-282q-105 0 -159 -44.5t-54 -129.5zM202 1289q0 38 26.5 64.5t63.5 26.5q38 0 64.5 -27t26.5 -64t-26.5 -63.5
t-64.5 -26.5t-64 26.5t-26 63.5zM629 1289q0 38 26.5 64.5t63.5 26.5t64 -27t27 -64t-26.5 -63.5t-64.5 -26.5q-37 0 -63.5 26.5t-26.5 63.5z" />
    <glyph glyph-name="aring" unicode="&#xe5;" horiz-adv-x="1053" 
d="M99 279q0 131 90.5 208t249.5 77h298v80q0 115 -57.5 171t-184.5 56q-73 0 -122 -20t-101 -67q-29 -26 -61 -26q-27 0 -44 18q-18 21 -18 46q0 48 94 110q101 64 253 64q190 0 288 -83.5t98 -245.5v-577q0 -46 -13 -67q-19 -31 -60 -31t-60 31q-13 21 -13 67v2
q-59 -58 -122.5 -81t-159.5 -23q-102 0 -167.5 21.5t-112.5 68.5q-75 78 -75 201zM242 280q0 -169 227 -169q72 0 123.5 13.5t93.5 53.5q51 49 51 171v105h-282q-105 0 -159 -44.5t-54 -129.5zM269 1374q0 98 69.5 167.5t167.5 69.5t167.5 -69.5t69.5 -167.5t-69.5 -167.5
t-167.5 -69.5t-167.5 69.5t-69.5 167.5zM368 1374q0 -57 40.5 -97.5t97.5 -40.5t97.5 40.5t40.5 97.5t-40.5 97.5t-97.5 40.5t-97.5 -40.5t-40.5 -97.5z" />
    <glyph glyph-name="ae" unicode="&#xe6;" horiz-adv-x="1668" 
d="M1167 -12q-245 0 -352 171q-66 -94 -149 -132.5t-212 -38.5q-102 0 -167.5 21.5t-112.5 68.5q-75 78 -75 201q0 131 90.5 208t249.5 77h298v80q0 115 -57.5 171t-184.5 56q-73 0 -122 -20t-101 -67q-29 -26 -61 -26q-27 0 -44 18q-18 21 -18 46q0 48 94 110
q101 64 253 64q254 0 338 -153q105 153 308 153q186 0 294 -124.5t110 -331.5q0 -46 -20 -66q-19 -19 -64 -19h-581q0 -163 75.5 -252t216.5 -89q127 0 211 71q42 35 68 35q24 0 43 -19t19 -44q0 -49 -102 -112q-96 -57 -245 -57zM881 565h522q-4 94 -31 160
q-28 68 -89 107.5t-141 39.5t-141.5 -40t-88.5 -107q-27 -66 -31 -160zM242 280q0 -169 227 -169q72 0 123.5 13.5t93.5 53.5q51 49 51 171v105h-282q-105 0 -159 -44.5t-54 -129.5z" />
    <glyph glyph-name="ccedilla" unicode="&#xe7;" horiz-adv-x="978" 
d="M126 492q0 245 119.5 374.5t315.5 129.5q74 0 130 -19t110 -62q40 -31 55 -49.5t15 -43.5q0 -26 -21 -47q-20 -18 -45 -18q-24 0 -70 38q-48 40 -86.5 55.5t-87.5 15.5q-147 0 -225 -109q-34 -49 -49 -110t-15 -155q0 -93 15 -154t49 -110q78 -110 225 -110q50 0 89 15.5
t85 55.5q43 38 70 38q25 0 45 -18q21 -21 21 -47q0 -25 -17 -46t-53 -48q-101 -80 -240 -80q-196 0 -315.5 130t-119.5 374zM377 -338l102 163q18 30 33 41q16 12 36 12t36 -11q35 -21 33 -57q-1 -22 -24 -57l-102 -163q-18 -30 -33 -41q-16 -12 -36 -12t-36 11
q-35 21 -33 57q1 22 24 57z" />
    <glyph glyph-name="egrave" unicode="&#xe8;" horiz-adv-x="1058" 
d="M852 455h-581q0 -163 75.5 -252t216.5 -89q127 0 211 71q42 35 68 35q24 0 43 -19t19 -44q0 -49 -102 -112q-96 -57 -245 -57q-203 0 -317 125.5t-114 378.5q0 241 108.5 372.5t297.5 131.5q186 0 294 -124.5t110 -331.5q0 -46 -20 -66q-19 -19 -64 -19zM271 565h522
q-4 94 -31 160q-28 68 -89 107.5t-141 39.5t-141.5 -40t-88.5 -107q-27 -66 -31 -160zM330 1446q0 37 34 58q18 11 38 11q22 0 38.5 -13t34.5 -43l97 -155q25 -40 25 -62q0 -37 -34 -58q-18 -11 -38 -11q-22 0 -38.5 13t-34.5 43l-97 155q-25 40 -25 62z" />
    <glyph glyph-name="eacute" unicode="&#xe9;" horiz-adv-x="1058" 
d="M852 455h-581q0 -163 75.5 -252t216.5 -89q127 0 211 71q42 35 68 35q24 0 43 -19t19 -44q0 -49 -102 -112q-96 -57 -245 -57q-203 0 -317 125.5t-114 378.5q0 241 108.5 372.5t297.5 131.5q186 0 294 -124.5t110 -331.5q0 -46 -20 -66q-19 -19 -64 -19zM271 565h522
q-4 94 -31 160q-28 68 -89 107.5t-141 39.5t-141.5 -40t-88.5 -107q-27 -66 -31 -160zM495 1303l102 163q18 30 33 41q17 12 36 12q20 0 36 -11q35 -21 33 -57q-1 -22 -24 -57l-102 -163q-18 -30 -33 -41q-16 -12 -36 -12t-36 11q-35 21 -33 57q1 22 24 57z" />
    <glyph glyph-name="ecircumflex" unicode="&#xea;" horiz-adv-x="1058" 
d="M852 455h-581q0 -163 75.5 -252t216.5 -89q127 0 211 71q42 35 68 35q24 0 43 -19t19 -44q0 -49 -102 -112q-96 -57 -245 -57q-203 0 -317 125.5t-114 378.5q0 241 108.5 372.5t297.5 131.5q186 0 294 -124.5t110 -331.5q0 -46 -20 -66q-19 -19 -64 -19zM271 565h522
q-4 94 -31 160q-28 68 -89 107.5t-141 39.5t-141.5 -40t-88.5 -107q-27 -66 -31 -160zM532 1360l-155 -155q-27 -27 -49 -33q-30 -6 -53 17q-24 24 -17 54q6 23 32 49l187 186q27 27 55 27t55 -27l187 -186q26 -26 32 -49q7 -30 -17 -54q-23 -23 -53 -17q-22 6 -49 33z" />
    <glyph glyph-name="edieresis" unicode="&#xeb;" horiz-adv-x="1058" 
d="M852 455h-581q0 -163 75.5 -252t216.5 -89q127 0 211 71q42 35 68 35q24 0 43 -19t19 -44q0 -49 -102 -112q-96 -57 -245 -57q-203 0 -317 125.5t-114 378.5q0 241 108.5 372.5t297.5 131.5q186 0 294 -124.5t110 -331.5q0 -46 -20 -66q-19 -19 -64 -19zM271 565h522
q-4 94 -31 160q-28 68 -89 107.5t-141 39.5t-141.5 -40t-88.5 -107q-27 -66 -31 -160zM228 1289q0 38 26.5 64.5t63.5 26.5q38 0 64.5 -27t26.5 -64t-26.5 -63.5t-64.5 -26.5t-64 26.5t-26 63.5zM655 1289q0 38 26.5 64.5t63.5 26.5t64 -27t27 -64t-26.5 -63.5t-64.5 -26.5
q-37 0 -63.5 26.5t-26.5 63.5z" />
    <glyph glyph-name="igrave" unicode="&#xec;" horiz-adv-x="518" 
d="M332 894v-804q0 -46 -13 -67q-19 -31 -60 -31t-60 31q-13 21 -13 67v804q0 46 13 67q19 31 60 31t60 -31q13 -21 13 -67zM57 1446q0 37 34 58q18 11 38 11q22 0 38.5 -13t34.5 -43l97 -155q25 -40 25 -62q0 -37 -34 -58q-18 -11 -38 -11q-22 0 -38.5 13t-34.5 43l-97 155
q-25 40 -25 62z" />
    <glyph glyph-name="iacute" unicode="&#xed;" horiz-adv-x="518" 
d="M332 894v-804q0 -46 -13 -67q-19 -31 -60 -31t-60 31q-13 21 -13 67v804q0 46 13 67q19 31 60 31t60 -31q13 -21 13 -67zM222 1303l102 163q18 30 33 41q16 12 36 12q19 0 36 -11q35 -21 33 -57q-1 -22 -24 -57l-102 -163q-18 -30 -33 -41q-17 -12 -36 -12t-36 11
q-35 21 -33 57q1 22 24 57z" />
    <glyph glyph-name="icircumflex" unicode="&#xee;" horiz-adv-x="518" 
d="M259 1360l-155 -155q-27 -27 -49 -33q-30 -6 -53 17q-24 24 -17 54q6 23 32 49l187 186q27 27 55 27t55 -27l187 -186q26 -26 32 -49q7 -30 -17 -54q-23 -23 -53 -17q-22 6 -49 33zM332 894v-804q0 -46 -13 -67q-19 -31 -60 -31t-60 31q-13 21 -13 67v804q0 46 13 67
q19 31 60 31t60 -31q13 -21 13 -67z" />
    <glyph glyph-name="idieresis" unicode="&#xef;" horiz-adv-x="518" 
d="M-19 1289q0 38 26.5 64.5t63.5 26.5t64 -27t27 -64t-26.5 -63.5t-64.5 -26.5q-37 0 -63.5 26.5t-26.5 63.5zM356 1289q0 38 26.5 64.5t63.5 26.5q38 0 64.5 -27t26.5 -64t-26.5 -63.5t-64.5 -26.5t-64 26.5t-26 63.5zM332 894v-804q0 -46 -13 -67q-19 -31 -60 -31t-60 31
q-13 21 -13 67v804q0 46 13 67q19 31 60 31t60 -31q13 -21 13 -67z" />
    <glyph glyph-name="eth" unicode="&#xf0;" horiz-adv-x="1061" 
d="M322 1244q15 10 53 10h122l-29 59q-18 36 -18 60q0 26 21 44.5t47 18.5q25 0 41 -16t31 -46l60 -120h112q38 0 53 -10q24 -14 24 -46t-24 -46q-15 -10 -53 -10h-56l140 -280q49 -98 67 -178.5t18 -194.5q0 -128 -25.5 -224.5t-94.5 -165.5q-109 -111 -281 -111
q-171 0 -280 111q-69 69 -94.5 165.5t-25.5 224.5t25.5 224.5t94.5 165.5q102 104 280 104q66 0 113 -22l-90 181h-178q-38 0 -53 10q-24 14 -24 46t24 46zM786 489q0 104 -15 178t-63 122q-72 72 -178 72q-105 0 -177 -72q-48 -48 -63 -122t-15 -178q0 -105 15 -179
t63 -122q74 -72 177 -72q104 0 178 72q48 48 63 122t15 179z" />
    <glyph glyph-name="ntilde" unicode="&#xf1;" horiz-adv-x="1130" 
d="M960 629v-539q0 -45 -13 -67q-19 -31 -60 -31q-43 0 -60 31q-13 22 -13 67v514q0 129 -63 195.5t-178 66.5t-180.5 -67.5t-65.5 -194.5v-514q0 -45 -13 -67q-19 -31 -60 -31t-60 31q-13 22 -13 67v804q0 46 13 67q19 31 60 31t60 -31q13 -21 13 -67v-18q108 120 276 120
q161 0 255 -92q102 -99 102 -275zM553 1258q-70 41 -111 41q-24 0 -42.5 -6.5t-45.5 -29.5q-31 -26 -51 -26q-22 0 -37 15t-15 39q0 30 36 61q72 62 153 62q41 0 70.5 -10.5t72.5 -35.5q70 -41 111 -41q24 0 42.5 6.5t45.5 29.5q31 26 51 26q22 0 37 -15t15 -39
q0 -30 -36 -61q-72 -62 -153 -62q-41 0 -70.5 10.5t-72.5 35.5z" />
    <glyph glyph-name="ograve" unicode="&#xf2;" horiz-adv-x="1064" 
d="M532 118q107 0 178 71q80 80 80 303q0 222 -80 302q-72 72 -178 72t-178 -72q-80 -80 -80 -302q0 -223 80 -303q71 -71 178 -71zM532 996q171 0 283 -112q71 -72 96 -167t25 -225t-25 -225t-96 -167q-112 -112 -283 -112t-283 112q-71 72 -96 167t-25 225t25 225t96 167
q112 112 283 112zM330 1446q0 37 34 58q18 11 38 11q22 0 38.5 -13t34.5 -43l97 -155q25 -40 25 -62q0 -37 -34 -58q-18 -11 -38 -11q-22 0 -38.5 13t-34.5 43l-97 155q-25 40 -25 62z" />
    <glyph glyph-name="oacute" unicode="&#xf3;" horiz-adv-x="1064" 
d="M532 118q107 0 178 71q80 80 80 303q0 222 -80 302q-72 72 -178 72t-178 -72q-80 -80 -80 -302q0 -223 80 -303q71 -71 178 -71zM532 996q171 0 283 -112q71 -72 96 -167t25 -225t-25 -225t-96 -167q-112 -112 -283 -112t-283 112q-71 72 -96 167t-25 225t25 225t96 167
q112 112 283 112zM495 1303l102 163q18 30 33 41q17 12 36 12q20 0 36 -11q35 -21 33 -57q-1 -22 -24 -57l-102 -163q-18 -30 -33 -41q-16 -12 -36 -12t-36 11q-35 21 -33 57q1 22 24 57z" />
    <glyph glyph-name="ocircumflex" unicode="&#xf4;" horiz-adv-x="1064" 
d="M532 118q107 0 178 71q80 80 80 303q0 222 -80 302q-72 72 -178 72t-178 -72q-80 -80 -80 -302q0 -223 80 -303q71 -71 178 -71zM532 996q171 0 283 -112q71 -72 96 -167t25 -225t-25 -225t-96 -167q-112 -112 -283 -112t-283 112q-71 72 -96 167t-25 225t25 225t96 167
q112 112 283 112zM532 1360l-155 -155q-27 -27 -49 -33q-30 -6 -53 17q-24 24 -17 54q6 23 32 49l187 186q27 27 55 27t55 -27l187 -186q26 -26 32 -49q7 -30 -17 -54q-23 -23 -53 -17q-22 6 -49 33z" />
    <glyph glyph-name="otilde" unicode="&#xf5;" horiz-adv-x="1064" 
d="M532 118q107 0 178 71q80 80 80 303q0 222 -80 302q-72 72 -178 72t-178 -72q-80 -80 -80 -302q0 -223 80 -303q71 -71 178 -71zM532 996q171 0 283 -112q71 -72 96 -167t25 -225t-25 -225t-96 -167q-112 -112 -283 -112t-283 112q-71 72 -96 167t-25 225t25 225t96 167
q112 112 283 112zM517 1258q-70 41 -111 41q-24 0 -42.5 -6.5t-45.5 -29.5q-31 -26 -51 -26q-22 0 -37 15t-15 39q0 30 36 61q72 62 153 62q41 0 70.5 -10.5t72.5 -35.5q70 -41 111 -41q24 0 42.5 6.5t45.5 29.5q31 26 51 26q22 0 37 -15t15 -39q0 -30 -36 -61
q-72 -62 -153 -62q-41 0 -70.5 10.5t-72.5 35.5z" />
    <glyph glyph-name="odieresis" unicode="&#xf6;" horiz-adv-x="1064" 
d="M532 118q107 0 178 71q80 80 80 303q0 222 -80 302q-72 72 -178 72t-178 -72q-80 -80 -80 -302q0 -223 80 -303q71 -71 178 -71zM532 996q171 0 283 -112q71 -72 96 -167t25 -225t-25 -225t-96 -167q-112 -112 -283 -112t-283 112q-71 72 -96 167t-25 225t25 225t96 167
q112 112 283 112zM228 1289q0 38 26.5 64.5t63.5 26.5q38 0 64.5 -27t26.5 -64t-26.5 -63.5t-64.5 -26.5t-64 26.5t-26 63.5zM655 1289q0 38 26.5 64.5t63.5 26.5t64 -27t27 -64t-26.5 -63.5t-64.5 -26.5q-37 0 -63.5 26.5t-26.5 63.5z" />
    <glyph glyph-name="divide" unicode="&#xf7;" 
d="M947 539q0 -35 -28 -54q-17 -11 -61 -11h-672q-44 0 -61 11q-28 19 -28 54t28 54q17 11 61 11h672q44 0 61 -11q28 -19 28 -54zM406 180q0 47 33.5 80.5t80.5 33.5t80.5 -33.5t33.5 -80.5t-33.5 -80.5t-80.5 -33.5t-80.5 33.5t-33.5 80.5zM408 896q0 47 33.5 80.5
t80.5 33.5t80.5 -33.5t33.5 -80.5t-33.5 -80.5t-80.5 -33.5t-80.5 33.5t-33.5 80.5z" />
    <glyph glyph-name="oslash" unicode="&#xf8;" horiz-adv-x="1064" 
d="M532 996q115 0 205 -52l53 90q22 39 47 45q20 5 39 -7q28 -16 27 -46q-1 -19 -18 -46l-63 -104q67 -71 90.5 -164t23.5 -220q0 -130 -25 -225t-96 -167q-112 -112 -283 -112q-117 0 -207 53l-54 -92q-22 -39 -47 -45q-20 -5 -39 7q-28 16 -27 46q1 19 18 46l64 107
q-65 71 -88.5 163.5t-23.5 218.5q0 130 25 225t96 167q112 112 283 112zM326 230l349 593q-65 43 -143 43q-106 0 -179 -73q-49 -49 -64 -123.5t-15 -180.5q0 -182 52 -259zM738 754l-349 -593q65 -43 143 -43q106 0 179 73q49 49 64 123.5t15 180.5q0 182 -52 259z" />
    <glyph glyph-name="ugrave" unicode="&#xf9;" horiz-adv-x="1130" 
d="M170 355v539q0 45 13 67q19 31 60 31q43 0 60 -31q13 -22 13 -67v-514q0 -129 63 -195.5t178 -66.5t180.5 67.5t65.5 194.5v514q0 45 13 67q19 31 60 31t60 -31q13 -22 13 -67v-804q0 -46 -13 -67q-19 -31 -60 -31t-60 31q-13 21 -13 67v18q-108 -120 -276 -120
q-161 0 -255 92q-102 99 -102 275zM356 1446q0 37 34 58q18 11 38 11q22 0 38.5 -13t34.5 -43l97 -155q25 -40 25 -62q0 -37 -34 -58q-18 -11 -38 -11q-22 0 -38.5 13t-34.5 43l-97 155q-25 40 -25 62z" />
    <glyph glyph-name="uacute" unicode="&#xfa;" horiz-adv-x="1130" 
d="M170 355v539q0 45 13 67q19 31 60 31q43 0 60 -31q13 -22 13 -67v-514q0 -129 63 -195.5t178 -66.5t180.5 67.5t65.5 194.5v514q0 45 13 67q19 31 60 31t60 -31q13 -22 13 -67v-804q0 -46 -13 -67q-19 -31 -60 -31t-60 31q-13 21 -13 67v18q-108 -120 -276 -120
q-161 0 -255 92q-102 99 -102 275zM521 1303l102 163q18 30 33 41q16 12 36 12t36 -11q35 -21 33 -57q-1 -22 -24 -57l-102 -163q-18 -30 -33 -41q-16 -12 -36 -12t-36 11q-35 21 -33 57q1 22 24 57z" />
    <glyph glyph-name="ucircumflex" unicode="&#xfb;" horiz-adv-x="1130" 
d="M170 355v539q0 45 13 67q19 31 60 31q43 0 60 -31q13 -22 13 -67v-514q0 -129 63 -195.5t178 -66.5t180.5 67.5t65.5 194.5v514q0 45 13 67q19 31 60 31t60 -31q13 -22 13 -67v-804q0 -46 -13 -67q-19 -31 -60 -31t-60 31q-13 21 -13 67v18q-108 -120 -276 -120
q-161 0 -255 92q-102 99 -102 275zM558 1360l-155 -155q-27 -27 -49 -33q-30 -6 -53 17q-24 24 -17 54q6 23 32 49l187 186q27 27 55 27t55 -27l187 -186q26 -26 32 -49q7 -30 -17 -54q-23 -23 -53 -17q-22 6 -49 33z" />
    <glyph glyph-name="udieresis" unicode="&#xfc;" horiz-adv-x="1130" 
d="M170 355v539q0 45 13 67q19 31 60 31q43 0 60 -31q13 -22 13 -67v-514q0 -129 63 -195.5t178 -66.5t180.5 67.5t65.5 194.5v514q0 45 13 67q19 31 60 31t60 -31q13 -22 13 -67v-804q0 -46 -13 -67q-19 -31 -60 -31t-60 31q-13 21 -13 67v18q-108 -120 -276 -120
q-161 0 -255 92q-102 99 -102 275zM254 1289q0 38 26.5 64.5t63.5 26.5q38 0 64.5 -27t26.5 -64t-26.5 -63.5t-64.5 -26.5t-64 26.5t-26 63.5zM681 1289q0 38 26.5 64.5t63.5 26.5t64 -27t27 -64t-26.5 -63.5t-64.5 -26.5q-37 0 -63.5 26.5t-26.5 63.5z" />
    <glyph glyph-name="yacute" unicode="&#xfd;" horiz-adv-x="873" 
d="M436 195l239 727q11 34 27 52t45 18q21 0 40 -12t26 -31q9 -26 -6 -71l-386 -1115q-26 -77 -70 -118q-70 -67 -181 -67q-49 0 -68 15q-22 19 -22 50q0 34 23 51q19 14 53 14q56 0 91.5 27t57.5 94l62 186l-301 863q-15 45 -6 71q7 19 26 31t40 12q29 0 45 -18t27 -52z
M399 1303l102 163q18 30 33 41q16 12 36 12t36 -11q35 -21 33 -57q-1 -22 -24 -57l-102 -163q-18 -30 -33 -41q-16 -12 -36 -12t-36 11q-35 21 -33 57q1 22 24 57z" />
    <glyph glyph-name="thorn" unicode="&#xfe;" horiz-adv-x="1095" 
d="M821 492q0 64 -5 113.5t-20.5 100.5t-41.5 84.5t-72 54.5t-108 21t-108 -21t-72 -54.5t-41.5 -84.5t-20.5 -100.5t-5 -113.5t5 -113.5t20.5 -100.5t41.5 -84.5t72 -54.5t108 -21t108 21t72 54.5t41.5 84.5t20.5 100.5t5 113.5zM967 492q0 -296 -122 -418
q-86 -86 -240 -86q-88 0 -154 27t-124 99v-464q0 -46 -13 -67q-19 -31 -60 -31t-60 31q-13 21 -13 67v1684q0 46 13 67q19 31 60 31t60 -31q13 -21 13 -67v-464q58 72 124 99t154 27q154 0 240 -86q122 -122 122 -418z" />
    <glyph glyph-name="ydieresis" unicode="&#xff;" horiz-adv-x="873" 
d="M436 195l239 727q11 34 27 52t45 18q21 0 40 -12t26 -31q9 -26 -6 -71l-386 -1115q-26 -77 -70 -118q-70 -67 -181 -67q-49 0 -68 15q-22 19 -22 50q0 34 23 51q19 14 53 14q56 0 91.5 27t57.5 94l62 186l-301 863q-15 45 -6 71q7 19 26 31t40 12q29 0 45 -18t27 -52z
M132 1289q0 38 26.5 64.5t63.5 26.5q38 0 64.5 -27t26.5 -64t-26.5 -63.5t-64.5 -26.5t-64 26.5t-26 63.5zM559 1289q0 38 26.5 64.5t63.5 26.5t64 -27t27 -64t-26.5 -63.5t-64.5 -26.5q-37 0 -63.5 26.5t-26.5 63.5z" />
    <glyph glyph-name="dotlessi" unicode="&#x131;" horiz-adv-x="518" 
d="M332 894v-804q0 -46 -13 -67q-19 -31 -60 -31t-60 31q-13 21 -13 67v804q0 46 13 67q19 31 60 31t60 -31q13 -21 13 -67z" />
    <glyph glyph-name="IJ" unicode="&#x132;" horiz-adv-x="1567" 
d="M935 124q140 0 216 85.5t76 242.5v876q0 50 14 72q20 32 63 32t63 -32q14 -22 14 -72v-896q0 -203 -124 -323.5t-322 -120.5q-159 0 -271 83q-40 30 -40 66q0 29 18 49q20 21 47 21q28 0 69 -29q76 -54 177 -54zM360 1328v-1232q0 -50 -14 -72q-20 -32 -63 -32t-63 32
q-14 22 -14 72v1232q0 50 14 72q20 32 63 32t63 -32q14 -22 14 -72z" />
    <glyph glyph-name="ij" unicode="&#x133;" horiz-adv-x="1023" 
d="M665 1353q0 41 29 70t70 29t70 -29t29 -70t-29 -70t-70 -29t-70 29t-29 70zM691 -172v1066q0 46 13 67q19 31 60 31t60 -31q13 -21 13 -67v-1071q0 -115 -65 -189.5t-185 -74.5h-26q-45 0 -65 12q-27 17 -27 51t27 51q20 12 65 12q130 0 130 143zM332 894v-804
q0 -46 -13 -67q-19 -31 -60 -31t-60 31q-13 21 -13 67v804q0 46 13 67q19 31 60 31t60 -31q13 -21 13 -67zM160 1353q0 41 29 70t70 29t70 -29t29 -70t-29 -70t-70 -29t-70 29t-29 70z" />
    <glyph glyph-name="Lslash" unicode="&#x141;" horiz-adv-x="1173" 
d="M328 0q-51 0 -72 21t-21 72v492l-62 -31q-34 -17 -52 -17q-22 0 -40 18q-19 19 -19 47q0 22 13.5 36t42.5 28l117 58v604q0 50 14 72q20 32 63 32t63 -32q14 -22 14 -72v-527l228 115q34 17 52 17q22 0 40 -18q19 -19 19 -47q0 -22 -13.5 -36t-42.5 -28l-283 -142v-526
h638q46 0 66 -12q29 -19 29 -56t-29 -56q-20 -12 -66 -12h-699z" />
    <glyph glyph-name="lslash" unicode="&#x142;" horiz-adv-x="630" 
d="M354 762v-493q0 -143 130 -143q46 0 65 -12q27 -17 27 -51t-27 -51q-19 -12 -65 -12h-26q-120 0 -185 74.5t-65 189.5v425l-53 -26q-29 -15 -47 -15q-29 0 -47 31q-7 13 -7 28q0 14 10 29q10 12 41 28l103 51v519q0 46 13 67q19 31 60 31t60 -31q13 -21 13 -67v-446
l109 54q29 15 47 15q29 0 47 -31q7 -13 7 -28q0 -14 -10 -29q-10 -13 -41 -28z" />
    <glyph glyph-name="OE" unicode="&#x152;" horiz-adv-x="1991" 
d="M1091 1424h703q46 0 66 -12q29 -19 29 -56t-29 -56q-20 -12 -66 -12h-643v-502h534q46 0 66 -12q29 -19 29 -56t-29 -56q-20 -12 -66 -12h-534v-514h643q46 0 66 -12q29 -19 29 -56t-29 -56q-20 -12 -66 -12h-703q-51 0 -72 21t-21 72v40q-137 -145 -346 -145
q-214 0 -356 140q-41 41 -67 83t-42 85t-23.5 110t-9.5 130.5t-2 175.5t2 175.5t9.5 130.5t23.5 110t42 85t67 83q142 140 356 140q209 0 346 -145v40q0 51 21 72t72 21zM652 123q147 0 246 102q64 66 82 161t18 326t-18 326t-82 161q-99 102 -246 102t-246 -102
q-64 -66 -82 -161t-18 -326t18 -326t82 -161q99 -102 246 -102z" />
    <glyph glyph-name="oe" unicode="&#x153;" horiz-adv-x="1722" 
d="M532 118q107 0 178 71q80 80 80 303q0 222 -80 302q-72 72 -178 72t-178 -72q-80 -80 -80 -302q0 -223 80 -303q71 -71 178 -71zM935 565h522q-4 94 -31 160q-28 68 -89 107.5t-141 39.5t-141.5 -40t-88.5 -107q-27 -66 -31 -160zM532 -12q-171 0 -283 112
q-71 72 -96 167t-25 225t25 225t96 167q112 112 283 112q112 0 199 -49.5t136 -139.5q50 92 133.5 140.5t195.5 48.5q186 0 294 -124.5t110 -331.5q0 -46 -20 -66q-19 -19 -64 -19h-581q0 -163 75.5 -252t216.5 -89q127 0 211 71q42 35 68 35q24 0 43 -19t19 -44
q0 -49 -102 -112q-96 -57 -245 -57q-250 0 -356 189q-47 -89 -134.5 -139t-198.5 -50z" />
    <glyph glyph-name="Scaron" unicode="&#x160;" horiz-adv-x="1177" 
d="M659 635l-167 26q-86 13 -146 37.5t-113 71.5q-110 97 -110 265q0 182 123 291.5t333 109.5q108 0 182 -21.5t167 -78.5q59 -36 59 -78q0 -27 -17 -45q-19 -22 -48 -22q-26 0 -70 28q-72 49 -132 67t-147 18q-141 0 -221.5 -71.5t-80.5 -190.5q0 -111 66 -167
q39 -33 81 -50.5t110 -27.5l157 -24q100 -16 158 -38t103 -61q119 -100 119 -282q0 -186 -134.5 -295t-358.5 -109q-130 0 -218.5 27t-186.5 93q-64 42 -64 87q0 31 21 52q19 19 47 19q30 0 71 -32q79 -61 154.5 -85.5t180.5 -24.5q158 0 247.5 69t89.5 194q0 118 -69 179
q-34 30 -71 43.5t-115 25.5zM431 1842l155 -155l155 155q27 27 49 33q31 6 53 -17q23 -23 17 -54q-4 -21 -32 -49l-187 -186q-27 -27 -55 -27t-55 27l-187 186q-28 28 -32 49q-6 31 17 54q22 23 53 17q22 -6 49 -33z" />
    <glyph glyph-name="scaron" unicode="&#x161;" horiz-adv-x="992" 
d="M145 82q-48 33 -48 68q0 29 23 50q16 15 42 15q28 0 66 -28q103 -74 259 -74q127 0 194.5 43.5t67.5 129.5q0 66 -40 100.5t-124 42.5l-162 15q-294 26 -294 264q0 132 100.5 210.5t261.5 78.5q153 0 275 -62q35 -18 49 -36q11 -16 11 -37q0 -19 -16 -39q-20 -21 -46 -21
q-20 0 -55 19q-101 53 -220 53q-105 0 -162.5 -42t-57.5 -120q0 -66 42 -100t131 -42l158 -15q140 -13 215 -74t75 -193q0 -140 -110 -220t-291 -80q-209 0 -344 94zM350 1468l155 -155l155 155q27 27 49 33q31 6 53 -17q23 -23 17 -54q-4 -21 -32 -49l-187 -186
q-27 -27 -55 -27t-55 27l-187 186q-28 28 -32 49q-6 31 17 54q22 23 53 17q22 -6 49 -33z" />
    <glyph glyph-name="Ydieresis" unicode="&#x178;" horiz-adv-x="1008" 
d="M942 1304l-361 -722v-486q0 -50 -14 -72q-20 -32 -63 -32t-63 32q-14 22 -14 72v486l-361 722q-21 43 -19 66q3 36 39 54q16 8 34 8q19 0 34 -10q20 -13 40 -54l310 -620l310 620q20 41 40 54q15 10 34 10q18 0 34 -8q36 -18 39 -54q2 -23 -19 -66zM200 1664
q0 38 26.5 64.5t63.5 26.5q38 0 64.5 -26.5t26.5 -64.5q0 -37 -26.5 -63.5t-64.5 -26.5t-64 26t-26 64zM627 1664q0 38 26.5 64.5t63.5 26.5t64 -26.5t27 -64.5q0 -37 -26.5 -63.5t-64.5 -26.5q-37 0 -63.5 26t-26.5 64z" />
    <glyph glyph-name="Zcaron" unicode="&#x17d;" horiz-adv-x="1099" 
d="M904 0h-713q-54 0 -75 21q-21 23 -21 53q0 28 26 71l691 1143h-592q-46 0 -66 12q-29 19 -29 56t29 56q20 12 66 12h683q54 0 75 -21q21 -22 21 -53q0 -26 -27 -71l-689 -1143h621q46 0 66 -12q29 -19 29 -56t-29 -56q-20 -12 -66 -12zM399 1842l155 -155l155 155
q27 27 49 33q31 6 53 -17q23 -23 17 -54q-4 -21 -32 -49l-187 -186q-27 -27 -55 -27t-55 27l-187 186q-28 28 -32 49q-6 31 17 54q22 23 53 17q22 -6 49 -33z" />
    <glyph glyph-name="zcaron" unicode="&#x17e;" horiz-adv-x="909" 
d="M204 984h519q45 0 67 -14q27 -18 27 -51q0 -31 -29 -71l-514 -718h457q44 0 61 -11q28 -19 28 -54t-28 -54q-17 -11 -61 -11h-548q-47 0 -66 14q-28 19 -28 52q0 30 30 71l513 717h-428q-44 0 -61 11q-28 19 -28 54t28 54q17 11 61 11zM320 1468l155 -155l155 155
q27 27 49 33q31 6 53 -17q23 -23 17 -54q-4 -21 -32 -49l-187 -186q-27 -27 -55 -27t-55 27l-187 186q-28 28 -32 49q-6 31 17 54q22 23 53 17q22 -6 49 -33z" />
    <glyph glyph-name="longs" unicode="&#x17f;" horiz-adv-x="518" 
d="M327 1159v-1069q0 -46 -13 -67q-19 -31 -60 -31t-60 31q-13 21 -13 67v1074q0 115 65 189.5t185 74.5h26q45 0 65 -12q27 -17 27 -51t-27 -51q-20 -12 -65 -12q-130 0 -130 -143z" />
    <glyph glyph-name="florin" unicode="&#x192;" horiz-adv-x="824" 
d="M584 658h-172l-206 -1024q-9 -47 -29 -65q-17 -16 -43 -16q-31 0 -52 21q-15 15 -17.5 34.5t4.5 52.5l201 997h-135q-38 0 -53 10q-24 14 -24 46t24 46q15 10 53 10h157l80 394q26 129 100 196.5t189 67.5h24q45 0 65 -12q27 -17 27 -51t-27 -51q-16 -12 -49 -12h-27
q-64 0 -105.5 -40t-57.5 -116l-76 -376h149q38 0 53 -10q24 -14 24 -46t-24 -46q-15 -10 -53 -10z" />
    <glyph glyph-name="uni0237" unicode="&#x237;" horiz-adv-x="518" 
d="M186 -172v1066q0 46 13 67q19 31 60 31t60 -31q13 -21 13 -67v-1071q0 -115 -65 -189.5t-185 -74.5h-26q-46 0 -65 12q-27 17 -27 51t27 51q20 12 65 12q130 0 130 143z" />
    <glyph glyph-name="uni02BB" unicode="&#x2bb;" horiz-adv-x="526" 
d="M350 1316l-72 -216q-14 -43 -33 -59q-16 -15 -42 -15q-24 0 -45.5 15t-26.5 37q-5 25 9 68l72 216q14 43 33 59q17 15 42 15q24 0 45.5 -15t26.5 -37q5 -25 -9 -68z" />
    <glyph glyph-name="uni02BC" unicode="&#x2bc;" horiz-adv-x="526" 
d="M350 1316l-72 -216q-14 -43 -33 -59q-16 -15 -42 -15q-24 0 -45.5 15t-26.5 37q-5 25 9 68l72 216q14 43 33 59q17 15 42 15q24 0 45.5 -15t26.5 -37q5 -25 -9 -68z" />
    <glyph glyph-name="circumflex" unicode="&#x2c6;" horiz-adv-x="1064" 
d="M532 1360l-155 -155q-27 -27 -49 -33q-30 -6 -53 17q-24 24 -17 54q6 23 32 49l187 186q27 27 55 27t55 -27l187 -186q26 -26 32 -49q7 -30 -17 -54q-23 -23 -53 -17q-22 6 -49 33z" />
    <glyph glyph-name="caron" unicode="&#x2c7;" horiz-adv-x="1064" 
d="M377 1468l155 -155l155 155q27 27 49 33q31 6 53 -17q23 -23 17 -54q-4 -21 -32 -49l-187 -186q-27 -27 -55 -27t-55 27l-187 186q-28 28 -32 49q-6 31 17 54q22 23 53 17q22 -6 49 -33z" />
    <glyph glyph-name="breve" unicode="&#x2d8;" horiz-adv-x="1064" 
d="M532 1180q-135 0 -244 106q-31 29 -33 55q-3 25 16 45q19 21 45 19q21 -2 47 -26q85 -80 169 -80t169 80q26 24 47 26q26 2 45 -19q19 -20 16 -45q-2 -26 -33 -55q-109 -106 -244 -106z" />
    <glyph glyph-name="dotaccent" unicode="&#x2d9;" horiz-adv-x="1064" 
d="M442 1304q0 38 26 64t64 26t64 -26t26 -64t-26 -64t-64 -26t-64 26t-26 64z" />
    <glyph glyph-name="ring" unicode="&#x2da;" horiz-adv-x="1064" 
d="M295 1374q0 98 69.5 167.5t167.5 69.5t167.5 -69.5t69.5 -167.5t-69.5 -167.5t-167.5 -69.5t-167.5 69.5t-69.5 167.5zM394 1374q0 -57 40.5 -97.5t97.5 -40.5t97.5 40.5t40.5 97.5t-40.5 97.5t-97.5 40.5t-97.5 -40.5t-40.5 -97.5z" />
    <glyph glyph-name="ogonek" unicode="&#x2db;" horiz-adv-x="1064" 
d="M349 -338l102 163q18 30 33 41q16 12 36 12t36 -11q35 -21 33 -57q-1 -22 -24 -57l-102 -163q-18 -30 -33 -41q-16 -12 -36 -12t-36 11q-35 21 -33 57q1 22 24 57z" />
    <glyph glyph-name="tilde" unicode="&#x2dc;" horiz-adv-x="1064" 
d="M517 1258q-70 41 -111 41q-24 0 -42.5 -6.5t-45.5 -29.5q-31 -26 -51 -26q-22 0 -37 15t-15 39q0 30 36 61q72 62 153 62q41 0 70.5 -10.5t72.5 -35.5q70 -41 111 -41q24 0 42.5 6.5t45.5 29.5q31 26 51 26q22 0 37 -15t15 -39q0 -30 -36 -61q-72 -62 -153 -62
q-41 0 -70.5 10.5t-72.5 35.5z" />
    <glyph glyph-name="hungarumlaut" unicode="&#x2dd;" horiz-adv-x="1064" 
d="M341 1303l102 163q18 30 33 41q17 12 36 12q20 0 36 -11q35 -21 33 -57q-1 -22 -24 -57l-102 -163q-18 -30 -33 -41q-17 -12 -36 -12q-20 0 -36 11q-35 21 -33 57q1 22 24 57zM671 1303l102 163q18 30 33 41q16 12 36 12t36 -11q35 -21 33 -57q-1 -22 -24 -57l-102 -163
q-18 -30 -33 -41q-16 -12 -36 -12t-36 11q-35 21 -33 57q1 22 24 57z" />
    <glyph glyph-name="gravecomb" unicode="&#x300;" horiz-adv-x="1" 
d="M-133 1446q0 37 34 58q18 11 38 11q22 0 38.5 -13t34.5 -43l97 -155q25 -40 25 -62q0 -37 -34 -58q-18 -11 -38 -11q-22 0 -38.5 13t-34.5 43l-97 155q-25 40 -25 62z" />
    <glyph glyph-name="acutecomb" unicode="&#x301;" horiz-adv-x="1" 
d="M-107 1303l102 163q18 30 33 41q17 12 36 12q20 0 36 -11q35 -21 33 -57q-1 -22 -24 -57l-102 -163q-18 -30 -33 -41q-16 -12 -36 -12t-36 11q-35 21 -33 57q1 22 24 57z" />
    <glyph glyph-name="uni0302" unicode="&#x302;" horiz-adv-x="1" 
d="M1 1360l-155 -155q-27 -27 -49 -33q-30 -6 -53 17q-24 24 -17 54q6 23 32 49l187 186q27 27 55 27t55 -27l187 -186q26 -26 32 -49q7 -30 -17 -54q-23 -23 -53 -17q-22 6 -49 33z" />
    <glyph glyph-name="tildecomb" unicode="&#x303;" horiz-adv-x="1" 
d="M-14 1258q-70 41 -111 41q-24 0 -42.5 -6.5t-45.5 -29.5q-31 -26 -51 -26q-22 0 -37 15t-15 39q0 30 36 61q72 62 153 62q41 0 70.5 -10.5t72.5 -35.5q70 -41 111 -41q24 0 42.5 6.5t45.5 29.5q31 26 51 26q22 0 37 -15t15 -39q0 -30 -36 -61q-72 -62 -153 -62
q-41 0 -70.5 10.5t-72.5 35.5z" />
    <glyph glyph-name="uni0304" unicode="&#x304;" horiz-adv-x="1" 
d="M218 1228h-434q-39 0 -58 11q-26 17 -26 50t26 50q19 11 58 11h434q39 0 58 -11q26 -17 26 -50t-26 -50q-19 -11 -58 -11z" />
    <glyph glyph-name="uni0306" unicode="&#x306;" horiz-adv-x="1" 
d="M1 1180q-135 0 -244 106q-31 29 -33 55q-3 25 16 45q19 21 45 19q21 -2 47 -26q85 -80 169 -80t169 80q26 24 47 26q26 2 45 -19q19 -20 16 -45q-2 -26 -33 -55q-109 -106 -244 -106z" />
    <glyph glyph-name="uni0307" unicode="&#x307;" horiz-adv-x="1" 
d="M-89 1304q0 38 26.5 64t63.5 26t63.5 -26t26.5 -64t-26.5 -64t-63.5 -26t-63.5 26t-26.5 64z" />
    <glyph glyph-name="uni0308" unicode="&#x308;" horiz-adv-x="1" 
d="M-303 1289q0 38 26.5 64.5t63.5 26.5t64 -27t27 -64t-26.5 -63.5t-64.5 -26.5q-37 0 -63.5 26.5t-26.5 63.5zM124 1289q0 38 26.5 64.5t63.5 26.5q38 0 64.5 -27t26.5 -64t-26.5 -63.5t-64.5 -26.5t-64 26.5t-26 63.5z" />
    <glyph glyph-name="uni030A" unicode="&#x30a;" horiz-adv-x="1" 
d="M-236 1374q0 98 69.5 167.5t167.5 69.5t167.5 -69.5t69.5 -167.5t-69.5 -167.5t-167.5 -69.5t-167.5 69.5t-69.5 167.5zM-137 1374q0 -57 40.5 -97.5t97.5 -40.5t97.5 40.5t40.5 97.5t-40.5 97.5t-97.5 40.5t-97.5 -40.5t-40.5 -97.5z" />
    <glyph glyph-name="uni030B" unicode="&#x30b;" horiz-adv-x="1" 
d="M-272 1303l102 163q18 30 33 41q17 12 36 12t36 -11q35 -21 33 -57q-1 -22 -24 -57l-102 -163q-18 -30 -33 -41q-16 -12 -36 -12t-36 11q-35 21 -33 57q1 22 24 57zM58 1303l102 163q18 30 33 41q17 12 36 12t36 -11q35 -21 33 -57q-1 -22 -24 -57l-102 -163
q-18 -30 -33 -41q-16 -12 -36 -12q-19 0 -36 11q-35 21 -33 57q1 22 24 57z" />
    <glyph glyph-name="uni030C" unicode="&#x30c;" horiz-adv-x="1" 
d="M-154 1468l155 -155l155 155q27 27 49 33q31 6 53 -17q23 -23 17 -54q-4 -21 -32 -49l-187 -186q-27 -27 -55 -27t-55 27l-187 186q-28 28 -32 49q-6 31 17 54q22 23 53 17q22 -6 49 -33z" />
    <glyph glyph-name="uni0326" unicode="&#x326;" horiz-adv-x="1" 
d="M-107 -338l102 163q18 30 33 41q16 12 36 12t36 -11q35 -21 33 -57q-1 -22 -24 -57l-102 -163q-18 -30 -33 -41q-16 -12 -36 -12t-36 11q-35 21 -33 57q1 22 24 57z" />
    <glyph glyph-name="uni0327" unicode="&#x327;" horiz-adv-x="1" 
d="M-107 -338l102 163q18 30 33 41q16 12 36 12t36 -11q35 -21 33 -57q-1 -22 -24 -57l-102 -163q-18 -30 -33 -41q-16 -12 -36 -12t-36 11q-35 21 -33 57q1 22 24 57z" />
    <glyph glyph-name="uni0328" unicode="&#x328;" horiz-adv-x="1" 
d="M-107 -338l102 163q18 30 33 41q16 12 36 12t36 -11q35 -21 33 -57q-1 -22 -24 -57l-102 -163q-18 -30 -33 -41q-16 -12 -36 -12t-36 11q-35 21 -33 57q1 22 24 57z" />
    <glyph glyph-name="uni0394" unicode="&#x394;" horiz-adv-x="1214" 
d="M607 1187l-385 -1051h770zM1059 -1l-904 1q-64 0 -87 21q-20 19 -20 50q0 21 19 72l453 1209q13 35 30 55q23 25 57 25t57 -25q17 -20 30 -55l453 -1210q19 -51 19 -72q0 -31 -20 -50q-23 -21 -87 -21z" />
    <glyph glyph-name="uni03A9" unicode="&#x3a9;" horiz-adv-x="1368" 
d="M684 1301q-146 0 -245 -102q-64 -66 -82 -161t-19 -326q0 -180 9.5 -277.5t40.5 -150.5q53 -93 149 -149q47 -29 47 -69q0 -33 -22 -52q-18 -14 -63 -14h-248q-46 0 -66 12q-29 19 -29 56t29 56q20 12 66 12h107q-81 67 -115 133q-36 70 -47 169.5t-11 273.5
q0 112 2 175.5t9.5 130.5t23.5 110t42 85t67 83q142 140 355 140t355 -140q41 -41 67 -83t42 -85t23.5 -110t9.5 -130.5t2 -175.5q0 -174 -11 -273.5t-47 -169.5q-34 -66 -115 -133h107q46 0 66 -12q29 -19 29 -56t-29 -56q-20 -12 -66 -12h-248q-45 0 -63 14q-22 19 -22 52
q0 40 47 69q96 56 149 149q31 53 40.5 150.5t9.5 277.5q-1 231 -19 326t-82 161q-99 102 -245 102z" />
    <glyph glyph-name="uni03BC" unicode="&#x3bc;" horiz-adv-x="1139" 
d="M327 346q8 -113 71.5 -171.5t169.5 -58.5q113 0 178.5 67.5t65.5 194.5v516q0 46 13 67q19 31 60 31t60 -31q13 -21 13 -67v-804q0 -46 -13 -67q-19 -31 -60 -31t-60 31q-13 21 -13 67v18q-105 -120 -276 -120q-127 0 -209 72v-409q0 -46 -13 -67q-19 -31 -60 -31t-60 31
q-13 21 -13 67v1243q0 46 13 67q19 31 60 31t60 -31q13 -21 13 -67v-548z" />
    <glyph glyph-name="pi" unicode="&#x3c0;" horiz-adv-x="1126" 
d="M327 854v-764q0 -46 -13 -67q-19 -31 -60 -31t-60 31q-13 21 -13 67v806q0 48 20 68t68 20h588q48 0 68 -20t20 -68v-806q0 -46 -13 -67q-19 -31 -60 -31t-60 31q-13 21 -13 67v764h-472z" />
    <glyph glyph-name="uni2007" unicode="&#x2007;" 
 />
    <glyph glyph-name="uni2008" unicode="&#x2008;" horiz-adv-x="540" 
 />
    <glyph glyph-name="uni200B" unicode="&#x200b;" horiz-adv-x="0" 
 />
    <glyph glyph-name="endash" unicode="&#x2013;" 
d="M947 539q0 -35 -28 -54q-17 -11 -61 -11h-672q-44 0 -61 11q-28 19 -28 54t28 54q17 11 61 11h672q44 0 61 -11q28 -19 28 -54z" />
    <glyph glyph-name="emdash" unicode="&#x2014;" horiz-adv-x="1826" 
d="M1729 538q0 -35 -28 -54q-17 -11 -61 -11h-1454q-44 0 -61 11q-28 19 -28 54t28 54q17 11 61 11h1454q44 0 61 -11q28 -19 28 -54z" />
    <glyph glyph-name="quoteleft" unicode="&#x2018;" horiz-adv-x="488" 
d="M349 1316l-72 -216q-14 -43 -33 -59q-17 -15 -42 -15q-24 0 -45.5 15t-26.5 37q-5 25 9 68l72 216q14 43 33 59q17 15 42 15q24 0 45.5 -15t26.5 -37q5 -25 -9 -68z" />
    <glyph glyph-name="quoteright" unicode="&#x2019;" horiz-adv-x="488" 
d="M349 1316l-72 -216q-14 -43 -33 -59q-17 -15 -42 -15q-24 0 -45.5 15t-26.5 37q-5 25 9 68l72 216q14 43 33 59q17 15 42 15q24 0 45.5 -15t26.5 -37q5 -25 -9 -68z" />
    <glyph glyph-name="quotesinglbase" unicode="&#x201a;" horiz-adv-x="488" 
d="M349 53l-72 -216q-14 -43 -33 -59q-17 -15 -42 -15q-24 0 -45.5 15t-26.5 37q-5 25 9 68l72 216q14 43 33 59q16 15 42 15q24 0 45.5 -15t26.5 -37q5 -25 -9 -68z" />
    <glyph glyph-name="quotedblleft" unicode="&#x201c;" horiz-adv-x="831" 
d="M349 1316l-72 -216q-14 -43 -33 -59q-17 -15 -42 -15q-24 0 -45.5 15t-26.5 37q-5 25 9 68l72 216q14 43 33 59q17 15 42 15q24 0 45.5 -15t26.5 -37q5 -25 -9 -68zM692 1316l-72 -216q-14 -43 -33 -59q-17 -15 -42 -15q-24 0 -45.5 15t-26.5 37q-5 25 9 68l72 216
q14 43 33 59q17 15 42 15q24 0 45.5 -15t26.5 -37q5 -25 -9 -68z" />
    <glyph glyph-name="quotedblright" unicode="&#x201d;" horiz-adv-x="831" 
d="M349 1316l-72 -216q-14 -43 -33 -59q-17 -15 -42 -15q-24 0 -45.5 15t-26.5 37q-5 25 9 68l72 216q14 43 33 59q17 15 42 15q24 0 45.5 -15t26.5 -37q5 -25 -9 -68zM692 1316l-72 -216q-14 -43 -33 -59q-17 -15 -42 -15q-24 0 -45.5 15t-26.5 37q-5 25 9 68l72 216
q14 43 33 59q17 15 42 15q24 0 45.5 -15t26.5 -37q5 -25 -9 -68z" />
    <glyph glyph-name="quotedblbase" unicode="&#x201e;" horiz-adv-x="831" 
d="M349 89l-72 -216q-14 -43 -33 -59q-17 -15 -42 -15q-24 0 -45.5 15t-26.5 37q-5 25 9 68l72 216q14 43 33 59q16 15 42 15q24 0 45.5 -15t26.5 -37q5 -25 -9 -68zM692 89l-72 -216q-14 -43 -33 -59q-17 -15 -42 -15q-24 0 -45.5 15t-26.5 37q-5 25 9 68l72 216
q14 43 33 59q17 15 42 15q24 0 45.5 -15t26.5 -37q5 -25 -9 -68z" />
    <glyph glyph-name="dagger" unicode="&#x2020;" horiz-adv-x="1210" 
d="M139 957q0 35 28 54q17 11 61 11h304v312q0 46 13 67q19 31 60 31t60 -31q13 -21 13 -67v-312h304q44 0 61 -11q28 -19 28 -54t-28 -54q-17 -11 -61 -11h-304v-802q0 -46 -13 -67q-19 -31 -60 -31t-60 31q-13 21 -13 67v802h-304q-44 0 -61 11q-28 19 -28 54z" />
    <glyph glyph-name="daggerdbl" unicode="&#x2021;" horiz-adv-x="1210" 
d="M139 28q0 35 28 54q17 11 61 11h304v799h-304q-44 0 -61 11q-28 19 -28 54t28 54q17 11 61 11h304v312q0 46 13 67q19 31 60 31t60 -31q13 -21 13 -67v-312h304q44 0 61 -11q28 -19 28 -54t-28 -54q-17 -11 -61 -11h-304v-799h304q44 0 61 -11q28 -19 28 -54t-28 -54
q-17 -11 -61 -11h-304v-312q0 -46 -13 -67q-19 -31 -60 -31t-60 31q-13 21 -13 67v312h-304q-44 0 -61 11q-28 19 -28 54z" />
    <glyph glyph-name="bullet" unicode="&#x2022;" horiz-adv-x="1046" 
d="M197 539q0 135 95.5 230.5t230.5 95.5t230.5 -95.5t95.5 -230.5t-95.5 -230.5t-230.5 -95.5t-230.5 95.5t-95.5 230.5z" />
    <glyph glyph-name="ellipsis" unicode="&#x2026;" horiz-adv-x="1508" 
d="M1352 108q0 -46 -34 -80t-80 -34t-80 34t-34 80t34 80t80 34t80 -34t34 -80zM384 108q0 -46 -34 -80t-80 -34t-80 34t-34 80t34 80t80 34t80 -34t34 -80zM868 108q0 -46 -34 -80t-80 -34t-80 34t-34 80t34 80t80 34t80 -34t34 -80z" />
    <glyph glyph-name="perthousand" unicode="&#x2030;" horiz-adv-x="2359" 
d="M670 958q0 -123 -75.5 -196.5t-194.5 -73.5t-195 73.5t-76 196.5v208q0 123 76 196.5t195 73.5t194.5 -73.5t75.5 -196.5v-208zM244 1161v-198q0 -174 156 -174q155 0 155 174v198q0 174 -155 174q-156 0 -156 -174zM1538 258q0 -123 -75.5 -196.5t-194.5 -73.5
t-195 73.5t-76 196.5v208q0 123 76 196.5t195 73.5t194.5 -73.5t75.5 -196.5v-208zM1112 461v-198q0 -174 156 -174q155 0 155 174v198q0 174 -155 174q-156 0 -156 -174zM1206 1335l-646 -1294q-15 -31 -32 -42q-11 -7 -25 -7q-12 0 -24 6q-27 14 -29 41q-1 19 14 50
l646 1294q16 31 32 42q11 7 25 7q12 0 24 -6q27 -14 29 -41q1 -19 -14 -50zM2230 258q0 -123 -75.5 -196.5t-194.5 -73.5t-195 73.5t-76 196.5v208q0 123 76 196.5t195 73.5t194.5 -73.5t75.5 -196.5v-208zM1804 461v-198q0 -174 156 -174q155 0 155 174v198q0 174 -155 174
q-156 0 -156 -174z" />
    <glyph glyph-name="guilsinglleft" unicode="&#x2039;" horiz-adv-x="696" 
d="M513 751l-242 -242l242 -242q31 -31 37 -54q8 -33 -19 -60t-60 -19q-23 6 -54 37l-338 338l338 338q31 31 54 37q33 8 60 -19t19 -60q-6 -23 -37 -54z" />
    <glyph glyph-name="guilsinglright" unicode="&#x203a;" horiz-adv-x="696" 
d="M425 509l-242 242q-31 31 -37 54q-8 33 19 60t60 19q23 -6 54 -37l338 -338l-338 -338q-31 -31 -54 -37q-33 -8 -60 19t-19 60q6 23 37 54z" />
    <glyph glyph-name="fraction" unicode="&#x2044;" horiz-adv-x="354" 
d="M548 1335l-646 -1294q-16 -31 -32 -42q-11 -7 -25 -7q-12 0 -24 6q-27 14 -29 41q-1 19 14 50l646 1294q16 31 32 42q11 7 25 7q12 0 24 -6q27 -14 29 -41q1 -19 -14 -50z" />
    <glyph glyph-name="uni2070" unicode="&#x2070;" horiz-adv-x="636" 
d="M73 806v383q0 110 69.5 176.5t175.5 66.5q105 0 175 -66.5t70 -176.5v-383q0 -111 -70 -177.5t-175 -66.5q-106 0 -175.5 66.5t-69.5 177.5zM189 808q0 -65 34.5 -103.5t94.5 -38.5q59 0 94 39.5t35 102.5v378q0 63 -35 102.5t-94 39.5q-60 0 -94.5 -39t-34.5 -103v-378z
" />
    <glyph glyph-name="uni2074" unicode="&#x2074;" horiz-adv-x="636" 
d="M47 795l294 587q25 50 59 50q20 0 37 -14.5t17 -35.5q0 -19 -15 -49l-265 -529h218v156q0 28 9 40q15 22 42 22t42 -22q9 -12 9 -40v-156h37q35 0 50 -10q21 -14 21 -42t-21 -42q-15 -10 -50 -10h-37v-76q0 -28 -9 -40q-15 -22 -42 -22t-42 22q-9 12 -9 40v76h-289
q-31 0 -46 8q-24 15 -24 43q0 16 14 44z" />
    <glyph glyph-name="uni2075" unicode="&#x2075;" horiz-adv-x="636" 
d="M488 1320h-287v-218q54 36 143 36q100 0 154 -54q74 -74 74 -229q0 -77 -14.5 -130.5t-56.5 -95.5q-67 -67 -180 -67q-129 0 -194 81q-40 48 -40 110q0 21 9 36q13 22 44 22q32 0 45 -20q5 -10 13 -37q24 -88 123 -88q60 0 94 34q26 26 33.5 63t7.5 92q0 185 -130 185
q-86 0 -121 -48q-14 -19 -23 -25q-13 -8 -32 -8q-24 0 -39 14q-14 13 -14 47v334q0 38 16 54q17 16 55 16h320q35 0 50 -10q21 -14 21 -42t-21 -42q-15 -10 -50 -10z" />
    <glyph glyph-name="uni2076" unicode="&#x2076;" horiz-adv-x="636" 
d="M69 817q0 85 58 201l180 364q25 50 59 50q20 0 37 -14.5t17 -35.5q0 -19 -15 -49l-140 -279q32 14 79 14q95 0 159 -69t64 -178q0 -116 -68.5 -187.5t-179.5 -71.5q-112 0 -181 69t-69 186zM185 819q0 -71 36 -112t96 -41t97 41t37 112t-37 112t-97 41t-96 -41t-36 -112z
" />
    <glyph glyph-name="uni2077" unicode="&#x2077;" horiz-adv-x="636" 
d="M80 1251v103q0 38 16 54q17 16 55 16h350q52 0 70 -14q17 -14 17 -40q0 -22 -15 -61l-259 -693q-13 -34 -27 -44q-13 -10 -29 -10q-19 0 -35.5 11t-20.5 29t9 52l249 666h-264v-69q0 -38 -10 -54q-17 -26 -48 -26t-48 26q-10 16 -10 54z" />
    <glyph glyph-name="uni2078" unicode="&#x2078;" horiz-adv-x="636" 
d="M318 1060q58 0 95 38t37 97t-36 96t-96 37t-96 -37t-36 -96t37 -97t95 -38zM318 666q63 0 104.5 41.5t41.5 104.5t-41.5 105t-104.5 42t-104.5 -42t-41.5 -105t41.5 -104.5t104.5 -41.5zM318 562q-112 0 -187 68t-75 181q0 129 121 202q-107 64 -107 183q0 103 71 169.5
t177 66.5t177 -66.5t71 -169.5q0 -119 -107 -183q121 -73 121 -202q0 -113 -75 -181t-187 -68z" />
    <glyph glyph-name="uni2079" unicode="&#x2079;" horiz-adv-x="636" 
d="M567 1177q0 -85 -58 -201l-180 -364q-25 -50 -59 -50q-20 0 -37 14.5t-17 35.5q0 19 15 49l140 279q-32 -14 -79 -14q-95 0 -159 69t-64 178q0 116 68.5 187.5t179.5 71.5q112 0 181 -69t69 -186zM451 1175q0 71 -36 112t-96 41t-97 -41t-37 -112t37 -112t97 -41t96 41
t36 112z" />
    <glyph glyph-name="uni2080" unicode="&#x2080;" horiz-adv-x="636" 
d="M73 -64v383q0 110 69.5 176.5t175.5 66.5q105 0 175 -66.5t70 -176.5v-383q0 -111 -70 -177.5t-175 -66.5q-106 0 -175.5 66.5t-69.5 177.5zM189 -62q0 -65 34.5 -103.5t94.5 -38.5q59 0 94 39.5t35 102.5v378q0 63 -35 102.5t-94 39.5q-60 0 -94.5 -39t-34.5 -103v-378z
" />
    <glyph glyph-name="uni2081" unicode="&#x2081;" horiz-adv-x="636" 
d="M130 300q-21 21 -15 47q4 19 29 44l135 135q36 36 73 36q31 0 48 -18q16 -18 16 -58v-714q0 -38 -10 -54q-17 -26 -48 -26t-48 26q-10 16 -10 54v621l-79 -79q-25 -25 -44 -29q-26 -6 -47 15z" />
    <glyph glyph-name="uni2082" unicode="&#x2082;" horiz-adv-x="636" 
d="M511 -300h-357q-48 0 -65 17q-14 16 -14 37q0 22 30 61l303 392q46 59 46 118q0 61 -34.5 97t-96.5 36q-45 0 -81 -25.5t-46 -72.5q-5 -26 -20 -46q-12 -16 -39 -16q-29 0 -44 21q-9 13 -9 36q0 45 37 105q65 102 202 102q112 0 179 -64t67 -173q0 -49 -16 -87.5
t-57 -90.5l-267 -343h282q35 0 50 -10q21 -14 21 -42t-21 -42q-15 -10 -50 -10z" />
    <glyph glyph-name="uni2083" unicode="&#x2083;" horiz-adv-x="636" 
d="M564 324q0 -131 -108 -182q122 -51 122 -201q0 -118 -73.5 -183.5t-185.5 -65.5t-181.5 58.5t-69.5 140.5q0 30 14.5 47.5t41.5 17.5q35 0 46 -38q15 -58 53 -90t96 -32q62 0 102.5 39.5t40.5 106.5q0 66 -37.5 105t-109.5 39q-25 0 -39.5 14.5t-14.5 35.5q0 22 14 36.5
t40 14.5q64 0 98.5 36t34.5 98q0 63 -38 100t-92 37q-93 0 -121 -74q-2 -5 -8.5 -25.5t-11 -29.5t-16 -18.5t-27.5 -9.5q-26 0 -40.5 18t-14.5 46q0 45 30 94q65 103 209 103q110 0 178 -65t68 -173z" />
    <glyph glyph-name="uni2084" unicode="&#x2084;" horiz-adv-x="636" 
d="M47 -75l294 587q25 50 59 50q20 0 37 -14.5t17 -35.5q0 -19 -15 -49l-265 -529h218v156q0 28 9 40q15 22 42 22t42 -22q9 -12 9 -40v-156h37q35 0 50 -10q21 -14 21 -42t-21 -42q-15 -10 -50 -10h-37v-76q0 -28 -9 -40q-15 -22 -42 -22t-42 22q-9 12 -9 40v76h-289
q-31 0 -46 8q-24 15 -24 43q0 16 14 44z" />
    <glyph glyph-name="uni2085" unicode="&#x2085;" horiz-adv-x="636" 
d="M488 450h-287v-218q54 36 143 36q100 0 154 -54q74 -74 74 -229q0 -77 -14.5 -130.5t-56.5 -95.5q-67 -67 -180 -67q-129 0 -194 81q-40 48 -40 110q0 21 9 36q13 22 44 22q32 0 45 -20q5 -10 13 -37q24 -88 123 -88q60 0 94 34q26 26 33.5 63t7.5 92q0 185 -130 185
q-86 0 -121 -48q-14 -19 -23 -25q-13 -8 -32 -8q-24 0 -39 14q-14 13 -14 47v334q0 38 16 54q17 16 55 16h320q35 0 50 -10q21 -14 21 -42t-21 -42q-15 -10 -50 -10z" />
    <glyph glyph-name="uni2086" unicode="&#x2086;" horiz-adv-x="636" 
d="M69 -53q0 85 58 201l180 364q25 50 59 50q20 0 37 -14.5t17 -35.5q0 -19 -15 -49l-140 -279q32 14 79 14q95 0 159 -69t64 -178q0 -116 -68.5 -187.5t-179.5 -71.5q-112 0 -181 69t-69 186zM185 -51q0 -71 36 -112t96 -41t97 41t37 112t-37 112t-97 41t-96 -41t-36 -112z
" />
    <glyph glyph-name="uni2087" unicode="&#x2087;" horiz-adv-x="636" 
d="M80 381v103q0 38 16 54q17 16 55 16h350q52 0 70 -14q17 -14 17 -40q0 -22 -15 -61l-259 -693q-13 -34 -27 -44q-13 -10 -29 -10q-19 0 -35.5 11t-20.5 29t9 52l249 666h-264v-69q0 -38 -10 -54q-17 -26 -48 -26t-48 26q-10 16 -10 54z" />
    <glyph glyph-name="uni2088" unicode="&#x2088;" horiz-adv-x="636" 
d="M318 190q58 0 95 38t37 97t-36 96t-96 37t-96 -37t-36 -96t37 -97t95 -38zM318 -204q63 0 104.5 41.5t41.5 104.5t-41.5 105t-104.5 42t-104.5 -42t-41.5 -105t41.5 -104.5t104.5 -41.5zM318 -308q-112 0 -187 68t-75 181q0 129 121 202q-107 64 -107 183q0 103 71 169.5
t177 66.5t177 -66.5t71 -169.5q0 -119 -107 -183q121 -73 121 -202q0 -113 -75 -181t-187 -68z" />
    <glyph glyph-name="uni2089" unicode="&#x2089;" horiz-adv-x="636" 
d="M567 307q0 -85 -58 -201l-180 -364q-25 -50 -59 -50q-20 0 -37 14.5t-17 35.5q0 19 15 49l140 279q-32 -14 -79 -14q-95 0 -159 69t-64 178q0 116 68.5 187.5t179.5 71.5q112 0 181 -69t69 -186zM451 305q0 71 -36 112t-96 41t-97 -41t-37 -112t37 -112t97 -41t96 41
t36 112z" />
    <glyph glyph-name="Euro" unicode="&#x20ac;" horiz-adv-x="1390" 
d="M797 515h-374q6 -112 27 -175.5t70 -113.5q99 -102 244 -102q117 0 199 62t121 176q15 46 36 64q18 16 47 16q31 0 51 -20t20 -56q0 -38 -24.5 -97t-66.5 -110q-140 -171 -382 -171q-216 0 -354 140q-76 76 -106 159.5t-36 227.5h-64q-38 0 -53 10q-24 14 -24 46t24 46
q15 10 53 10h61v182h-61q-38 0 -53 10q-24 14 -24 46t24 46q15 10 53 10h64q7 137 37 218.5t105 156.5q138 140 354 140q242 0 382 -171q42 -51 66.5 -110t24.5 -97q0 -36 -20 -56t-51 -20q-29 0 -47 16q-21 18 -36 64q-39 114 -121 176t-199 62q-145 0 -244 -102
q-48 -49 -69 -110t-27 -167h373q38 0 53 -10q24 -14 24 -46t-24 -46q-15 -10 -53 -10h-377v-182h377q38 0 53 -10q24 -14 24 -46t-24 -46q-15 -10 -53 -10z" />
    <glyph glyph-name="uni20B4" unicode="&#x20b4;" horiz-adv-x="1316" 
d="M958 922q27 50 27 120q0 119 -80.5 190.5t-221.5 71.5q-87 0 -147 -18t-132 -67q-44 -28 -70 -28q-29 0 -48 22q-17 18 -17 45q0 42 59 78q93 57 167 78.5t182 21.5q210 0 333 -109.5t123 -291.5q0 -62 -15 -113h39q38 0 53 -10q24 -14 24 -46t-24 -46q-15 -10 -53 -10
h-101q-13 -16 -32 -33q-80 -66 -214 -90l-142 -25q-92 -16 -130 -34h619q38 0 53 -10q24 -14 24 -46t-24 -46q-15 -10 -53 -10h-786q-29 -52 -29 -129q0 -125 89.5 -194t247.5 -69q105 0 180.5 24.5t154.5 85.5q41 32 71 32q28 0 47 -19q21 -21 21 -52q0 -45 -64 -87
q-98 -66 -186.5 -93t-218.5 -27q-224 0 -358.5 109t-134.5 295q0 65 17 124h-49q-38 0 -53 10q-24 14 -24 46t24 46q15 10 53 10h111q15 17 40 38q38 32 85 50t130 32l133 23q81 13 127 39h-626q-38 0 -53 10q-24 14 -24 46t24 46q15 10 53 10h799z" />
    <glyph glyph-name="uni20B8" unicode="&#x20b8;" horiz-adv-x="1094" 
d="M146 1154h802q46 0 66 -12q29 -19 29 -56t-29 -56q-20 -12 -66 -12h-324v-922q0 -50 -14 -72q-20 -32 -63 -32t-63 32q-14 22 -14 72v922h-324q-46 0 -66 12q-29 19 -29 56t29 56q20 12 66 12zM975 1326h-856q-31 0 -47 9q-21 13 -21 41q0 26 21 40q14 9 47 9h856
q33 0 47 -9q21 -14 21 -40q0 -28 -21 -41q-16 -9 -47 -9z" />
    <glyph glyph-name="uni20BD" unicode="&#x20bd;" horiz-adv-x="1257" 
d="M198 1331q0 51 21 72t72 21h439q196 0 319 -114.5t123 -303.5t-123 -304.5t-319 -115.5h-378v-490q0 -50 -14 -72q-20 -32 -63 -32t-63 32q-14 22 -14 72v490h-41q-46 0 -66 12q-29 19 -29 56t29 56q20 12 66 12h41v609zM718 1288h-366v-566h366q137 0 218 73t81 211
q0 137 -80.5 209.5t-218.5 72.5z" />
    <glyph glyph-name="uni2116" unicode="&#x2116;" horiz-adv-x="1991" 
d="M1078 1432q41 0 60 -32q12 -20 12 -68v-1240q0 -53 -23 -76q-23 -24 -55 -24q-25 0 -44 15.5t-39 48.5l-638 1081v-1045q0 -46 -13 -68q-19 -32 -60 -32q-42 0 -59 32q-13 22 -13 68v1240q0 52 23 76t55 24q25 0 44 -15.5t39 -48.5l639 -1081v1045q0 48 12 68
q19 32 60 32zM1336 1083q0 196 83 279q74 74 191 74t191 -74q82 -82 82 -279t-82 -279q-74 -74 -191 -74t-191 74q-83 83 -83 279zM1761 1083q0 156 -46 202q-42 42 -105 42t-105 -42q-47 -47 -47 -202t47 -202q42 -42 105 -42t105 42q46 46 46 202zM1336 594q0 32 25 48
q17 10 55 10h387q38 0 55 -10q25 -17 25 -48t-25 -48q-17 -10 -55 -10h-387q-38 0 -55 10q-25 16 -25 48z" />
    <glyph glyph-name="trademark" unicode="&#x2122;" horiz-adv-x="1677" 
d="M365 562q-31 0 -47 25q-11 17 -11 54v679h-173q-35 0 -50 10q-21 14 -21 42t21 42q15 10 50 10h464q35 0 50 -10q21 -14 21 -42t-21 -42q-15 -10 -50 -10h-175v-679q0 -37 -11 -54q-16 -25 -47 -25zM1187 772q-51 0 -77 52l-184 362v-545q0 -37 -10 -54q-16 -25 -47 -25
t-47 25q-10 17 -10 54v687q0 60 18 78q18 19 50 19q27 0 43 -13q18 -15 41 -61l223 -445l223 445q23 46 41 61q16 13 43 13q32 0 50 -19q18 -18 18 -78v-687q0 -37 -10 -54q-16 -25 -47 -25t-47 25q-10 17 -10 54v545l-184 -362q-26 -52 -77 -52z" />
    <glyph glyph-name="Omega" unicode="&#x2126;" horiz-adv-x="1368" 
d="M684 1301q-146 0 -245 -102q-64 -66 -82 -161t-19 -326q0 -180 9.5 -277.5t40.5 -150.5q53 -93 149 -149q47 -29 47 -69q0 -33 -22 -52q-18 -14 -63 -14h-248q-46 0 -66 12q-29 19 -29 56t29 56q20 12 66 12h107q-81 67 -115 133q-36 70 -47 169.5t-11 273.5
q0 112 2 175.5t9.5 130.5t23.5 110t42 85t67 83q142 140 355 140t355 -140q41 -41 67 -83t42 -85t23.5 -110t9.5 -130.5t2 -175.5q0 -174 -11 -273.5t-47 -169.5q-34 -66 -115 -133h107q46 0 66 -12q29 -19 29 -56t-29 -56q-20 -12 -66 -12h-248q-45 0 -63 14q-22 19 -22 52
q0 40 47 69q96 56 149 149q31 53 40.5 150.5t9.5 277.5q-1 231 -19 326t-82 161q-99 102 -245 102z" />
    <glyph glyph-name="uni2150" unicode="&#x2150;" horiz-adv-x="1626" 
d="M1184 1335l-646 -1294q-16 -31 -32 -42q-11 -7 -25 -7q-12 0 -24 6q-27 14 -29 41q-1 19 14 50l646 1294q16 31 32 42q11 7 25 7q12 0 24 -6q27 -14 29 -41q1 -19 -14 -50zM130 1170q-21 21 -15 47q4 19 29 44l135 135q36 36 73 36q31 0 48 -18q16 -18 16 -58v-714
q0 -38 -10 -54q-17 -26 -48 -26t-48 26q-10 16 -10 54v621l-79 -79q-25 -25 -44 -29q-26 -6 -47 15zM1070 681v103q0 38 16 54q17 16 55 16h350q52 0 70 -14q17 -14 17 -40q0 -22 -15 -61l-259 -693q-13 -34 -27 -44q-13 -10 -29 -10q-19 0 -35.5 11t-20.5 29t9 52l249 666
h-264v-69q0 -38 -10 -54q-17 -26 -48 -26t-48 26q-10 16 -10 54z" />
    <glyph glyph-name="uni2151" unicode="&#x2151;" horiz-adv-x="1626" 
d="M1184 1335l-646 -1294q-16 -31 -32 -42q-11 -7 -25 -7q-12 0 -24 6q-27 14 -29 41q-1 19 14 50l646 1294q16 31 32 42q11 7 25 7q12 0 24 -6q27 -14 29 -41q1 -19 -14 -50zM130 1170q-21 21 -15 47q4 19 29 44l135 135q36 36 73 36q31 0 48 -18q16 -18 16 -58v-714
q0 -38 -10 -54q-17 -26 -48 -26t-48 26q-10 16 -10 54v621l-79 -79q-25 -25 -44 -29q-26 -6 -47 15zM1557 607q0 -85 -58 -201l-180 -364q-25 -50 -59 -50q-20 0 -37 14.5t-17 35.5q0 19 15 49l140 279q-32 -14 -79 -14q-95 0 -159 69t-64 178q0 116 68.5 187.5t179.5 71.5
q112 0 181 -69t69 -186zM1441 605q0 71 -36 112t-96 41t-97 -41t-37 -112t37 -112t97 -41t96 41t36 112z" />
    <glyph glyph-name="uni2152" unicode="&#x2152;" horiz-adv-x="2262" 
d="M1184 1335l-646 -1294q-16 -31 -32 -42q-11 -7 -25 -7q-12 0 -24 6q-27 14 -29 41q-1 19 14 50l646 1294q16 31 32 42q11 7 25 7q12 0 24 -6q27 -14 29 -41q1 -19 -14 -50zM130 1170q-21 21 -15 47q4 19 29 44l135 135q36 36 73 36q31 0 48 -18q16 -18 16 -58v-714
q0 -38 -10 -54q-17 -26 -48 -26t-48 26q-10 16 -10 54v621l-79 -79q-25 -25 -44 -29q-26 -6 -47 15zM1120 600q-21 21 -15 47q4 19 29 44l135 135q36 36 73 36q31 0 48 -18q16 -18 16 -58v-714q0 -38 -10 -54q-17 -26 -48 -26t-48 26q-10 16 -10 54v621l-79 -79
q-25 -25 -44 -29q-26 -6 -47 15zM1699 236v383q0 110 69.5 176.5t175.5 66.5q105 0 175 -66.5t70 -176.5v-383q0 -111 -70 -177.5t-175 -66.5q-106 0 -175.5 66.5t-69.5 177.5zM1815 238q0 -65 34.5 -103.5t94.5 -38.5q59 0 94 39.5t35 102.5v378q0 63 -35 102.5t-94 39.5
q-60 0 -94.5 -39t-34.5 -103v-378z" />
    <glyph glyph-name="onethird" unicode="&#x2153;" horiz-adv-x="1626" 
d="M1184 1335l-646 -1294q-16 -31 -32 -42q-11 -7 -25 -7q-12 0 -24 6q-27 14 -29 41q-1 19 14 50l646 1294q16 31 32 42q11 7 25 7q12 0 24 -6q27 -14 29 -41q1 -19 -14 -50zM130 1170q-21 21 -15 47q4 19 29 44l135 135q36 36 73 36q31 0 48 -18q16 -18 16 -58v-714
q0 -38 -10 -54q-17 -26 -48 -26t-48 26q-10 16 -10 54v621l-79 -79q-25 -25 -44 -29q-26 -6 -47 15zM1554 624q0 -131 -108 -182q122 -51 122 -201q0 -118 -73.5 -183.5t-185.5 -65.5t-181.5 58.5t-69.5 140.5q0 30 14.5 47.5t41.5 17.5q35 0 46 -38q15 -58 53 -90t96 -32
q62 0 102.5 39.5t40.5 106.5q0 66 -37.5 105t-109.5 39q-25 0 -39.5 14.5t-14.5 35.5q0 22 14 36.5t40 14.5q64 0 98.5 36t34.5 98q0 63 -38 100t-92 37q-93 0 -121 -74q-2 -5 -8.5 -25.5t-11 -29.5t-16 -18.5t-27.5 -9.5q-26 0 -40.5 18t-14.5 46q0 45 30 94
q65 103 209 103q110 0 178 -65t68 -173z" />
    <glyph glyph-name="twothirds" unicode="&#x2154;" horiz-adv-x="1626" 
d="M1184 1335l-646 -1294q-16 -31 -32 -42q-11 -7 -25 -7q-12 0 -24 6q-27 14 -29 41q-1 19 14 50l646 1294q16 31 32 42q11 7 25 7q12 0 24 -6q27 -14 29 -41q1 -19 -14 -50zM511 570h-357q-48 0 -65 17q-14 16 -14 37q0 22 30 61l303 392q46 59 46 118q0 61 -34.5 97
t-96.5 36q-45 0 -81 -25.5t-46 -72.5q-5 -26 -20 -46q-12 -16 -39 -16q-29 0 -44 21q-9 13 -9 36q0 45 37 105q65 102 202 102q112 0 179 -64t67 -173q0 -49 -16 -87.5t-57 -90.5l-267 -343h282q35 0 50 -10q21 -14 21 -42t-21 -42q-15 -10 -50 -10zM1554 624
q0 -131 -108 -182q122 -51 122 -201q0 -118 -73.5 -183.5t-185.5 -65.5t-181.5 58.5t-69.5 140.5q0 30 14.5 47.5t41.5 17.5q35 0 46 -38q15 -58 53 -90t96 -32q62 0 102.5 39.5t40.5 106.5q0 66 -37.5 105t-109.5 39q-25 0 -39.5 14.5t-14.5 35.5q0 22 14 36.5t40 14.5
q64 0 98.5 36t34.5 98q0 63 -38 100t-92 37q-93 0 -121 -74q-2 -5 -8.5 -25.5t-11 -29.5t-16 -18.5t-27.5 -9.5q-26 0 -40.5 18t-14.5 46q0 45 30 94q65 103 209 103q110 0 178 -65t68 -173z" />
    <glyph glyph-name="uni2155" unicode="&#x2155;" horiz-adv-x="1626" 
d="M1184 1335l-646 -1294q-16 -31 -32 -42q-11 -7 -25 -7q-12 0 -24 6q-27 14 -29 41q-1 19 14 50l646 1294q16 31 32 42q11 7 25 7q12 0 24 -6q27 -14 29 -41q1 -19 -14 -50zM130 1170q-21 21 -15 47q4 19 29 44l135 135q36 36 73 36q31 0 48 -18q16 -18 16 -58v-714
q0 -38 -10 -54q-17 -26 -48 -26t-48 26q-10 16 -10 54v621l-79 -79q-25 -25 -44 -29q-26 -6 -47 15zM1478 750h-287v-218q54 36 143 36q100 0 154 -54q74 -74 74 -229q0 -77 -14.5 -130.5t-56.5 -95.5q-67 -67 -180 -67q-129 0 -194 81q-40 48 -40 110q0 21 9 36
q13 22 44 22q32 0 45 -20q5 -10 13 -37q24 -88 123 -88q60 0 94 34q26 26 33.5 63t7.5 92q0 185 -130 185q-86 0 -121 -48q-14 -19 -23 -25q-13 -8 -32 -8q-24 0 -39 14q-14 13 -14 47v334q0 38 16 54q17 16 55 16h320q35 0 50 -10q21 -14 21 -42t-21 -42q-15 -10 -50 -10z
" />
    <glyph glyph-name="uni2156" unicode="&#x2156;" horiz-adv-x="1626" 
d="M1184 1335l-646 -1294q-16 -31 -32 -42q-11 -7 -25 -7q-12 0 -24 6q-27 14 -29 41q-1 19 14 50l646 1294q16 31 32 42q11 7 25 7q12 0 24 -6q27 -14 29 -41q1 -19 -14 -50zM511 570h-357q-48 0 -65 17q-14 16 -14 37q0 22 30 61l303 392q46 59 46 118q0 61 -34.5 97
t-96.5 36q-45 0 -81 -25.5t-46 -72.5q-5 -26 -20 -46q-12 -16 -39 -16q-29 0 -44 21q-9 13 -9 36q0 45 37 105q65 102 202 102q112 0 179 -64t67 -173q0 -49 -16 -87.5t-57 -90.5l-267 -343h282q35 0 50 -10q21 -14 21 -42t-21 -42q-15 -10 -50 -10zM1478 750h-287v-218
q54 36 143 36q100 0 154 -54q74 -74 74 -229q0 -77 -14.5 -130.5t-56.5 -95.5q-67 -67 -180 -67q-129 0 -194 81q-40 48 -40 110q0 21 9 36q13 22 44 22q32 0 45 -20q5 -10 13 -37q24 -88 123 -88q60 0 94 34q26 26 33.5 63t7.5 92q0 185 -130 185q-86 0 -121 -48
q-14 -19 -23 -25q-13 -8 -32 -8q-24 0 -39 14q-14 13 -14 47v334q0 38 16 54q17 16 55 16h320q35 0 50 -10q21 -14 21 -42t-21 -42q-15 -10 -50 -10z" />
    <glyph glyph-name="uni2157" unicode="&#x2157;" horiz-adv-x="1626" 
d="M1184 1335l-646 -1294q-16 -31 -32 -42q-11 -7 -25 -7q-12 0 -24 6q-27 14 -29 41q-1 19 14 50l646 1294q16 31 32 42q11 7 25 7q12 0 24 -6q27 -14 29 -41q1 -19 -14 -50zM564 1194q0 -131 -108 -182q122 -51 122 -201q0 -118 -73.5 -183.5t-185.5 -65.5t-181.5 58.5
t-69.5 140.5q0 30 14.5 47.5t41.5 17.5q35 0 46 -38q15 -58 53 -90t96 -32q62 0 102.5 39.5t40.5 106.5q0 66 -37.5 105t-109.5 39q-25 0 -39.5 14.5t-14.5 35.5q0 22 14 36.5t40 14.5q64 0 98.5 36t34.5 98q0 63 -38 100t-92 37q-93 0 -121 -74q-2 -5 -8.5 -25.5t-11 -29.5
t-16 -18.5t-27.5 -9.5q-26 0 -40.5 18t-14.5 46q0 45 30 94q65 103 209 103q110 0 178 -65t68 -173zM1478 750h-287v-218q54 36 143 36q100 0 154 -54q74 -74 74 -229q0 -77 -14.5 -130.5t-56.5 -95.5q-67 -67 -180 -67q-129 0 -194 81q-40 48 -40 110q0 21 9 36
q13 22 44 22q32 0 45 -20q5 -10 13 -37q24 -88 123 -88q60 0 94 34q26 26 33.5 63t7.5 92q0 185 -130 185q-86 0 -121 -48q-14 -19 -23 -25q-13 -8 -32 -8q-24 0 -39 14q-14 13 -14 47v334q0 38 16 54q17 16 55 16h320q35 0 50 -10q21 -14 21 -42t-21 -42q-15 -10 -50 -10z
" />
    <glyph glyph-name="uni2158" unicode="&#x2158;" horiz-adv-x="1626" 
d="M1184 1335l-646 -1294q-16 -31 -32 -42q-11 -7 -25 -7q-12 0 -24 6q-27 14 -29 41q-1 19 14 50l646 1294q16 31 32 42q11 7 25 7q12 0 24 -6q27 -14 29 -41q1 -19 -14 -50zM47 795l294 587q25 50 59 50q20 0 37 -14.5t17 -35.5q0 -19 -15 -49l-265 -529h218v156
q0 28 9 40q15 22 42 22t42 -22q9 -12 9 -40v-156h37q35 0 50 -10q21 -14 21 -42t-21 -42q-15 -10 -50 -10h-37v-76q0 -28 -9 -40q-15 -22 -42 -22t-42 22q-9 12 -9 40v76h-289q-31 0 -46 8q-24 15 -24 43q0 16 14 44zM1478 750h-287v-218q54 36 143 36q100 0 154 -54
q74 -74 74 -229q0 -77 -14.5 -130.5t-56.5 -95.5q-67 -67 -180 -67q-129 0 -194 81q-40 48 -40 110q0 21 9 36q13 22 44 22q32 0 45 -20q5 -10 13 -37q24 -88 123 -88q60 0 94 34q26 26 33.5 63t7.5 92q0 185 -130 185q-86 0 -121 -48q-14 -19 -23 -25q-13 -8 -32 -8
q-24 0 -39 14q-14 13 -14 47v334q0 38 16 54q17 16 55 16h320q35 0 50 -10q21 -14 21 -42t-21 -42q-15 -10 -50 -10z" />
    <glyph glyph-name="uni2159" unicode="&#x2159;" horiz-adv-x="1626" 
d="M1184 1335l-646 -1294q-16 -31 -32 -42q-11 -7 -25 -7q-12 0 -24 6q-27 14 -29 41q-1 19 14 50l646 1294q16 31 32 42q11 7 25 7q12 0 24 -6q27 -14 29 -41q1 -19 -14 -50zM130 1170q-21 21 -15 47q4 19 29 44l135 135q36 36 73 36q31 0 48 -18q16 -18 16 -58v-714
q0 -38 -10 -54q-17 -26 -48 -26t-48 26q-10 16 -10 54v621l-79 -79q-25 -25 -44 -29q-26 -6 -47 15zM1059 247q0 85 58 201l180 364q25 50 59 50q20 0 37 -14.5t17 -35.5q0 -19 -15 -49l-140 -279q32 14 79 14q95 0 159 -69t64 -178q0 -116 -68.5 -187.5t-179.5 -71.5
q-112 0 -181 69t-69 186zM1175 249q0 -71 36 -112t96 -41t97 41t37 112t-37 112t-97 41t-96 -41t-36 -112z" />
    <glyph glyph-name="uni215A" unicode="&#x215a;" horiz-adv-x="1626" 
d="M1184 1335l-646 -1294q-16 -31 -32 -42q-11 -7 -25 -7q-12 0 -24 6q-27 14 -29 41q-1 19 14 50l646 1294q16 31 32 42q11 7 25 7q12 0 24 -6q27 -14 29 -41q1 -19 -14 -50zM488 1320h-287v-218q54 36 143 36q100 0 154 -54q74 -74 74 -229q0 -77 -14.5 -130.5
t-56.5 -95.5q-67 -67 -180 -67q-129 0 -194 81q-40 48 -40 110q0 21 9 36q13 22 44 22q32 0 45 -20q5 -10 13 -37q24 -88 123 -88q60 0 94 34q26 26 33.5 63t7.5 92q0 185 -130 185q-86 0 -121 -48q-14 -19 -23 -25q-13 -8 -32 -8q-24 0 -39 14q-14 13 -14 47v334
q0 38 16 54q17 16 55 16h320q35 0 50 -10q21 -14 21 -42t-21 -42q-15 -10 -50 -10zM1059 247q0 85 58 201l180 364q25 50 59 50q20 0 37 -14.5t17 -35.5q0 -19 -15 -49l-140 -279q32 14 79 14q95 0 159 -69t64 -178q0 -116 -68.5 -187.5t-179.5 -71.5q-112 0 -181 69
t-69 186zM1175 249q0 -71 36 -112t96 -41t97 41t37 112t-37 112t-97 41t-96 -41t-36 -112z" />
    <glyph glyph-name="oneeighth" unicode="&#x215b;" horiz-adv-x="1626" 
d="M1184 1335l-646 -1294q-16 -31 -32 -42q-11 -7 -25 -7q-12 0 -24 6q-27 14 -29 41q-1 19 14 50l646 1294q16 31 32 42q11 7 25 7q12 0 24 -6q27 -14 29 -41q1 -19 -14 -50zM130 1170q-21 21 -15 47q4 19 29 44l135 135q36 36 73 36q31 0 48 -18q16 -18 16 -58v-714
q0 -38 -10 -54q-17 -26 -48 -26t-48 26q-10 16 -10 54v621l-79 -79q-25 -25 -44 -29q-26 -6 -47 15zM1308 490q58 0 95 38t37 97t-36 96t-96 37t-96 -37t-36 -96t37 -97t95 -38zM1308 96q63 0 104.5 41.5t41.5 104.5t-41.5 105t-104.5 42t-104.5 -42t-41.5 -105t41.5 -104.5
t104.5 -41.5zM1308 -8q-112 0 -187 68t-75 181q0 129 121 202q-107 64 -107 183q0 103 71 169.5t177 66.5t177 -66.5t71 -169.5q0 -119 -107 -183q121 -73 121 -202q0 -113 -75 -181t-187 -68z" />
    <glyph glyph-name="threeeighths" unicode="&#x215c;" horiz-adv-x="1626" 
d="M1184 1335l-646 -1294q-16 -31 -32 -42q-11 -7 -25 -7q-12 0 -24 6q-27 14 -29 41q-1 19 14 50l646 1294q16 31 32 42q11 7 25 7q12 0 24 -6q27 -14 29 -41q1 -19 -14 -50zM564 1194q0 -131 -108 -182q122 -51 122 -201q0 -118 -73.5 -183.5t-185.5 -65.5t-181.5 58.5
t-69.5 140.5q0 30 14.5 47.5t41.5 17.5q35 0 46 -38q15 -58 53 -90t96 -32q62 0 102.5 39.5t40.5 106.5q0 66 -37.5 105t-109.5 39q-25 0 -39.5 14.5t-14.5 35.5q0 22 14 36.5t40 14.5q64 0 98.5 36t34.5 98q0 63 -38 100t-92 37q-93 0 -121 -74q-2 -5 -8.5 -25.5t-11 -29.5
t-16 -18.5t-27.5 -9.5q-26 0 -40.5 18t-14.5 46q0 45 30 94q65 103 209 103q110 0 178 -65t68 -173zM1308 490q58 0 95 38t37 97t-36 96t-96 37t-96 -37t-36 -96t37 -97t95 -38zM1308 96q63 0 104.5 41.5t41.5 104.5t-41.5 105t-104.5 42t-104.5 -42t-41.5 -105t41.5 -104.5
t104.5 -41.5zM1308 -8q-112 0 -187 68t-75 181q0 129 121 202q-107 64 -107 183q0 103 71 169.5t177 66.5t177 -66.5t71 -169.5q0 -119 -107 -183q121 -73 121 -202q0 -113 -75 -181t-187 -68z" />
    <glyph glyph-name="fiveeighths" unicode="&#x215d;" horiz-adv-x="1626" 
d="M1184 1335l-646 -1294q-16 -31 -32 -42q-11 -7 -25 -7q-12 0 -24 6q-27 14 -29 41q-1 19 14 50l646 1294q16 31 32 42q11 7 25 7q12 0 24 -6q27 -14 29 -41q1 -19 -14 -50zM488 1320h-287v-218q54 36 143 36q100 0 154 -54q74 -74 74 -229q0 -77 -14.5 -130.5
t-56.5 -95.5q-67 -67 -180 -67q-129 0 -194 81q-40 48 -40 110q0 21 9 36q13 22 44 22q32 0 45 -20q5 -10 13 -37q24 -88 123 -88q60 0 94 34q26 26 33.5 63t7.5 92q0 185 -130 185q-86 0 -121 -48q-14 -19 -23 -25q-13 -8 -32 -8q-24 0 -39 14q-14 13 -14 47v334
q0 38 16 54q17 16 55 16h320q35 0 50 -10q21 -14 21 -42t-21 -42q-15 -10 -50 -10zM1308 490q58 0 95 38t37 97t-36 96t-96 37t-96 -37t-36 -96t37 -97t95 -38zM1308 96q63 0 104.5 41.5t41.5 104.5t-41.5 105t-104.5 42t-104.5 -42t-41.5 -105t41.5 -104.5t104.5 -41.5z
M1308 -8q-112 0 -187 68t-75 181q0 129 121 202q-107 64 -107 183q0 103 71 169.5t177 66.5t177 -66.5t71 -169.5q0 -119 -107 -183q121 -73 121 -202q0 -113 -75 -181t-187 -68z" />
    <glyph glyph-name="seveneighths" unicode="&#x215e;" horiz-adv-x="1626" 
d="M1184 1335l-646 -1294q-16 -31 -32 -42q-11 -7 -25 -7q-12 0 -24 6q-27 14 -29 41q-1 19 14 50l646 1294q16 31 32 42q11 7 25 7q12 0 24 -6q27 -14 29 -41q1 -19 -14 -50zM80 1251v103q0 38 16 54q17 16 55 16h350q52 0 70 -14q17 -14 17 -40q0 -22 -15 -61l-259 -693
q-13 -34 -27 -44q-13 -10 -29 -10q-19 0 -35.5 11t-20.5 29t9 52l249 666h-264v-69q0 -38 -10 -54q-17 -26 -48 -26t-48 26q-10 16 -10 54zM1308 490q58 0 95 38t37 97t-36 96t-96 37t-96 -37t-36 -96t37 -97t95 -38zM1308 96q63 0 104.5 41.5t41.5 104.5t-41.5 105
t-104.5 42t-104.5 -42t-41.5 -105t41.5 -104.5t104.5 -41.5zM1308 -8q-112 0 -187 68t-75 181q0 129 121 202q-107 64 -107 183q0 103 71 169.5t177 66.5t177 -66.5t71 -169.5q0 -119 -107 -183q121 -73 121 -202q0 -113 -75 -181t-187 -68z" />
    <glyph glyph-name="uni215F" unicode="&#x215f;" horiz-adv-x="990" 
d="M1184 1335l-646 -1294q-16 -31 -32 -42q-11 -7 -25 -7q-12 0 -24 6q-27 14 -29 41q-1 19 14 50l646 1294q16 31 32 42q11 7 25 7q12 0 24 -6q27 -14 29 -41q1 -19 -14 -50zM130 1170q-21 21 -15 47q4 19 29 44l135 135q36 36 73 36q31 0 48 -18q16 -18 16 -58v-714
q0 -38 -10 -54q-17 -26 -48 -26t-48 26q-10 16 -10 54v621l-79 -79q-25 -25 -44 -29q-26 -6 -47 15z" />
    <glyph glyph-name="uni2189" unicode="&#x2189;" horiz-adv-x="1626" 
d="M1184 1335l-646 -1294q-16 -31 -32 -42q-11 -7 -25 -7q-12 0 -24 6q-27 14 -29 41q-1 19 14 50l646 1294q16 31 32 42q11 7 25 7q12 0 24 -6q27 -14 29 -41q1 -19 -14 -50zM73 806v383q0 110 69.5 176.5t175.5 66.5q105 0 175 -66.5t70 -176.5v-383q0 -111 -70 -177.5
t-175 -66.5q-106 0 -175.5 66.5t-69.5 177.5zM189 808q0 -65 34.5 -103.5t94.5 -38.5q59 0 94 39.5t35 102.5v378q0 63 -35 102.5t-94 39.5q-60 0 -94.5 -39t-34.5 -103v-378zM1554 624q0 -131 -108 -182q122 -51 122 -201q0 -118 -73.5 -183.5t-185.5 -65.5t-181.5 58.5
t-69.5 140.5q0 30 14.5 47.5t41.5 17.5q35 0 46 -38q15 -58 53 -90t96 -32q62 0 102.5 39.5t40.5 106.5q0 66 -37.5 105t-109.5 39q-25 0 -39.5 14.5t-14.5 35.5q0 22 14 36.5t40 14.5q64 0 98.5 36t34.5 98q0 63 -38 100t-92 37q-93 0 -121 -74q-2 -5 -8.5 -25.5t-11 -29.5
t-16 -18.5t-27.5 -9.5q-26 0 -40.5 18t-14.5 46q0 45 30 94q65 103 209 103q110 0 178 -65t68 -173z" />
    <glyph glyph-name="arrowleft" unicode="&#x2190;" horiz-adv-x="2054" 
d="M974 1209l-604 -604h1494q44 0 61 -11q28 -19 28 -54t-28 -54q-17 -11 -61 -11h-1496l606 -606q31 -31 37 -54q8 -33 -19 -60t-60 -19q-23 6 -54 37l-766 766l766 766q31 31 54 37q33 8 60 -19t19 -60q-6 -23 -37 -54z" />
    <glyph glyph-name="arrowup" unicode="&#x2191;" horiz-adv-x="2054" 
d="M1027 -386q-35 0 -54 28q-11 17 -11 61v1494l-605 -605q-31 -31 -54 -37q-33 -8 -60 19t-19 60q6 23 37 54l766 766l766 -766q31 -31 37 -54q8 -33 -19 -60t-60 -19q-23 6 -54 37l-605 605v-1494q0 -44 -11 -61q-19 -28 -54 -28z" />
    <glyph glyph-name="arrowright" unicode="&#x2192;" horiz-adv-x="2054" 
d="M1684 605l-604 604q-31 31 -37 54q-8 33 19 60t60 19q23 -6 54 -37l766 -766l-766 -766q-31 -31 -54 -37q-33 -8 -60 19t-19 60q6 23 37 54l606 606h-1496q-44 0 -61 11q-28 19 -28 54t28 54q17 11 61 11h1494z" />
    <glyph glyph-name="arrowdown" unicode="&#x2193;" horiz-adv-x="2054" 
d="M1027 1463q35 0 54 -28q11 -17 11 -61v-1494l605 605q31 31 54 37q33 8 60 -19t19 -60q-6 -23 -37 -54l-766 -766l-766 766q-31 31 -37 54q-8 33 19 60t60 19q23 -6 54 -37l605 -605v1494q0 44 11 61q19 28 54 28z" />
    <glyph glyph-name="uni2196" unicode="&#x2196;" horiz-adv-x="2054" 
d="M1681 -117q-24 -24 -58 -18q-21 5 -51 35l-1057 1057v-856q0 -45 -12 -64q-18 -29 -56 -29q-37 0 -56 29q-12 21 -12 64v1084h1084q43 0 64 -12q29 -19 29 -56q0 -38 -29 -56q-19 -12 -64 -12h-856l1057 -1057q30 -30 35 -51q6 -34 -18 -58z" />
    <glyph glyph-name="uni2197" unicode="&#x2197;" horiz-adv-x="2054" 
d="M373 -117q-24 24 -18 58q5 21 35 51l1057 1057h-856q-45 0 -64 12q-29 18 -29 56q0 37 29 56q21 12 64 12h1084v-1084q0 -43 -12 -64q-19 -29 -56 -29q-38 0 -56 29q-12 19 -12 64v856l-1057 -1057q-30 -30 -51 -35q-34 -6 -58 18z" />
    <glyph glyph-name="uni2198" unicode="&#x2198;" horiz-adv-x="2054" 
d="M376 1153q24 24 58 18q21 -5 51 -35l1057 -1057v856q0 45 12 64q18 29 56 29q37 0 56 -29q12 -21 12 -64v-1084h-1084q-43 0 -64 12q-29 19 -29 56q0 38 29 56q19 12 64 12h856l-1057 1057q-30 30 -35 51q-6 34 18 58z" />
    <glyph glyph-name="uni2199" unicode="&#x2199;" horiz-adv-x="2054" 
d="M1678 1154q24 -24 18 -58q-5 -21 -35 -51l-1057 -1057h856q45 0 64 -12q29 -18 29 -56q0 -37 -29 -56q-21 -12 -64 -12h-1084v1084q0 43 12 64q19 29 56 29q38 0 56 -29q12 -19 12 -64v-856l1057 1057q30 30 51 35q34 6 58 -18z" />
    <glyph glyph-name="partialdiff" unicode="&#x2202;" horiz-adv-x="1088" 
d="M907 489q0 -129 -24.5 -225t-91.5 -165q-106 -111 -272 -111t-272 111q-67 69 -91.5 165t-24.5 225q0 135 24.5 231t91.5 164q105 105 259 105q80 0 141.5 -24.5t113.5 -90.5v141q0 129 -66.5 212.5t-201.5 83.5q-109 0 -186 -59q-49 -38 -73 -38q-23 0 -42.5 18.5
t-19.5 47.5q0 50 104 108q89 48 220 48q195 0 303 -118.5t108 -314.5v-514zM761 489q0 225 -77 302q-70 68 -165 68t-165 -68q-77 -77 -77 -302t77 -302q69 -69 165 -69t165 69q77 77 77 302z" />
    <glyph glyph-name="Delta" unicode="&#x2206;" horiz-adv-x="1214" 
d="M607 1187l-385 -1051h770zM1059 -1l-904 1q-64 0 -87 21q-20 19 -20 50q0 21 19 72l453 1209q13 35 30 55q23 25 57 25t57 -25q17 -20 30 -55l453 -1210q19 -51 19 -72q0 -31 -20 -50q-23 -21 -87 -21z" />
    <glyph glyph-name="product" unicode="&#x220f;" horiz-adv-x="1392" 
d="M1032 1384h-672v-1728q0 -50 -14 -72q-20 -32 -63 -32t-63 32q-14 22 -14 72v1771q0 51 21 72t72 21h794q51 0 72 -21t21 -72v-1771q0 -50 -14 -72q-20 -32 -63 -32t-63 32q-14 22 -14 72v1728z" />
    <glyph glyph-name="summation" unicode="&#x2211;" horiz-adv-x="1056" 
d="M909 -440h-720q-46 0 -67 15q-27 19 -27 54q0 22 18 58l427 853l-427 853q-18 36 -18 58q0 35 27 54q21 15 67 15h721q46 0 66 -12q29 -19 29 -56t-29 -56q-20 -12 -66 -12h-626l391 -781q16 -33 16 -63q0 -31 -16 -63l-391 -781h625q46 0 66 -12q29 -19 29 -56t-29 -56
q-20 -12 -66 -12z" />
    <glyph glyph-name="minus" unicode="&#x2212;" 
d="M947 539q0 -35 -28 -54q-17 -11 -61 -11h-672q-44 0 -61 11q-28 19 -28 54t28 54q17 11 61 11h672q44 0 61 -11q28 -19 28 -54z" />
    <glyph glyph-name="uni2219" unicode="&#x2219;" 
d="M196 539q0 135 95.5 230.5t230.5 95.5t230.5 -95.5t95.5 -230.5t-95.5 -230.5t-230.5 -95.5t-230.5 95.5t-95.5 230.5z" />
    <glyph glyph-name="radical" unicode="&#x221a;" horiz-adv-x="1126" 
d="M887 1288l-401 -1216q-16 -45 -37 -64q-20 -16 -49 -16q-30 0 -49 16q-22 18 -38 64l-266 800q-14 43 -9 68q5 22 26.5 37t45.5 15q26 0 42 -15q19 -16 33 -59l213 -652l353 1077q17 52 35 66q18 15 50 15h144q46 0 66 -12q29 -19 29 -56t-29 -56q-20 -12 -66 -12h-93z
" />
    <glyph glyph-name="infinity" unicode="&#x221e;" horiz-adv-x="1616" 
d="M1481 540q0 -137 -87 -227.5t-229 -90.5q-103 0 -184 48.5t-172 159.5q-91 -111 -172.5 -160.5t-181.5 -49.5q-142 0 -231 91.5t-89 228.5t89 228.5t231 91.5q97 0 180.5 -51t173.5 -161q92 112 173 162t183 50q142 0 229 -91t87 -229zM717 539q-82 100 -136.5 144
t-121.5 44q-81 0 -133.5 -52.5t-52.5 -135.5t52 -134.5t134 -51.5q47 0 92 25.5t78.5 60t87.5 100.5zM1343 539q0 83 -51.5 134.5t-132.5 51.5q-68 0 -124 -44.5t-136 -141.5q80 -97 136 -141.5t124 -44.5q81 0 132.5 51.5t51.5 134.5z" />
    <glyph glyph-name="integral" unicode="&#x222b;" horiz-adv-x="854" 
d="M354 -172v1336q0 115 65 189.5t185 74.5h26q46 0 65 -12q27 -17 27 -51t-27 -51q-19 -12 -65 -12q-130 0 -130 -143v-1336q0 -115 -65 -189.5t-185 -74.5h-26q-46 0 -65 12q-27 17 -27 51t27 51q19 12 65 12q130 0 130 143z" />
    <glyph glyph-name="approxequal" unicode="&#x2248;" 
d="M150 615q-25 0 -43 20q-17 18 -17 42q0 34 39 70q54 52 102.5 71.5t107.5 19.5q32 0 72 -10.5t64.5 -20.5l74.5 -32q103 -47 155 -47q39 0 68 12.5t66 46.5q27 26 54 26q24 0 44 -20q17 -19 17 -41q0 -34 -40 -71q-53 -51 -101 -70.5t-108 -19.5q-73 0 -212 63
q-37 17 -55 24t-46.5 14.5t-53.5 7.5q-39 0 -67.5 -12.5t-65.5 -46.5q-29 -26 -55 -26zM150 261q-25 0 -43 20q-17 18 -17 42q0 34 39 70q54 52 102.5 71.5t107.5 19.5q32 0 72 -10.5t64.5 -20.5l74.5 -32q103 -47 155 -47q39 0 68 12.5t66 46.5q27 26 54 26q24 0 44 -20
q17 -19 17 -41q0 -34 -40 -71q-53 -51 -101 -70.5t-108 -19.5q-73 0 -212 63q-37 17 -55 24t-46.5 14.5t-53.5 7.5q-39 0 -67.5 -12.5t-65.5 -46.5q-29 -26 -55 -26z" />
    <glyph glyph-name="notequal" unicode="&#x2260;" 
d="M803 897l-75 -123h145q44 0 61 -11q28 -19 28 -54t-28 -54q-17 -11 -61 -11h-223l-128 -213h351q44 0 61 -11q28 -19 28 -54t-28 -54q-17 -11 -61 -11h-429l-108 -180q-19 -31 -36 -39q-23 -11 -48 4q-28 16 -28 44q0 19 17 48l74 123h-144q-44 0 -61 11q-28 19 -28 54
t28 54q17 11 61 11h222l128 213h-350q-44 0 -61 11q-28 19 -28 54t28 54q17 11 61 11h428l109 180q19 31 36 39q23 11 48 -4q28 -16 28 -44q0 -19 -17 -48z" />
    <glyph glyph-name="lessequal" unicode="&#x2264;" 
d="M270 816l464 232q36 18 60 18q26 0 44.5 -21t18.5 -47q0 -25 -15.5 -41t-46.5 -31l-429 -215l429 -215q31 -15 46.5 -31t15.5 -41q0 -26 -18.5 -47t-44.5 -21q-24 0 -60 18l-464 232q-24 12 -37.5 20t-28.5 20.5t-21.5 28.5t-6.5 36q0 38 23 59.5t71 45.5zM298 405
l497 -249q31 -15 46.5 -31t15.5 -41q0 -26 -18.5 -47t-44.5 -21q-24 0 -60 18l-497 249q-31 15 -46.5 31t-15.5 41q0 26 18.5 47t44.5 21q24 0 60 -18z" />
    <glyph glyph-name="greaterequal" unicode="&#x2265;" 
d="M310 1048l464 -232q24 -12 37.5 -20t28.5 -20.5t21.5 -28.5t6.5 -36q0 -38 -23 -59.5t-71 -45.5l-464 -232q-36 -18 -60 -18q-26 0 -44.5 21t-18.5 47q0 25 15.5 41t46.5 31l429 215l-429 215q-31 15 -46.5 31t-15.5 41q0 26 18.5 47t44.5 21q24 0 60 -18zM249 156
l497 249q36 18 60 18q26 0 44.5 -21t18.5 -47q0 -25 -15.5 -41t-46.5 -31l-497 -249q-36 -18 -60 -18q-26 0 -44.5 21t-18.5 47q0 25 15.5 41t46.5 31z" />
    <glyph glyph-name="dotmath" unicode="&#x22c5;" 
d="M408 539q0 47 33.5 80.5t80.5 33.5t80.5 -33.5t33.5 -80.5t-33.5 -80.5t-80.5 -33.5t-80.5 33.5t-33.5 80.5z" />
    <glyph glyph-name="lozenge" unicode="&#x25ca;" horiz-adv-x="998" 
d="M499 176l268 536l-268 536l-268 -536zM499 1432q38 0 59.5 -23t45.5 -71l281 -563q16 -33 16 -63q0 -31 -16 -63l-281 -563q-12 -24 -20 -37.5t-20.5 -28.5t-28.5 -21.5t-36 -6.5q-38 0 -59.5 23t-45.5 71l-281 563q-16 32 -16 63q0 30 16 63l281 563q12 24 20 37.5
t20.5 28.5t28.5 21.5t36 6.5z" />
    <glyph glyph-name="fi" unicode="&#xfb01;" horiz-adv-x="1128" 
d="M362 984h145q38 0 53 -10q24 -14 24 -46t-24 -46q-15 -10 -53 -10h-145v-782q0 -46 -13 -67q-19 -31 -60 -31t-60 31q-13 21 -13 67v782h-69q-38 0 -53 10q-24 14 -24 46t24 46q15 10 53 10h69v180q0 115 65 189.5t185 74.5h26q46 0 65 -12q27 -17 27 -51t-27 -51
q-19 -12 -65 -12q-130 0 -130 -143v-175zM942 894v-804q0 -46 -13 -67q-19 -31 -60 -31t-60 31q-13 21 -13 67v804q0 46 13 67q19 31 60 31t60 -31q13 -21 13 -67zM770 1353q0 41 29 70t70 29t70 -29t29 -70t-29 -70t-70 -29t-70 29t-29 70z" />
    <glyph glyph-name="fl" unicode="&#xfb02;" horiz-adv-x="1210" 
d="M362 984h145q38 0 53 -10q24 -14 24 -46t-24 -46q-15 -10 -53 -10h-145v-782q0 -46 -13 -67q-19 -31 -60 -31t-60 31q-13 21 -13 67v782h-69q-38 0 -53 10q-24 14 -24 46t24 46q15 10 53 10h69v180q0 115 65 189.5t185 74.5h26q46 0 65 -12q27 -17 27 -51t-27 -51
q-19 -12 -65 -12q-130 0 -130 -143v-175zM942 1334v-1065q0 -143 130 -143q46 0 65 -12q27 -17 27 -51t-27 -51q-19 -12 -65 -12h-26q-120 0 -185 74.5t-65 189.5v1070q0 46 13 67q19 31 60 31t60 -31q13 -21 13 -67z" />
    <glyph glyph-name="uniFEFF" unicode="&#xfeff;" horiz-adv-x="0" 
 />
    <glyph glyph-name="zero.numr" horiz-adv-x="636" 
d="M73 806v383q0 110 69.5 176.5t175.5 66.5q105 0 175 -66.5t70 -176.5v-383q0 -111 -70 -177.5t-175 -66.5q-106 0 -175.5 66.5t-69.5 177.5zM189 808q0 -65 34.5 -103.5t94.5 -38.5q59 0 94 39.5t35 102.5v378q0 63 -35 102.5t-94 39.5q-60 0 -94.5 -39t-34.5 -103v-378z
" />
    <glyph glyph-name="one.numr" horiz-adv-x="636" 
d="M130 1170q-21 21 -15 47q4 19 29 44l135 135q36 36 73 36q31 0 48 -18q16 -18 16 -58v-714q0 -38 -10 -54q-17 -26 -48 -26t-48 26q-10 16 -10 54v621l-79 -79q-25 -25 -44 -29q-26 -6 -47 15z" />
    <glyph glyph-name="two.numr" horiz-adv-x="636" 
d="M511 570h-357q-48 0 -65 17q-14 16 -14 37q0 22 30 61l303 392q46 59 46 118q0 61 -34.5 97t-96.5 36q-45 0 -81 -25.5t-46 -72.5q-5 -26 -20 -46q-12 -16 -39 -16q-29 0 -44 21q-9 13 -9 36q0 45 37 105q65 102 202 102q112 0 179 -64t67 -173q0 -49 -16 -87.5
t-57 -90.5l-267 -343h282q35 0 50 -10q21 -14 21 -42t-21 -42q-15 -10 -50 -10z" />
    <glyph glyph-name="three.numr" horiz-adv-x="636" 
d="M564 1194q0 -131 -108 -182q122 -51 122 -201q0 -118 -73.5 -183.5t-185.5 -65.5t-181.5 58.5t-69.5 140.5q0 30 14.5 47.5t41.5 17.5q35 0 46 -38q15 -58 53 -90t96 -32q62 0 102.5 39.5t40.5 106.5q0 66 -37.5 105t-109.5 39q-25 0 -39.5 14.5t-14.5 35.5q0 22 14 36.5
t40 14.5q64 0 98.5 36t34.5 98q0 63 -38 100t-92 37q-93 0 -121 -74q-2 -5 -8.5 -25.5t-11 -29.5t-16 -18.5t-27.5 -9.5q-26 0 -40.5 18t-14.5 46q0 45 30 94q65 103 209 103q110 0 178 -65t68 -173z" />
    <glyph glyph-name="four.numr" horiz-adv-x="636" 
d="M47 795l294 587q25 50 59 50q20 0 37 -14.5t17 -35.5q0 -19 -15 -49l-265 -529h218v156q0 28 9 40q15 22 42 22t42 -22q9 -12 9 -40v-156h37q35 0 50 -10q21 -14 21 -42t-21 -42q-15 -10 -50 -10h-37v-76q0 -28 -9 -40q-15 -22 -42 -22t-42 22q-9 12 -9 40v76h-289
q-31 0 -46 8q-24 15 -24 43q0 16 14 44z" />
    <glyph glyph-name="five.numr" horiz-adv-x="636" 
d="M488 1320h-287v-218q54 36 143 36q100 0 154 -54q74 -74 74 -229q0 -77 -14.5 -130.5t-56.5 -95.5q-67 -67 -180 -67q-129 0 -194 81q-40 48 -40 110q0 21 9 36q13 22 44 22q32 0 45 -20q5 -10 13 -37q24 -88 123 -88q60 0 94 34q26 26 33.5 63t7.5 92q0 185 -130 185
q-86 0 -121 -48q-14 -19 -23 -25q-13 -8 -32 -8q-24 0 -39 14q-14 13 -14 47v334q0 38 16 54q17 16 55 16h320q35 0 50 -10q21 -14 21 -42t-21 -42q-15 -10 -50 -10z" />
    <glyph glyph-name="six.numr" horiz-adv-x="636" 
d="M69 817q0 85 58 201l180 364q25 50 59 50q20 0 37 -14.5t17 -35.5q0 -19 -15 -49l-140 -279q32 14 79 14q95 0 159 -69t64 -178q0 -116 -68.5 -187.5t-179.5 -71.5q-112 0 -181 69t-69 186zM185 819q0 -71 36 -112t96 -41t97 41t37 112t-37 112t-97 41t-96 -41t-36 -112z
" />
    <glyph glyph-name="seven.numr" horiz-adv-x="636" 
d="M80 1251v103q0 38 16 54q17 16 55 16h350q52 0 70 -14q17 -14 17 -40q0 -22 -15 -61l-259 -693q-13 -34 -27 -44q-13 -10 -29 -10q-19 0 -35.5 11t-20.5 29t9 52l249 666h-264v-69q0 -38 -10 -54q-17 -26 -48 -26t-48 26q-10 16 -10 54z" />
    <glyph glyph-name="eight.numr" horiz-adv-x="636" 
d="M318 1060q58 0 95 38t37 97t-36 96t-96 37t-96 -37t-36 -96t37 -97t95 -38zM318 666q63 0 104.5 41.5t41.5 104.5t-41.5 105t-104.5 42t-104.5 -42t-41.5 -105t41.5 -104.5t104.5 -41.5zM318 562q-112 0 -187 68t-75 181q0 129 121 202q-107 64 -107 183q0 103 71 169.5
t177 66.5t177 -66.5t71 -169.5q0 -119 -107 -183q121 -73 121 -202q0 -113 -75 -181t-187 -68z" />
    <glyph glyph-name="nine.numr" horiz-adv-x="636" 
d="M567 1177q0 -85 -58 -201l-180 -364q-25 -50 -59 -50q-20 0 -37 14.5t-17 35.5q0 19 15 49l140 279q-32 -14 -79 -14q-95 0 -159 69t-64 178q0 116 68.5 187.5t179.5 71.5q112 0 181 -69t69 -186zM451 1175q0 71 -36 112t-96 41t-97 -41t-37 -112t37 -112t97 -41t96 41
t36 112z" />
    <glyph glyph-name="zero.dnom" horiz-adv-x="636" 
d="M73 236v383q0 110 69.5 176.5t175.5 66.5q105 0 175 -66.5t70 -176.5v-383q0 -111 -70 -177.5t-175 -66.5q-106 0 -175.5 66.5t-69.5 177.5zM189 238q0 -65 34.5 -103.5t94.5 -38.5q59 0 94 39.5t35 102.5v378q0 63 -35 102.5t-94 39.5q-60 0 -94.5 -39t-34.5 -103v-378z
" />
    <glyph glyph-name="one.dnom" horiz-adv-x="636" 
d="M130 600q-21 21 -15 47q4 19 29 44l135 135q36 36 73 36q31 0 48 -18q16 -18 16 -58v-714q0 -38 -10 -54q-17 -26 -48 -26t-48 26q-10 16 -10 54v621l-79 -79q-25 -25 -44 -29q-26 -6 -47 15z" />
    <glyph glyph-name="two.dnom" horiz-adv-x="636" 
d="M511 0h-357q-48 0 -65 17q-14 16 -14 37q0 22 30 61l303 392q46 59 46 118q0 61 -34.5 97t-96.5 36q-45 0 -81 -25.5t-46 -72.5q-5 -26 -20 -46q-12 -16 -39 -16q-29 0 -44 21q-9 13 -9 36q0 45 37 105q65 102 202 102q112 0 179 -64t67 -173q0 -49 -16 -87.5t-57 -90.5
l-267 -343h282q35 0 50 -10q21 -14 21 -42t-21 -42q-15 -10 -50 -10z" />
    <glyph glyph-name="three.dnom" horiz-adv-x="636" 
d="M564 624q0 -131 -108 -182q122 -51 122 -201q0 -118 -73.5 -183.5t-185.5 -65.5t-181.5 58.5t-69.5 140.5q0 30 14.5 47.5t41.5 17.5q35 0 46 -38q15 -58 53 -90t96 -32q62 0 102.5 39.5t40.5 106.5q0 66 -37.5 105t-109.5 39q-25 0 -39.5 14.5t-14.5 35.5q0 22 14 36.5
t40 14.5q64 0 98.5 36t34.5 98q0 63 -38 100t-92 37q-93 0 -121 -74q-2 -5 -8.5 -25.5t-11 -29.5t-16 -18.5t-27.5 -9.5q-26 0 -40.5 18t-14.5 46q0 45 30 94q65 103 209 103q110 0 178 -65t68 -173z" />
    <glyph glyph-name="four.dnom" horiz-adv-x="636" 
d="M47 225l294 587q25 50 59 50q20 0 37 -14.5t17 -35.5q0 -19 -15 -49l-265 -529h218v156q0 28 9 40q15 22 42 22t42 -22q9 -12 9 -40v-156h37q35 0 50 -10q21 -14 21 -42t-21 -42q-15 -10 -50 -10h-37v-76q0 -28 -9 -40q-15 -22 -42 -22t-42 22q-9 12 -9 40v76h-289
q-31 0 -46 8q-24 15 -24 43q0 16 14 44z" />
    <glyph glyph-name="five.dnom" horiz-adv-x="636" 
d="M488 750h-287v-218q54 36 143 36q100 0 154 -54q74 -74 74 -229q0 -77 -14.5 -130.5t-56.5 -95.5q-67 -67 -180 -67q-129 0 -194 81q-40 48 -40 110q0 21 9 36q13 22 44 22q32 0 45 -20q5 -10 13 -37q24 -88 123 -88q60 0 94 34q26 26 33.5 63t7.5 92q0 185 -130 185
q-86 0 -121 -48q-14 -19 -23 -25q-13 -8 -32 -8q-24 0 -39 14q-14 13 -14 47v334q0 38 16 54q17 16 55 16h320q35 0 50 -10q21 -14 21 -42t-21 -42q-15 -10 -50 -10z" />
    <glyph glyph-name="six.dnom" horiz-adv-x="636" 
d="M69 247q0 85 58 201l180 364q25 50 59 50q20 0 37 -14.5t17 -35.5q0 -19 -15 -49l-140 -279q32 14 79 14q95 0 159 -69t64 -178q0 -116 -68.5 -187.5t-179.5 -71.5q-112 0 -181 69t-69 186zM185 249q0 -71 36 -112t96 -41t97 41t37 112t-37 112t-97 41t-96 -41t-36 -112z
" />
    <glyph glyph-name="seven.dnom" horiz-adv-x="636" 
d="M80 681v103q0 38 16 54q17 16 55 16h350q52 0 70 -14q17 -14 17 -40q0 -22 -15 -61l-259 -693q-13 -34 -27 -44q-13 -10 -29 -10q-19 0 -35.5 11t-20.5 29t9 52l249 666h-264v-69q0 -38 -10 -54q-17 -26 -48 -26t-48 26q-10 16 -10 54z" />
    <glyph glyph-name="eight.dnom" horiz-adv-x="636" 
d="M318 490q58 0 95 38t37 97t-36 96t-96 37t-96 -37t-36 -96t37 -97t95 -38zM318 96q63 0 104.5 41.5t41.5 104.5t-41.5 105t-104.5 42t-104.5 -42t-41.5 -105t41.5 -104.5t104.5 -41.5zM318 -8q-112 0 -187 68t-75 181q0 129 121 202q-107 64 -107 183q0 103 71 169.5
t177 66.5t177 -66.5t71 -169.5q0 -119 -107 -183q121 -73 121 -202q0 -113 -75 -181t-187 -68z" />
    <glyph glyph-name="nine.dnom" horiz-adv-x="636" 
d="M567 607q0 -85 -58 -201l-180 -364q-25 -50 -59 -50q-20 0 -37 14.5t-17 35.5q0 19 15 49l140 279q-32 -14 -79 -14q-95 0 -159 69t-64 178q0 116 68.5 187.5t179.5 71.5q112 0 181 -69t69 -186zM451 605q0 71 -36 112t-96 41t-97 -41t-37 -112t37 -112t97 -41t96 41
t36 112z" />
    <glyph glyph-name="space.frac" horiz-adv-x="99" 
 />
    <glyph glyph-name="zero.osf" 
d="M522 -12q-169 0 -279.5 109t-110.5 283v434q0 174 110.5 283t279.5 109t279.5 -109t110.5 -283v-434q0 -174 -110.5 -283t-279.5 -109zM522 1076q-115 0 -179.5 -72.5t-64.5 -188.5v-436q0 -116 64.5 -188.5t179.5 -72.5t179.5 72.5t64.5 188.5v436q0 116 -64.5 188.5
t-179.5 72.5z" />
    <glyph glyph-name="one.osf" horiz-adv-x="747" 
d="M372 90v927l-174 -158q-30 -27 -54 -30q-33 -4 -54 21q-19 20 -14 51q4 25 36 53l240 211q50 44 90 44q35 0 54 -22q22 -24 22 -71v-1026q0 -46 -13 -67q-19 -31 -60 -31t-60 31q-13 21 -13 67z" />
    <glyph glyph-name="two.osf" horiz-adv-x="1011" 
d="M819 130q44 0 61 -11q28 -19 28 -54t-28 -54q-17 -11 -61 -11h-629q-28 0 -41 1t-28.5 6t-25.5 15q-19 19 -19 48q0 50 43 90l464 449q139 133 139 271q0 100 -69 168t-176 68q-194 0 -245 -189q-13 -49 -27 -68q-17 -22 -50 -22q-38 0 -55 27q-14 20 -14 49q0 36 18 84
t42 83q114 166 331 166q175 0 282 -103.5t107 -262.5q0 -99 -46.5 -181.5t-126.5 -161.5l-413 -407h539z" />
    <glyph glyph-name="three.osf" horiz-adv-x="1033" 
d="M414 499q0 33 28 52q18 11 53 11q122 1 185.5 69.5t63.5 189.5q0 118 -69.5 186t-179.5 68q-99 0 -157.5 -43t-79.5 -137q-10 -43 -31 -63q-18 -16 -45 -16q-46 0 -59 44q-8 27 -5 58q5 49 31 100t64 87q103 100 282 100q173 0 284.5 -103t111.5 -277q0 -234 -198 -320
q104 -35 162 -121.5t58 -226.5q0 -120 -58 -212t-153.5 -140t-211.5 -48q-110 0 -182 25.5t-129 80.5q-93 90 -93 211q0 45 21 66q19 21 51 21q28 0 44 -16q21 -20 28 -59q18 -104 82.5 -151.5t176.5 -47.5q118 0 198 75t80 199q0 130 -69.5 202t-202.5 73q-35 0 -53 11
q-28 19 -28 52z" />
    <glyph glyph-name="four.osf" horiz-adv-x="1076" 
d="M679 59h-533q-46 0 -67 15q-27 19 -27 54q0 22 18 58l509 1019q15 31 31 46.5t41 15.5q26 0 47 -18.5t21 -44.5q0 -24 -18 -60l-478 -955h456v323q0 46 13 67q19 31 60 31t60 -31q13 -21 13 -67v-323h110q44 0 61 -11q28 -19 28 -54t-28 -54q-17 -11 -61 -11h-110v-215
q0 -46 -13 -67q-19 -31 -60 -31t-60 31q-13 21 -13 67v215z" />
    <glyph glyph-name="five.osf" horiz-adv-x="1036" 
d="M884 1129q0 -35 -28 -54q-17 -11 -61 -11h-509v-446q94 96 256 96q156 0 247 -89q121 -121 121 -384q0 -126 -23 -216.5t-93 -160.5q-106 -106 -286 -106q-181 0 -285 98q-43 42 -71 100t-28 113q0 35 19 57t51 22q30 0 47 -17q19 -17 32 -71q43 -172 235 -172
q114 0 178 64q35 35 53 88t21.5 94.5t3.5 106.5q0 57 -5 102.5t-21 93t-42 79t-70.5 51.5t-104.5 20q-76 0 -129.5 -24t-93.5 -81q-16 -22 -30 -32q-15 -11 -42 -11q-31 0 -50 19q-20 19 -20 63v585q0 48 20 68t68 20h551q44 0 61 -11q28 -19 28 -54z" />
    <glyph glyph-name="six.osf" horiz-adv-x="1054" 
d="M654 1401q0 -24 -18 -60l-251 -499q69 34 167 34q180 0 290 -122t110 -314q0 -198 -116 -325t-308 -127q-195 0 -310.5 120.5t-115.5 319.5q0 154 89 331l323 643q15 30 31 46t41 16q26 0 47 -18.5t21 -44.5zM806 432q0 138 -74 230t-206 92q-127 0 -202.5 -88
t-75.5 -234q0 -145 75.5 -232.5t202.5 -87.5t203.5 87.5t76.5 232.5z" />
    <glyph glyph-name="seven.osf" horiz-adv-x="1003" 
d="M929 1067l-630 -1259q-19 -40 -40 -53q-15 -9 -32 -9q-26 0 -47 18.5t-21 44.5q0 22 19 60l598 1195h-542v-133q0 -46 -13 -67q-19 -31 -60 -31t-60 31q-13 21 -13 67v175q0 48 20 68t68 20h676q47 0 68 -15q27 -19 27 -54q0 -22 -18 -58z" />
    <glyph glyph-name="eight.osf" horiz-adv-x="1074" 
d="M537 -12q-180 0 -300.5 114t-120.5 291q0 119 58.5 206t156.5 140q-188 106 -188 315q0 167 111.5 274.5t282.5 107.5t282.5 -107.5t111.5 -274.5q0 -209 -188 -315q98 -53 156.5 -140t58.5 -206q0 -177 -120.5 -291t-300.5 -114zM537 1306q-109 0 -178.5 -72t-69.5 -182
t69.5 -182t178.5 -72t178.5 72t69.5 182t-69.5 182t-178.5 72zM537 672q-117 0 -196 -79.5t-79 -197.5q0 -119 79 -198t196 -79t196 79t79 198q0 118 -79 197.5t-196 79.5z" />
    <glyph glyph-name="nine.osf" horiz-adv-x="1054" 
d="M400 -207q0 24 18 60l251 499q-69 -34 -167 -34q-180 0 -290 122t-110 314q0 198 116 325t308 127q195 0 310.5 -120.5t115.5 -319.5q0 -154 -89 -331l-323 -643q-15 -30 -31 -46t-41 -16q-26 0 -47 18.5t-21 44.5zM248 762q0 -138 74 -230t206 -92q127 0 202.5 88
t75.5 234q0 145 -75.5 232.5t-202.5 87.5t-203.5 -87.5t-76.5 -232.5z" />
    <glyph glyph-name="zero.lf" 
d="M522 -12q-169 0 -279.5 109t-110.5 283v664q0 174 110.5 283t279.5 109t279.5 -109t110.5 -283v-664q0 -174 -110.5 -283t-279.5 -109zM522 1306q-115 0 -179.5 -72.5t-64.5 -188.5v-666q0 -116 64.5 -188.5t179.5 -72.5t179.5 72.5t64.5 188.5v666q0 116 -64.5 188.5
t-179.5 72.5z" />
    <glyph glyph-name="one.lf" horiz-adv-x="746" 
d="M393 1215l-168 -167q-35 -35 -61 -35q-28 0 -49 21q-20 20 -20 47q0 17 8 30.5t31 36.5l244 244q40 40 82 40q33 0 57 -22q22 -21 22 -82v-1238q0 -46 -13 -67q-19 -31 -60 -31t-60 31q-13 21 -13 67v1125z" />
    <glyph glyph-name="two.lf" horiz-adv-x="974" 
d="M73 70q0 31 44 88l511 661q49 63 71.5 121t22.5 130q0 107 -64 171.5t-179 64.5q-91 0 -158 -46.5t-88 -144.5q-9 -42 -29 -66q-16 -21 -49 -21q-34 0 -52 24q-16 21 -16 52q0 49 28 114.5t79 114.5q109 103 284 103q179 0 284.5 -97t105.5 -268q0 -94 -30.5 -165.5
t-101.5 -163.5l-473 -612h524q42 0 61 -12q28 -17 28 -53q0 -35 -28 -54q-19 -11 -61 -11h-601q-28 0 -41 1t-28.5 6t-25.5 15q-18 18 -18 48z" />
    <glyph glyph-name="three.lf" horiz-adv-x="1026" 
d="M413 730q0 33 28 52q18 11 53 11q122 1 185.5 69.5t63.5 189.5q0 118 -69.5 186t-179.5 68q-99 0 -157.5 -43t-79.5 -137q-10 -43 -31 -63q-18 -16 -45 -16q-46 0 -59 44q-8 27 -5 58q5 49 31 100t64 87q103 100 282 100q173 0 284.5 -103t111.5 -277q0 -234 -198 -320
q104 -35 162 -121.5t58 -226.5q0 -120 -58 -212t-153.5 -140t-211.5 -48q-110 0 -182 25.5t-129 80.5q-93 90 -93 211q0 45 21 66q19 21 51 21q28 0 44 -16q21 -20 28 -59q18 -104 82.5 -151.5t176.5 -47.5q118 0 198 75t80 199q0 130 -69.5 202t-202.5 73q-35 0 -53 11
q-28 19 -28 52z" />
    <glyph glyph-name="four.lf" horiz-adv-x="1034" 
d="M625 230h-479q-46 0 -67 15q-27 19 -27 54q0 22 18 58l509 1013q15 30 31 46t41 16q26 0 47 -18.5t21 -44.5q0 -24 -18 -60l-475 -949h399v316q0 46 13 67q19 31 60 31t60 -31q13 -21 13 -67v-316h108q44 0 61 -11q28 -19 28 -54t-28 -54q-17 -11 -61 -11h-108v-140
q0 -46 -13 -67q-19 -31 -60 -31t-60 31q-13 21 -13 67v140z" />
    <glyph glyph-name="five.lf" horiz-adv-x="1034" 
d="M882 1359q0 -35 -28 -54q-17 -11 -61 -11h-509v-446q94 96 256 96q156 0 247 -89q121 -121 121 -384q0 -126 -23 -216.5t-93 -160.5q-106 -106 -286 -106q-181 0 -285 98q-43 42 -71 100t-28 113q0 35 19 57t51 22q30 0 47 -17q19 -17 32 -71q43 -172 235 -172
q114 0 178 64q35 35 53 88t21.5 94.5t3.5 106.5q0 57 -5 102.5t-21 93t-42 79t-70.5 51.5t-104.5 20q-76 0 -129.5 -24t-93.5 -81q-16 -22 -30 -32q-15 -11 -42 -11q-31 0 -50 19q-20 19 -20 63v585q0 48 20 68t68 20h551q44 0 61 -11q28 -19 28 -54z" />
    <glyph glyph-name="six.lf" horiz-adv-x="979" 
d="M649 1369q0 -24 -18 -60l-260 -521q63 26 144 26q166 0 268.5 -113.5t102.5 -290.5q0 -185 -107.5 -303.5t-287.5 -118.5q-182 0 -290 113t-108 298q0 138 89 316l327 655q15 30 31 46t41 16q26 0 47 -18.5t21 -44.5zM239 404q0 -131 68 -208.5t182 -77.5t183 77.5
t69 208.5q0 123 -67 204t-185 81q-114 0 -182 -76.5t-68 -208.5z" />
    <glyph glyph-name="seven.lf" horiz-adv-x="941" 
d="M278 110l443 1184h-494v-133q0 -46 -13 -67q-19 -31 -60 -31t-60 31q-13 21 -13 67v175q0 48 20 68t68 20h605q64 0 87 -21q20 -19 20 -50q0 -21 -19 -72l-456 -1219q-17 -45 -34 -58q-16 -12 -36 -12q-25 1 -45.5 15t-24.5 37t12 66z" />
    <glyph glyph-name="eight.lf" horiz-adv-x="1080" 
d="M540 -12q-180 0 -300.5 114t-120.5 291q0 119 58.5 206t156.5 140q-188 106 -188 315q0 167 111.5 274.5t282.5 107.5t282.5 -107.5t111.5 -274.5q0 -209 -188 -315q98 -53 156.5 -140t58.5 -206q0 -177 -120.5 -291t-300.5 -114zM540 1306q-109 0 -178.5 -72t-69.5 -182
t69.5 -182t178.5 -72t178.5 72t69.5 182t-69.5 182t-178.5 72zM540 672q-117 0 -196 -79.5t-79 -197.5q0 -119 79 -198t196 -79t196 79t79 198q0 118 -79 197.5t-196 79.5z" />
    <glyph glyph-name="nine.lf" horiz-adv-x="979" 
d="M330 55q0 24 18 60l260 521q-63 -26 -144 -26q-166 0 -268.5 113.5t-102.5 290.5q0 185 107.5 303.5t287.5 118.5q182 0 290 -113t108 -298q0 -138 -89 -316l-327 -655q-15 -30 -31 -46t-41 -16q-26 0 -47 18.5t-21 44.5zM740 1020q0 131 -68 208.5t-182 77.5t-183 -77.5
t-69 -208.5q0 -123 67 -204t185 -81q114 0 182 76.5t68 208.5z" />
    <glyph glyph-name="zero.tosf" 
d="M522 -12q-169 0 -279.5 109t-110.5 283v434q0 174 110.5 283t279.5 109t279.5 -109t110.5 -283v-434q0 -174 -110.5 -283t-279.5 -109zM522 1076q-115 0 -179.5 -72.5t-64.5 -188.5v-436q0 -116 64.5 -188.5t179.5 -72.5t179.5 72.5t64.5 188.5v436q0 116 -64.5 188.5
t-179.5 72.5z" />
    <glyph glyph-name="one.tosf" 
d="M516 90v927l-174 -158q-30 -27 -54 -30q-33 -4 -54 21q-19 20 -14 51q4 25 36 53l240 211q50 44 90 44q35 0 54 -22q22 -24 22 -71v-1026q0 -46 -13 -67q-19 -31 -60 -31t-60 31q-13 21 -13 67z" />
    <glyph glyph-name="two.tosf" 
d="M855 130q44 0 61 -11q28 -19 28 -54t-28 -54q-17 -11 -61 -11h-629q-28 0 -41 1t-28.5 6t-25.5 15q-19 19 -19 48q0 50 43 90l464 449q139 133 139 271q0 100 -69 168t-176 68q-194 0 -245 -189q-13 -49 -27 -68q-17 -22 -50 -22q-38 0 -55 27q-14 20 -14 49q0 36 18 84
t42 83q114 166 331 166q175 0 282 -103.5t107 -262.5q0 -99 -46.5 -181.5t-126.5 -161.5l-413 -407h539z" />
    <glyph glyph-name="three.tosf" 
d="M429 499q0 33 28 52q18 11 53 11q122 1 185.5 69.5t63.5 189.5q0 118 -69.5 186t-179.5 68q-99 0 -157.5 -43t-79.5 -137q-10 -43 -31 -63q-18 -16 -45 -16q-46 0 -59 44q-8 27 -5 58q5 49 31 100t64 87q103 100 282 100q173 0 284.5 -103t111.5 -277q0 -234 -198 -320
q104 -35 162 -121.5t58 -226.5q0 -120 -58 -212t-153.5 -140t-211.5 -48q-110 0 -182 25.5t-129 80.5q-93 90 -93 211q0 45 21 66q19 21 51 21q28 0 44 -16q21 -20 28 -59q18 -104 82.5 -151.5t176.5 -47.5q118 0 198 75t80 199q0 130 -69.5 202t-202.5 73q-35 0 -53 11
q-28 19 -28 52z" />
    <glyph glyph-name="four.tosf" 
d="M664 58h-526q-46 0 -67 15q-27 19 -27 54q0 22 18 58l508 1020q15 31 31 46.5t41 15.5q26 0 47 -18.5t21 -44.5q0 -24 -18 -60l-478 -956h450v315q0 46 13 67q19 31 60 31t60 -31q13 -21 13 -67v-315h101q44 0 61 -11q28 -19 28 -54t-28 -54q-17 -11 -61 -11h-101v-214
q0 -46 -13 -67q-19 -31 -60 -31t-60 31q-13 21 -13 67v214z" />
    <glyph glyph-name="five.tosf" 
d="M893 1129q0 -35 -28 -54q-17 -11 -61 -11h-509v-446q94 96 256 96q156 0 247 -89q121 -121 121 -384q0 -126 -23 -216.5t-93 -160.5q-106 -106 -286 -106q-181 0 -285 98q-43 42 -71 100t-28 113q0 35 19 57t51 22q30 0 47 -17q19 -17 32 -71q43 -172 235 -172
q114 0 178 64q35 35 53 88t21.5 94.5t3.5 106.5q0 57 -5 102.5t-21 93t-42 79t-70.5 51.5t-104.5 20q-76 0 -129.5 -24t-93.5 -81q-16 -22 -30 -32q-15 -11 -42 -11q-31 0 -50 19q-20 19 -20 63v585q0 48 20 68t68 20h551q44 0 61 -11q28 -19 28 -54z" />
    <glyph glyph-name="six.tosf" 
d="M649 1401q0 -24 -18 -60l-251 -499q69 34 167 34q180 0 290 -122t110 -314q0 -198 -116 -325t-308 -127q-195 0 -310.5 120.5t-115.5 319.5q0 154 89 331l323 643q15 30 31 46t41 16q26 0 47 -18.5t21 -44.5zM801 432q0 138 -74 230t-206 92q-127 0 -202.5 -88
t-75.5 -234q0 -145 75.5 -232.5t202.5 -87.5t203.5 87.5t76.5 232.5z" />
    <glyph glyph-name="seven.tosf" 
d="M957 1067l-630 -1259q-19 -40 -40 -53q-15 -9 -32 -9q-26 0 -47 18.5t-21 44.5q0 22 19 60l598 1195h-542v-133q0 -46 -13 -67q-19 -31 -60 -31t-60 31q-13 21 -13 67v175q0 48 20 68t68 20h676q47 0 68 -15q27 -19 27 -54q0 -22 -18 -58z" />
    <glyph glyph-name="eight.tosf" 
d="M522 -12q-180 0 -300.5 114t-120.5 291q0 119 58.5 206t156.5 140q-188 106 -188 315q0 167 111.5 274.5t282.5 107.5t282.5 -107.5t111.5 -274.5q0 -209 -188 -315q98 -53 156.5 -140t58.5 -206q0 -177 -120.5 -291t-300.5 -114zM522 1306q-109 0 -178.5 -72t-69.5 -182
t69.5 -182t178.5 -72t178.5 72t69.5 182t-69.5 182t-178.5 72zM522 672q-117 0 -196 -79.5t-79 -197.5q0 -119 79 -198t196 -79t196 79t79 198q0 118 -79 197.5t-196 79.5z" />
    <glyph glyph-name="nine.tosf" 
d="M395 -207q0 24 18 60l251 499q-69 -34 -167 -34q-180 0 -290 122t-110 314q0 198 116 325t308 127q195 0 310.5 -120.5t115.5 -319.5q0 -154 -89 -331l-323 -643q-15 -30 -31 -46t-41 -16q-26 0 -47 18.5t-21 44.5zM243 762q0 -138 74 -230t206 -92q127 0 202.5 88
t75.5 234q0 145 -75.5 232.5t-202.5 87.5t-203.5 -87.5t-76.5 -232.5z" />
    <glyph glyph-name="uni2007.tosf" 
 />
    <glyph glyph-name="hyphen.case" horiz-adv-x="852" 
d="M708 717q0 -35 -28 -54q-17 -11 -61 -11h-386q-44 0 -61 11q-28 19 -28 54t28 54q17 11 61 11h386q44 0 61 -11q28 -19 28 -54z" />
    <glyph glyph-name="exclamdown.case" horiz-adv-x="632" 
d="M209 97v831q0 50 14 72q20 32 63 32t63 -32q14 -22 14 -72v-831q0 -50 -14 -72q-20 -32 -63 -32t-63 32q-14 22 -14 72zM186 1331q0 42 29 71t71 29t71.5 -29t29.5 -71t-29.5 -71.5t-71.5 -29.5t-71 29.5t-29 71.5z" />
    <glyph glyph-name="guillemotleft.case" horiz-adv-x="1148" 
d="M513 960l-242 -242l242 -242q31 -31 37 -54q8 -33 -19 -60t-60 -19q-23 6 -54 37l-338 338l338 338q31 31 54 37q33 8 60 -19t19 -60q-6 -23 -37 -54zM965 960l-242 -242l242 -242q31 -31 37 -54q8 -33 -19 -60t-60 -19q-23 6 -54 37l-338 338l338 338q31 31 54 37
q33 8 60 -19t19 -60q-6 -23 -37 -54z" />
    <glyph glyph-name="uni00AD.case" horiz-adv-x="852" 
d="M708 718q0 -35 -28 -54q-17 -11 -61 -11h-386q-44 0 -61 11q-28 19 -28 54t28 54q17 11 61 11h386q44 0 61 -11q28 -19 28 -54z" />
    <glyph glyph-name="periodcentered.case" horiz-adv-x="614" 
d="M193 718q0 47 33.5 80.5t80.5 33.5t80.5 -33.5t33.5 -80.5t-33.5 -80.5t-80.5 -33.5t-80.5 33.5t-33.5 80.5z" />
    <glyph glyph-name="guillemotright.case" horiz-adv-x="1148" 
d="M425 718l-242 242q-31 31 -37 54q-8 33 19 60t60 19q23 -6 54 -37l338 -338l-338 -338q-31 -31 -54 -37q-33 -8 -60 19t-19 60q6 23 37 54zM878 720l-242 242q-31 31 -37 54q-8 33 19 60t60 19q23 -6 54 -37l338 -338l-338 -338q-31 -31 -54 -37q-33 -8 -60 19t-19 60
q6 23 37 54z" />
    <glyph glyph-name="questiondown.case" horiz-adv-x="994" 
d="M556 1335q0 -42 -29 -71.5t-71 -29.5t-71.5 29.5t-29.5 71.5t29.5 71t71.5 29t71 -29t29 -71zM338 821q38 56 43 143q2 42 22 62t52 20q38 0 58 -28q15 -22 15 -60q0 -64 -12 -104.5t-50 -94.5l-163 -232q-65 -92 -65 -172q0 -100 65.5 -167t164.5 -67q101 0 165 63
q54 52 68 143q5 35 19 53q18 23 55 23q33 0 51 -22q16 -20 16 -56q0 -56 -28 -118.5t-74 -109.5q-48 -49 -118.5 -76.5t-152.5 -27.5q-161 0 -269 102t-108 260q0 67 22.5 121t68.5 121z" />
    <glyph glyph-name="endash.case" 
d="M947 718q0 -35 -28 -54q-17 -11 -61 -11h-672q-44 0 -61 11q-28 19 -28 54t28 54q17 11 61 11h672q44 0 61 -11q28 -19 28 -54z" />
    <glyph glyph-name="emdash.case" horiz-adv-x="1826" 
d="M1729 717q0 -35 -28 -54q-17 -11 -61 -11h-1454q-44 0 -61 11q-28 19 -28 54t28 54q17 11 61 11h1454q44 0 61 -11q28 -19 28 -54z" />
    <glyph glyph-name="bullet.case" horiz-adv-x="1046" 
d="M197 718q0 135 95.5 230.5t230.5 95.5t230.5 -95.5t95.5 -230.5t-95.5 -230.5t-230.5 -95.5t-230.5 95.5t-95.5 230.5z" />
    <glyph glyph-name="guilsinglleft.case" horiz-adv-x="696" 
d="M513 960l-242 -242l242 -242q31 -31 37 -54q8 -33 -19 -60t-60 -19q-23 6 -54 37l-338 338l338 338q31 31 54 37q33 8 60 -19t19 -60q-6 -23 -37 -54z" />
    <glyph glyph-name="guilsinglright.case" horiz-adv-x="696" 
d="M425 718l-242 242q-31 31 -37 54q-8 33 19 60t60 19q23 -6 54 -37l338 -338l-338 -338q-31 -31 -54 -37q-33 -8 -60 19t-19 60q6 23 37 54z" />
    <glyph glyph-name="zero.zero" 
d="M522 -12q-169 0 -279.5 109t-110.5 283v664q0 174 110.5 283t279.5 109t279.5 -109t110.5 -283v-664q0 -174 -110.5 -283t-279.5 -109zM522 1306q-115 0 -179.5 -72.5t-64.5 -188.5v-666q0 -116 64.5 -188.5t179.5 -72.5t179.5 72.5t64.5 188.5v666q0 116 -64.5 188.5
t-179.5 72.5zM432 714q0 38 26 64t64 26t64 -26t26 -64t-26 -64t-64 -26t-64 26t-26 64z" />
    <glyph glyph-name="zero.osf.zero" 
d="M522 -12q-169 0 -279.5 109t-110.5 283v434q0 174 110.5 283t279.5 109t279.5 -109t110.5 -283v-434q0 -174 -110.5 -283t-279.5 -109zM522 1076q-115 0 -179.5 -72.5t-64.5 -188.5v-436q0 -116 64.5 -188.5t179.5 -72.5t179.5 72.5t64.5 188.5v436q0 116 -64.5 188.5
t-179.5 72.5zM432 594q0 38 26 64t64 26t64 -26t26 -64t-26 -64t-64 -26t-64 26t-26 64z" />
    <glyph glyph-name="zero.lf.zero" 
d="M522 -12q-169 0 -279.5 109t-110.5 283v664q0 174 110.5 283t279.5 109t279.5 -109t110.5 -283v-664q0 -174 -110.5 -283t-279.5 -109zM522 1306q-115 0 -179.5 -72.5t-64.5 -188.5v-666q0 -116 64.5 -188.5t179.5 -72.5t179.5 72.5t64.5 188.5v666q0 116 -64.5 188.5
t-179.5 72.5zM432 714q0 38 26 64t64 26t64 -26t26 -64t-26 -64t-64 -26t-64 26t-26 64z" />
    <glyph glyph-name="zero.tosf.zero" 
d="M522 -12q-169 0 -279.5 109t-110.5 283v434q0 174 110.5 283t279.5 109t279.5 -109t110.5 -283v-434q0 -174 -110.5 -283t-279.5 -109zM522 1076q-115 0 -179.5 -72.5t-64.5 -188.5v-436q0 -116 64.5 -188.5t179.5 -72.5t179.5 72.5t64.5 188.5v436q0 116 -64.5 188.5
t-179.5 72.5zM432 596q0 38 26 64t64 26t64 -26t26 -64t-26 -64t-64 -26t-64 26t-26 64z" />
    <glyph glyph-name="cedilla.ss01" horiz-adv-x="1064" 
d="M383 -119q0 23 16 35q13 10 43 10q94 0 150.5 -56t56.5 -136t-56.5 -136t-150.5 -56q-30 0 -43 10q-16 12 -16 35q0 24 16 36q14 9 43 9q50 0 78 30.5t28 71.5t-28 71.5t-78 30.5q-29 0 -43 9q-16 12 -16 36z" />
    <glyph glyph-name="Ccedilla.ss01" horiz-adv-x="1276" 
d="M152 712q0 138 3.5 212.5t18.5 148.5t43.5 123t79.5 100q138 140 354 140q242 0 382 -171q42 -51 66.5 -110t24.5 -97q0 -36 -20 -56t-51 -20q-29 0 -47 16q-21 18 -36 64q-39 114 -121 176t-199 62q-145 0 -244 -102q-65 -66 -82.5 -161t-17.5 -325t17.5 -325t82.5 -161
q99 -102 244 -102q117 0 199 62t121 176q15 46 36 64q18 16 47 16q31 0 51 -20t20 -56q0 -38 -24.5 -97t-66.5 -110q-140 -171 -382 -171q-216 0 -354 140q-51 51 -79.5 100t-43.5 123t-18.5 148.5t-3.5 212.5zM524 -119q0 23 16 35q13 10 43 10q94 0 150.5 -56t56.5 -136
t-56.5 -136t-150.5 -56q-30 0 -43 10q-16 12 -16 35q0 24 16 36q14 9 43 9q50 0 78 30.5t28 71.5t-28 71.5t-78 30.5q-29 0 -43 9q-16 12 -16 36z" />
    <glyph glyph-name="ccedilla.ss01" horiz-adv-x="978" 
d="M126 492q0 245 119.5 374.5t315.5 129.5q74 0 130 -19t110 -62q40 -31 55 -49.5t15 -43.5q0 -26 -21 -47q-20 -18 -45 -18q-24 0 -70 38q-48 40 -86.5 55.5t-87.5 15.5q-147 0 -225 -109q-34 -49 -49 -110t-15 -155q0 -93 15 -154t49 -110q78 -110 225 -110q50 0 89 15.5
t85 55.5q43 38 70 38q25 0 45 -18q21 -21 21 -47q0 -25 -17 -46t-53 -48q-101 -80 -240 -80q-196 0 -315.5 130t-119.5 374zM411 -119q0 23 16 35q13 10 43 10q94 0 150.5 -56t56.5 -136t-56.5 -136t-150.5 -56q-30 0 -43 10q-16 12 -16 35q0 24 16 36q14 9 43 9
q50 0 78 30.5t28 71.5t-28 71.5t-78 30.5q-29 0 -43 9q-16 12 -16 36z" />
    <glyph glyph-name="ogonek.ss01" horiz-adv-x="1000" 
d="M613 -119q0 -24 -16 -36q-14 -9 -43 -9q-50 0 -78 -30.5t-28 -71.5t28 -71.5t78 -30.5q29 0 43 -9q16 -12 16 -36q0 -23 -16 -35q-13 -10 -43 -10q-94 0 -150.5 56t-56.5 136t56.5 136t150.5 56q30 0 43 -10q16 -12 16 -35z" />
    <glyph glyph-name="a.ss02" horiz-adv-x="1095" 
d="M768 492q0 64 -5 113.5t-20.5 100.5t-41.5 84.5t-72 54.5t-108 21t-108 -21t-72 -54.5t-41.5 -84.5t-20.5 -100.5t-5 -113.5t5 -113.5t20.5 -100.5t41.5 -84.5t72 -54.5t108 -21t108 21t72 54.5t41.5 84.5t20.5 100.5t5 113.5zM914 894v-804q0 -46 -13 -67
q-19 -31 -60 -31t-60 31q-13 21 -13 67v28q-58 -74 -123.5 -102t-154.5 -28q-154 0 -240 86q-122 122 -122 418t122 418q86 86 240 86q89 0 154.5 -28t123.5 -102v28q0 46 13 67q19 31 60 31t60 -31q13 -21 13 -67z" />
    <glyph glyph-name="agrave.ss02" horiz-adv-x="1095" 
d="M768 492q0 64 -5 113.5t-20.5 100.5t-41.5 84.5t-72 54.5t-108 21t-108 -21t-72 -54.5t-41.5 -84.5t-20.5 -100.5t-5 -113.5t5 -113.5t20.5 -100.5t41.5 -84.5t72 -54.5t108 -21t108 21t72 54.5t41.5 84.5t20.5 100.5t5 113.5zM914 894v-804q0 -46 -13 -67
q-19 -31 -60 -31t-60 31q-13 21 -13 67v28q-58 -74 -123.5 -102t-154.5 -28q-154 0 -240 86q-122 122 -122 418t122 418q86 86 240 86q89 0 154.5 -28t123.5 -102v28q0 46 13 67q19 31 60 31t60 -31q13 -21 13 -67zM330 1446q0 37 34 58q18 11 38 11q22 0 38.5 -13t34.5 -43
l97 -155q25 -40 25 -62q0 -37 -34 -58q-18 -11 -38 -11q-22 0 -38.5 13t-34.5 43l-97 155q-25 40 -25 62z" />
    <glyph glyph-name="aacute.ss02" horiz-adv-x="1095" 
d="M768 492q0 64 -5 113.5t-20.5 100.5t-41.5 84.5t-72 54.5t-108 21t-108 -21t-72 -54.5t-41.5 -84.5t-20.5 -100.5t-5 -113.5t5 -113.5t20.5 -100.5t41.5 -84.5t72 -54.5t108 -21t108 21t72 54.5t41.5 84.5t20.5 100.5t5 113.5zM914 894v-804q0 -46 -13 -67
q-19 -31 -60 -31t-60 31q-13 21 -13 67v28q-58 -74 -123.5 -102t-154.5 -28q-154 0 -240 86q-122 122 -122 418t122 418q86 86 240 86q89 0 154.5 -28t123.5 -102v28q0 46 13 67q19 31 60 31t60 -31q13 -21 13 -67zM495 1303l102 163q18 30 33 41q17 12 36 12q20 0 36 -11
q35 -21 33 -57q-1 -22 -24 -57l-102 -163q-18 -30 -33 -41q-16 -12 -36 -12t-36 11q-35 21 -33 57q1 22 24 57z" />
    <glyph glyph-name="acircumflex.ss02" horiz-adv-x="1095" 
d="M768 492q0 64 -5 113.5t-20.5 100.5t-41.5 84.5t-72 54.5t-108 21t-108 -21t-72 -54.5t-41.5 -84.5t-20.5 -100.5t-5 -113.5t5 -113.5t20.5 -100.5t41.5 -84.5t72 -54.5t108 -21t108 21t72 54.5t41.5 84.5t20.5 100.5t5 113.5zM914 894v-804q0 -46 -13 -67
q-19 -31 -60 -31t-60 31q-13 21 -13 67v28q-58 -74 -123.5 -102t-154.5 -28q-154 0 -240 86q-122 122 -122 418t122 418q86 86 240 86q89 0 154.5 -28t123.5 -102v28q0 46 13 67q19 31 60 31t60 -31q13 -21 13 -67zM532 1360l-155 -155q-27 -27 -49 -33q-30 -6 -53 17
q-24 24 -17 54q6 23 32 49l187 186q27 27 55 27t55 -27l187 -186q26 -26 32 -49q7 -30 -17 -54q-23 -23 -53 -17q-22 6 -49 33z" />
    <glyph glyph-name="atilde.ss02" horiz-adv-x="1095" 
d="M768 492q0 64 -5 113.5t-20.5 100.5t-41.5 84.5t-72 54.5t-108 21t-108 -21t-72 -54.5t-41.5 -84.5t-20.5 -100.5t-5 -113.5t5 -113.5t20.5 -100.5t41.5 -84.5t72 -54.5t108 -21t108 21t72 54.5t41.5 84.5t20.5 100.5t5 113.5zM914 894v-804q0 -46 -13 -67
q-19 -31 -60 -31t-60 31q-13 21 -13 67v28q-58 -74 -123.5 -102t-154.5 -28q-154 0 -240 86q-122 122 -122 418t122 418q86 86 240 86q89 0 154.5 -28t123.5 -102v28q0 46 13 67q19 31 60 31t60 -31q13 -21 13 -67zM517 1258q-70 41 -111 41q-24 0 -42.5 -6.5t-45.5 -29.5
q-31 -26 -51 -26q-22 0 -37 15t-15 39q0 30 36 61q72 62 153 62q41 0 70.5 -10.5t72.5 -35.5q70 -41 111 -41q24 0 42.5 6.5t45.5 29.5q31 26 51 26q22 0 37 -15t15 -39q0 -30 -36 -61q-72 -62 -153 -62q-41 0 -70.5 10.5t-72.5 35.5z" />
    <glyph glyph-name="adieresis.ss02" horiz-adv-x="1095" 
d="M768 492q0 64 -5 113.5t-20.5 100.5t-41.5 84.5t-72 54.5t-108 21t-108 -21t-72 -54.5t-41.5 -84.5t-20.5 -100.5t-5 -113.5t5 -113.5t20.5 -100.5t41.5 -84.5t72 -54.5t108 -21t108 21t72 54.5t41.5 84.5t20.5 100.5t5 113.5zM914 894v-804q0 -46 -13 -67
q-19 -31 -60 -31t-60 31q-13 21 -13 67v28q-58 -74 -123.5 -102t-154.5 -28q-154 0 -240 86q-122 122 -122 418t122 418q86 86 240 86q89 0 154.5 -28t123.5 -102v28q0 46 13 67q19 31 60 31t60 -31q13 -21 13 -67zM228 1289q0 38 26.5 64.5t63.5 26.5q38 0 64.5 -27
t26.5 -64t-26.5 -63.5t-64.5 -26.5t-64 26.5t-26 63.5zM655 1289q0 38 26.5 64.5t63.5 26.5t64 -27t27 -64t-26.5 -63.5t-64.5 -26.5q-37 0 -63.5 26.5t-26.5 63.5z" />
    <glyph glyph-name="aring.ss02" horiz-adv-x="1095" 
d="M768 492q0 64 -5 113.5t-20.5 100.5t-41.5 84.5t-72 54.5t-108 21t-108 -21t-72 -54.5t-41.5 -84.5t-20.5 -100.5t-5 -113.5t5 -113.5t20.5 -100.5t41.5 -84.5t72 -54.5t108 -21t108 21t72 54.5t41.5 84.5t20.5 100.5t5 113.5zM914 894v-804q0 -46 -13 -67
q-19 -31 -60 -31t-60 31q-13 21 -13 67v28q-58 -74 -123.5 -102t-154.5 -28q-154 0 -240 86q-122 122 -122 418t122 418q86 86 240 86q89 0 154.5 -28t123.5 -102v28q0 46 13 67q19 31 60 31t60 -31q13 -21 13 -67zM295 1374q0 98 69.5 167.5t167.5 69.5t167.5 -69.5
t69.5 -167.5t-69.5 -167.5t-167.5 -69.5t-167.5 69.5t-69.5 167.5zM394 1374q0 -57 40.5 -97.5t97.5 -40.5t97.5 40.5t40.5 97.5t-40.5 97.5t-97.5 40.5t-97.5 -40.5t-40.5 -97.5z" />
    <glyph glyph-name="ae.ss02" horiz-adv-x="1699" 
d="M1493 455h-581q0 -163 75.5 -252t216.5 -89q127 0 211 71q42 35 68 35q23 0 42.5 -19t19.5 -44q0 -49 -102 -112q-96 -57 -245 -57q-177 0 -285 93q-1 -38 -13 -57q-19 -31 -60 -31t-60 31q-13 21 -13 67v23q-57 -71 -123 -98.5t-154 -27.5q-75 0 -137.5 23.5
t-102.5 63.5q-122 122 -122 417q0 296 122 418q40 40 102.5 63t137.5 23q88 0 154 -27.5t123 -99.5v26q0 46 13 67q19 31 60 31t60 -31q12 -20 13 -59q102 93 260 93q186 0 294 -124.5t110 -331.5q0 -46 -20 -66q-19 -19 -64 -19zM274 492q0 -64 5 -113.5t20.5 -101
t41.5 -85t72 -55t108 -21.5t107.5 21.5t71.5 55t41.5 85t20.5 101t5 113.5t-5 113.5t-20.5 101.5t-41.5 85.5t-71.5 55t-107.5 21.5t-108 -21.5t-72 -55t-41.5 -85.5t-20.5 -101.5t-5 -113.5zM912 565h522q-4 94 -31 160q-28 68 -89 107.5t-141 39.5t-141.5 -40t-88.5 -107
q-27 -66 -31 -160z" />
    <glyph glyph-name="at.ss04" horiz-adv-x="1898" 
d="M1176 45q-122 0 -101 106l1 5q-29 -32 -52.5 -53t-73.5 -43t-107 -22q-129 0 -206 72t-77 213q0 84 17 169q51 263 168 364q103 91 240 91q161 0 223 -129l8 39q9 45 28 63q17 16 43 16q31 0 51 -21q24 -26 12 -85l-135 -675q124 5 224.5 77.5t154 182.5t53.5 231
q0 263 -174.5 427.5t-447.5 164.5q-152 0 -290 -59t-237.5 -160t-158.5 -241t-59 -295q0 -164 54 -303.5t151.5 -240t240 -157.5t312.5 -57h42q36 0 54 -11q24 -16 24 -46t-24 -46q-18 -11 -54 -11h-58q-254 0 -454 113t-310 311.5t-110 447.5q0 181 69 343.5t186 279
t279.5 184.5t342.5 68q221 0 391 -89.5t263.5 -252t93.5 -372.5q0 -160 -74.5 -296.5t-212.5 -219.5t-310 -83zM717 492q-15 -87 -15 -148q0 -93 48 -138t118 -45q92 0 160 66q83 83 115 265q15 87 15 148q0 93 -48 138t-118 45q-94 0 -159 -65q-41 -41 -69 -102t-47 -164z
" />
    <glyph glyph-name="uni20BD.ss08" horiz-adv-x="1257" 
d="M198 1331q0 51 21 72t72 21h439q196 0 319 -114.5t123 -303.5t-123 -304.5t-319 -115.5h-378v-196h210q43 0 60 -11q26 -17 26 -51t-26 -51q-17 -11 -60 -11h-210v-170q0 -50 -14 -72q-20 -32 -63 -32t-63 32q-14 22 -14 72v170h-50q-43 0 -60 11q-26 17 -26 51t26 51
q17 11 60 11h50v941zM718 1288h-366v-566h366q137 0 218 73t81 211q0 137 -80.5 209.5t-218.5 72.5z" />
    <glyph glyph-name="Iacute_J_acutecomb" horiz-adv-x="1565" 
d="M360 1328v-1232q0 -50 -14 -72q-20 -32 -63 -32t-63 32q-14 22 -14 72v1232q0 50 14 72q20 32 63 32t63 -32q14 -22 14 -72zM244 1670l102 163q18 30 33 41q16 12 36 12t36 -11q35 -21 33 -57q-1 -22 -24 -57l-102 -163q-18 -30 -33 -41q-17 -12 -36 -12t-36 11
q-35 21 -33 57q1 22 24 57zM934 124q140 0 216 85.5t76 242.5v876q0 50 14 72q20 32 63 32t63 -32q14 -22 14 -72v-896q0 -203 -124 -323.5t-322 -120.5q-159 0 -271 83q-40 30 -40 66q0 29 18 49q20 21 47 21q28 0 69 -29q76 -54 177 -54zM1264 1670l102 163q18 30 33 41
q17 12 36 12t36 -11q35 -21 33 -57q-1 -22 -24 -57l-102 -163q-18 -30 -33 -41q-17 -12 -36 -12t-36 11q-35 21 -33 57q1 22 24 57z" />
    <glyph glyph-name="J_acutecomb" horiz-adv-x="993" 
d="M362 124q140 0 216 85.5t76 242.5v876q0 50 14 72q20 32 63 32t63 -32q14 -22 14 -72v-896q0 -203 -124 -323.5t-322 -120.5q-159 0 -271 83q-40 30 -40 66q0 29 18 49q20 21 47 21q28 0 69 -29q76 -54 177 -54zM692 1670l102 163q18 30 33 41q17 12 36 12q20 0 36 -11
q35 -21 33 -57q-1 -22 -24 -57l-102 -163q-18 -30 -33 -41q-17 -12 -36 -12t-36 11q-35 21 -33 57q1 22 24 57z" />
    <glyph glyph-name="commaaccent.ss01.comp" horiz-adv-x="1064" 
d="M383 -119q0 23 16 35q13 10 43 10q94 0 150.5 -56t56.5 -136t-56.5 -136t-150.5 -56q-30 0 -43 10q-16 12 -16 35q0 24 16 36q14 9 43 9q50 0 78 30.5t28 71.5t-28 71.5t-78 30.5q-29 0 -43 9q-16 12 -16 36z" />
    <glyph glyph-name="commaturn.ss01.comp" horiz-adv-x="1064" 
d="M681 1453q0 -24 -16 -36q-14 -9 -43 -9q-50 0 -78 -30.5t-28 -71.5t28 -71.5t78 -30.5q29 0 43 -9q16 -12 16 -36q0 -23 -16 -35q-13 -10 -43 -10q-94 0 -150.5 56t-56.5 136t56.5 136t150.5 56q30 0 43 -10q16 -12 16 -35z" />
    <glyph glyph-name="caroncomma.comp" horiz-adv-x="1064" 
d="M1228 1361l-57 -170q-12 -36 -27 -51q-15 -17 -42 -17q-23 0 -40.5 12t-23.5 32q-7 22 7 66l57 170q12 36 27 51q15 17 42 17q23 0 40.5 -12t23.5 -32q7 -22 -7 -66z" />
    <glyph glyph-name="commaaccent.comp" horiz-adv-x="1064" 
d="M349 -338l102 163q18 30 33 41q16 12 36 12t36 -11q35 -21 33 -57q-1 -22 -24 -57l-102 -163q-18 -30 -33 -41q-16 -12 -36 -12t-36 11q-35 21 -33 57q1 22 24 57z" />
    <glyph glyph-name="commaturn.comp" horiz-adv-x="1064" 
d="M494 1303l102 163q18 30 33 41q17 12 36 12t36 -11q35 -21 33 -57q-1 -22 -24 -57l-102 -163q-18 -30 -33 -41q-17 -12 -36 -12t-36 11q-35 21 -33 57q1 22 24 57z" />
    <glyph glyph-name="iacute_j_acutecomb" horiz-adv-x="1036" 
d="M704 -172v1066q0 46 13 67q19 31 60 31t60 -31q13 -21 13 -67v-1071q0 -115 -65 -189.5t-185 -74.5h-26q-46 0 -65 12q-27 17 -27 51t27 51q19 12 65 12q130 0 130 143zM740 1303l102 163q18 30 33 41q17 12 36 12q20 0 36 -11q35 -21 33 -57q-1 -22 -24 -57l-102 -163
q-18 -30 -33 -41q-17 -12 -36 -12t-36 11q-35 21 -33 57q1 22 24 57zM332 894v-804q0 -46 -13 -67q-19 -31 -60 -31t-60 31q-13 21 -13 67v804q0 46 13 67q19 31 60 31t60 -31q13 -21 13 -67zM222 1303l102 163q18 30 33 41q16 12 36 12q19 0 36 -11q35 -21 33 -57
q-1 -22 -24 -57l-102 -163q-18 -30 -33 -41q-17 -12 -36 -12t-36 11q-35 21 -33 57q1 22 24 57z" />
    <glyph glyph-name="j_acutecomb" horiz-adv-x="518" 
d="M186 -172v1066q0 46 13 67q19 31 60 31t60 -31q13 -21 13 -67v-1071q0 -115 -65 -189.5t-185 -74.5h-26q-46 0 -65 12q-27 17 -27 51t27 51q20 12 65 12q130 0 130 143zM222 1303l102 163q18 30 33 41q16 12 36 12q19 0 36 -11q35 -21 33 -57q-1 -22 -24 -57l-102 -163
q-18 -30 -33 -41q-17 -12 -36 -12t-36 11q-35 21 -33 57q1 22 24 57z" />
    <glyph glyph-name="grave.lc" horiz-adv-x="1064" 
d="M330 1446q0 37 34 58q18 11 38 11q22 0 38.5 -13t34.5 -43l97 -155q25 -40 25 -62q0 -37 -34 -58q-18 -11 -38 -11q-22 0 -38.5 13t-34.5 43l-97 155q-25 40 -25 62z" />
    <glyph glyph-name="dieresis.lc" horiz-adv-x="1064" 
d="M228 1289q0 38 26.5 64.5t63.5 26.5q38 0 64.5 -27t26.5 -64t-26.5 -63.5t-64.5 -26.5t-64 26.5t-26 63.5zM655 1289q0 38 26.5 64.5t63.5 26.5t64 -27t27 -64t-26.5 -63.5t-64.5 -26.5q-37 0 -63.5 26.5t-26.5 63.5z" />
    <glyph glyph-name="macron.lc" horiz-adv-x="1064" 
d="M749 1228h-434q-39 0 -58 11q-26 17 -26 50t26 50q19 11 58 11h434q39 0 58 -11q26 -17 26 -50t-26 -50q-19 -11 -58 -11z" />
    <glyph glyph-name="acute.lc" horiz-adv-x="1064" 
d="M495 1303l102 163q18 30 33 41q17 12 36 12q20 0 36 -11q35 -21 33 -57q-1 -22 -24 -57l-102 -163q-18 -30 -33 -41q-16 -12 -36 -12t-36 11q-35 21 -33 57q1 22 24 57z" />
    <glyph glyph-name="cedilla.lc" horiz-adv-x="1056" 
d="M349 -338l102 163q18 30 33 41q16 12 36 12t36 -11q35 -21 33 -57q-1 -22 -24 -57l-102 -163q-18 -30 -33 -41q-16 -12 -36 -12t-36 11q-35 21 -33 57q1 22 24 57z" />
    <glyph glyph-name="circumflex.lc" horiz-adv-x="1064" 
d="M532 1360l-155 -155q-27 -27 -49 -33q-30 -6 -53 17q-24 24 -17 54q6 23 32 49l187 186q27 27 55 27t55 -27l187 -186q26 -26 32 -49q7 -30 -17 -54q-23 -23 -53 -17q-22 6 -49 33z" />
    <glyph glyph-name="caron.lc" horiz-adv-x="1064" 
d="M377 1468l155 -155l155 155q27 27 49 33q31 6 53 -17q23 -23 17 -54q-4 -21 -32 -49l-187 -186q-27 -27 -55 -27t-55 27l-187 186q-28 28 -32 49q-6 31 17 54q22 23 53 17q22 -6 49 -33z" />
    <glyph glyph-name="breve.lc" horiz-adv-x="1064" 
d="M532 1180q-135 0 -244 106q-31 29 -33 55q-3 25 16 45q19 21 45 19q21 -2 47 -26q85 -80 169 -80t169 80q26 24 47 26q26 2 45 -19q19 -20 16 -45q-2 -26 -33 -55q-109 -106 -244 -106z" />
    <glyph glyph-name="dotaccent.lc" horiz-adv-x="1064" 
d="M442 1304q0 38 26 64t64 26t64 -26t26 -64t-26 -64t-64 -26t-64 26t-26 64z" />
    <glyph glyph-name="ring.lc" horiz-adv-x="1064" 
d="M295 1374q0 98 69.5 167.5t167.5 69.5t167.5 -69.5t69.5 -167.5t-69.5 -167.5t-167.5 -69.5t-167.5 69.5t-69.5 167.5zM394 1374q0 -57 40.5 -97.5t97.5 -40.5t97.5 40.5t40.5 97.5t-40.5 97.5t-97.5 40.5t-97.5 -40.5t-40.5 -97.5z" />
    <glyph glyph-name="ogonek.lc" horiz-adv-x="1064" 
d="M349 -338l102 163q18 30 33 41q16 12 36 12t36 -11q35 -21 33 -57q-1 -22 -24 -57l-102 -163q-18 -30 -33 -41q-16 -12 -36 -12t-36 11q-35 21 -33 57q1 22 24 57z" />
    <glyph glyph-name="tilde.lc" horiz-adv-x="1064" 
d="M517 1258q-70 41 -111 41q-24 0 -42.5 -6.5t-45.5 -29.5q-31 -26 -51 -26q-22 0 -37 15t-15 39q0 30 36 61q72 62 153 62q41 0 70.5 -10.5t72.5 -35.5q70 -41 111 -41q24 0 42.5 6.5t45.5 29.5q31 26 51 26q22 0 37 -15t15 -39q0 -30 -36 -61q-72 -62 -153 -62
q-41 0 -70.5 10.5t-72.5 35.5z" />
    <glyph glyph-name="hungarumlaut.lc" horiz-adv-x="1064" 
d="M341 1303l102 163q18 30 33 41q17 12 36 12q20 0 36 -11q35 -21 33 -57q-1 -22 -24 -57l-102 -163q-18 -30 -33 -41q-17 -12 -36 -12q-20 0 -36 11q-35 21 -33 57q1 22 24 57zM671 1303l102 163q18 30 33 41q16 12 36 12t36 -11q35 -21 33 -57q-1 -22 -24 -57l-102 -163
q-18 -30 -33 -41q-16 -12 -36 -12t-36 11q-35 21 -33 57q1 22 24 57z" />
    <glyph glyph-name="uni0327.lc" horiz-adv-x="1064" 
d="M349 -338l102 163q18 30 33 41q16 12 36 12t36 -11q35 -21 33 -57q-1 -22 -24 -57l-102 -163q-18 -30 -33 -41q-16 -12 -36 -12t-36 11q-35 21 -33 57q1 22 24 57z" />
    <glyph glyph-name="grave.uc" horiz-adv-x="1304" 
d="M445 1817q0 37 34 58q18 11 38 11q22 0 38.5 -13t34.5 -43l97 -155q25 -40 25 -62q0 -37 -34 -58q-18 -11 -38 -11q-22 0 -38.5 13t-34.5 43l-97 155q-25 40 -25 62z" />
    <glyph glyph-name="dieresis.uc" horiz-adv-x="1304" 
d="M348 1664q0 38 26.5 64.5t63.5 26.5q38 0 64.5 -26.5t26.5 -64.5q0 -37 -26.5 -63.5t-64.5 -26.5t-64 26t-26 64zM775 1664q0 38 26.5 64.5t63.5 26.5t64 -26.5t27 -64.5q0 -37 -26.5 -63.5t-64.5 -26.5q-37 0 -63.5 26t-26.5 64z" />
    <glyph glyph-name="macron.uc" horiz-adv-x="1304" 
d="M869 1588h-434q-39 0 -58 11q-26 17 -26 50t26 50q19 11 58 11h434q39 0 58 -11q26 -17 26 -50t-26 -50q-19 -11 -58 -11z" />
    <glyph glyph-name="acute.uc" horiz-adv-x="1304" 
d="M613 1670l102 163q18 30 33 41q16 12 36 12t36 -11q35 -21 33 -57q-1 -22 -24 -57l-102 -163q-18 -30 -33 -41q-16 -12 -36 -12t-36 11q-35 21 -33 57q1 22 24 57z" />
    <glyph glyph-name="cedilla.uc" horiz-adv-x="1304" 
d="M489 -338l102 163q18 30 33 41q17 12 36 12q20 0 36 -11q35 -21 33 -57q-1 -22 -24 -57l-102 -163q-18 -30 -33 -41q-16 -12 -36 -12t-36 11q-35 21 -33 57q1 22 24 57z" />
    <glyph glyph-name="circumflex.uc" horiz-adv-x="1304" 
d="M652 1734l-155 -155q-27 -27 -49 -33q-30 -6 -53 17q-24 24 -17 54q6 23 32 49l187 186q27 27 55 27t55 -27l187 -186q26 -26 32 -49q7 -30 -17 -54q-23 -23 -53 -17q-22 6 -49 33z" />
    <glyph glyph-name="caron.uc" horiz-adv-x="1304" 
d="M497 1842l155 -155l155 155q27 27 49 33q31 6 53 -17q23 -23 17 -54q-4 -21 -32 -49l-187 -186q-27 -27 -55 -27t-55 27l-187 186q-28 28 -32 49q-6 31 17 54q22 23 53 17q22 -6 49 -33z" />
    <glyph glyph-name="breve.uc" horiz-adv-x="1304" 
d="M652 1553q-135 0 -244 106q-31 29 -33 55q-3 25 16 45q19 21 45 19q21 -2 47 -26q85 -80 169 -80t169 80q26 24 47 26q26 2 45 -19q19 -20 16 -45q-2 -26 -33 -55q-109 -106 -244 -106z" />
    <glyph glyph-name="dotaccent.uc" horiz-adv-x="1304" 
d="M562 1677q0 37 26 63.5t64 26.5t64 -26.5t26 -63.5t-26 -63.5t-64 -26.5t-64 26.5t-26 63.5z" />
    <glyph glyph-name="ring.uc" horiz-adv-x="1304" 
d="M415 1732q0 98 69.5 167.5t167.5 69.5t167.5 -69.5t69.5 -167.5t-69.5 -167.5t-167.5 -69.5t-167.5 69.5t-69.5 167.5zM514 1732q0 -57 40.5 -97.5t97.5 -40.5t97.5 40.5t40.5 97.5t-40.5 97.5t-97.5 40.5t-97.5 -40.5t-40.5 -97.5z" />
    <glyph glyph-name="ogonek.uc" horiz-adv-x="1304" 
d="M481 -338l102 163q18 30 33 41q16 12 36 12t36 -11q35 -21 33 -57q-1 -22 -24 -57l-102 -163q-18 -30 -33 -41q-16 -12 -36 -12q-19 0 -36 11q-35 21 -33 57q1 22 24 57z" />
    <glyph glyph-name="tilde.uc" horiz-adv-x="1304" 
d="M635 1620q-70 41 -111 41q-24 0 -42.5 -6.5t-45.5 -29.5q-31 -26 -51 -26q-22 0 -37 15t-15 39q0 30 36 61q72 62 153 62q41 0 70.5 -10.5t72.5 -35.5q70 -41 111 -41q24 0 42.5 6.5t45.5 29.5q31 26 51 26q22 0 37 -15t15 -39q0 -30 -36 -61q-72 -62 -153 -62
q-41 0 -70.5 10.5t-72.5 35.5z" />
    <glyph glyph-name="hungarumlaut.uc" horiz-adv-x="1304" 
d="M460 1674l102 163q18 30 33 41q17 12 36 12t36 -11q35 -21 33 -57q-1 -22 -24 -57l-102 -163q-18 -30 -33 -41q-16 -12 -36 -12q-19 0 -36 11q-35 21 -33 57q1 22 24 57zM790 1674l102 163q18 30 33 41q17 12 36 12t36 -11q35 -21 33 -57q-1 -22 -24 -57l-102 -163
q-18 -30 -33 -41q-16 -12 -36 -12q-19 0 -36 11q-35 21 -33 57q1 22 24 57z" />
    <glyph glyph-name="uni0327.uc" horiz-adv-x="1304" 
d="M479 -338l102 163q18 30 33 41q16 12 36 12t36 -11q35 -21 33 -57q-1 -22 -24 -57l-102 -163q-18 -30 -33 -41q-17 -12 -36 -12q-20 0 -36 11q-35 21 -33 57q1 22 24 57z" />
    <glyph glyph-name="commaaccent.uc" horiz-adv-x="1304" 
d="M485 -338l102 163q18 30 33 41q16 12 36 12t36 -11q35 -21 33 -57q-1 -22 -24 -57l-102 -163q-18 -30 -33 -41q-17 -12 -36 -12q-20 0 -36 11q-35 21 -33 57q1 22 24 57z" />
    </font>
</defs>
</svg>
