<?xml version="1.0" encoding="UTF-8"?>
<svg width="21px" height="21px" viewBox="0 0 21 21" version="1.1" xmlns="http://www.w3.org/2000/svg" xmlns:xlink="http://www.w3.org/1999/xlink">
    <!-- Generator: Sketch 49.3 (51167) - http://www.bohemiancoding.com/sketch -->
    <title>Shape</title>
    <desc>Created with Sketch.</desc>
    <defs></defs>
    <g id="Page-1" stroke="none" stroke-width="1" fill="none" fill-rule="evenodd" opacity="0.2">
        <g id="article" transform="translate(-528.000000, -2308.000000)" fill="#000000" fill-rule="nonzero">
            <g id="share" transform="translate(370.000000, 2294.000000)">
                <path d="M177.906542,26.5507152 C178.052072,25.8488429 178.1251,25.1651195 178.1251,24.4999282 C178.1251,23.1965535 177.872447,21.950116 177.366374,20.7606154 C176.860589,19.5712106 176.17695,18.5459129 175.315602,17.6845306 C174.454254,16.8231483 173.429084,16.1395686 172.239612,15.6335999 C171.049853,15.1279664 169.803779,14.8749342 168.500192,14.8749342 C167.834846,14.8749342 167.15116,14.9479132 166.449324,15.0937754 C165.501396,14.3646078 164.434946,14 163.250024,14 C161.80086,14 160.563597,14.5126249 159.538139,15.5378748 C158.512585,16.563412 158,17.8006554 158,19.2498444 C158,20.4347478 158.364614,21.5011801 159.093697,22.4490932 C158.947928,23.1508698 158.874948,23.8345932 158.874948,24.4999282 C158.874948,25.8031591 159.127793,27.0495488 159.633626,28.2391452 C160.139411,29.4285499 160.82305,30.4538956 161.684494,31.3154215 C162.545842,32.176708 163.5713,32.8600962 164.760723,33.3661128 C165.950243,33.8719857 167.1967,34.1248743 168.500096,34.1248743 C169.165393,34.1248743 169.84908,34.0517995 170.551299,33.9059372 C171.498988,34.6352007 172.565341,35 173.750359,35 C175.19938,35 176.436978,34.4870877 177.461861,33.4618858 C178.487415,32.4363486 179,31.1991052 179,29.7497725 C178.999761,28.5650606 178.635291,27.4987721 177.906542,26.5507152 Z M173.882311,28.1352327 C173.581981,28.6532647 173.178765,29.0671414 172.673381,29.3770954 C172.16771,29.6870493 171.609879,29.9235968 170.999695,30.0875752 C170.389512,30.2512279 169.752004,30.3333333 169.086932,30.3333333 C167.547811,30.3333333 166.222644,30.0432894 165.111335,29.4632014 C164.000027,28.883067 163.444444,28.1861241 163.444444,27.3713495 C163.444444,26.9730565 163.560633,26.6413318 163.792916,26.3754776 C164.02515,26.1097629 164.36898,25.9771847 164.824404,25.9771847 C165.088557,25.9771847 165.334382,26.0479861 165.56207,26.1894959 C165.789758,26.3311918 165.999214,26.5018688 166.190582,26.7011549 C166.381949,26.9004874 166.589012,27.0994478 166.812202,27.2987803 C167.035249,27.4981129 167.331272,27.6684178 167.700129,27.8101137 C168.069082,27.9518096 168.485793,28.0227971 168.950453,28.0227971 C169.542452,28.0227971 170.020463,27.9100823 170.385157,27.6843737 C170.749324,27.4583394 170.931456,27.1727147 170.931456,26.8275926 C170.931456,26.4732133 170.785885,26.2076847 170.494551,26.0306346 C170.294426,25.9062902 169.784114,25.7469637 168.96433,25.552283 L166.969402,25.073885 C166.42296,24.9500522 165.953849,24.8063095 165.562118,24.6426103 C165.170387,24.4786785 164.806028,24.2642273 164.46909,23.9983731 C164.132247,23.7328445 163.877186,23.3987008 163.704099,22.995663 C163.53106,22.5929042 163.44454,22.1212979 163.44454,21.581216 C163.44454,20.9347924 163.597146,20.3661016 163.902166,19.8745387 C164.207186,19.3830689 164.612747,18.9978477 165.118083,18.7189682 C165.623514,18.4400422 166.167755,18.2320107 166.750806,18.0947806 C167.333617,17.9575039 167.934804,17.8888889 168.554176,17.8888889 C169.428751,17.8888889 170.257244,17.9907648 171.040706,18.1943771 C171.823977,18.3979893 172.470673,18.6968253 172.980603,19.0908385 C173.49058,19.4849913 173.745545,19.9254767 173.745545,20.4123877 C173.745545,20.8106806 173.616005,21.151709 173.356111,21.4349613 C173.097031,21.718167 172.753106,21.8598629 172.324862,21.8598629 C172.088082,21.8598629 171.869581,21.806692 171.66917,21.7004434 C171.468854,21.5942412 171.286818,21.4658962 171.122536,21.3153618 C170.958589,21.1649203 170.78531,21.0165723 170.603227,20.8705036 C170.421095,20.724435 170.175127,20.5982763 169.8658,20.4920277 C169.555755,20.385779 169.205322,20.3326081 168.813687,20.3326081 C167.502206,20.3326081 166.846322,20.6732644 166.846322,21.3551817 C166.846322,21.5056232 166.880537,21.6384805 166.948777,21.7535677 C167.017064,21.8686549 167.092338,21.9616458 167.174168,22.0324937 C167.25595,22.1034347 167.392621,22.1741896 167.583988,22.2450841 C167.775355,22.3160251 167.934756,22.3670561 168.062239,22.3978514 C168.189673,22.4288329 168.390229,22.475305 168.663378,22.5372214 L170.084348,22.8559209 C170.530585,22.953424 170.928872,23.0552999 171.279783,23.161409 C171.6306,23.2678438 172.006252,23.4182386 172.406979,23.6131054 C172.807707,23.8078791 173.140147,24.0247027 173.404156,24.2638087 C173.668453,24.5031008 173.88925,24.8060304 174.067075,25.1734814 C174.244804,25.5410255 174.333333,25.9461567 174.333333,26.3887354 C174.333285,27.0350659 174.183264,27.6173403 173.882311,28.1352327 Z" id="Shape"></path>
            </g>
        </g>
    </g>
</svg>