<?xml version="1.0" encoding="UTF-8"?>
<svg width="23px" height="18px" viewBox="0 0 23 18" version="1.1" xmlns="http://www.w3.org/2000/svg" xmlns:xlink="http://www.w3.org/1999/xlink">
    <!-- Generator: Sketch 49.3 (51167) - http://www.bohemiancoding.com/sketch -->
    <title>Shape</title>
    <desc>Created with Sketch.</desc>
    <defs></defs>
    <g id="Page-1" stroke="none" stroke-width="1" fill="none" fill-rule="evenodd">
        <g id="article" transform="translate(-431.000000, -2310.000000)" fill="#FFFFFF" fill-rule="nonzero">
            <g id="share" transform="translate(370.000000, 2294.000000)">
                <g id="hover" transform="translate(48.000000, 0.000000)">
                    <path d="M36,18.1296832 C35.1534708,18.4910816 34.2451573,18.7361779 33.290806,18.8456003 C34.2652635,18.2833889 35.0111863,17.3916426 35.3647179,16.3323228 C34.4506543,16.8529668 33.4416968,17.2310211 32.366633,17.435962 C31.5057476,16.5511316 30.281221,16 28.9230162,16 C26.3173224,16 24.2045886,18.0355408 24.2045886,20.5446543 C24.2045886,20.9005128 24.2462667,21.2480794 24.3267669,21.5804385 C20.4060121,21.3907052 16.929361,19.5808891 14.6024863,16.8308071 C14.1957389,17.5010289 13.964348,18.2819768 13.964348,19.1156081 C13.964348,20.69282 14.797949,22.0844627 16.0627256,22.89865 C15.2894809,22.8737385 14.5622362,22.6687976 13.9255636,22.3281468 L13.9255636,22.3849219 C13.9255636,24.5866241 15.5525156,26.4241399 17.7097838,26.8423496 C17.3145365,26.9448201 16.8977547,27.0015952 16.4665792,27.0015952 C16.1619039,27.0015952 15.8672629,26.9725197 15.5783719,26.9171204 C16.1791163,28.7241848 17.9210685,30.0382685 19.9849461,30.0742961 C18.3709222,31.2928615 16.3357947,32.0170704 14.1253482,32.0170704 C13.7444947,32.0170704 13.3693535,31.9949107 13,31.9547553 C15.0883057,33.2467156 17.5675369,34 20.2321589,34 C28.9115914,34 33.6559128,27.0736142 33.6559128,21.0667104 L33.6400909,20.4782115 C34.5670826,19.841193 35.3690398,19.0408373 36,18.1296832 Z" id="Shape"></path>
                </g>
            </g>
        </g>
    </g>
</svg>