<?xml version="1.0" encoding="UTF-8"?>
<svg width="14px" height="12px" viewBox="0 0 14 12" version="1.1" xmlns="http://www.w3.org/2000/svg" xmlns:xlink="http://www.w3.org/1999/xlink">
    <!-- Generator: Sketch 49.3 (51167) - http://www.bohemiancoding.com/sketch -->
    <title>Shape</title>
    <desc>Created with Sketch.</desc>
    <defs></defs>
    <g id="Page-1" stroke="none" stroke-width="1" fill="none" fill-rule="evenodd">
        <g id="cart" transform="translate(-486.000000, -1030.000000)" fill="#A3E0E1" fill-rule="nonzero">
            <g id="Group-8" transform="translate(387.000000, 190.000000)">
                <g id="back" transform="translate(99.000000, 838.000000)">
                    <path d="M13.2130408,6.8670458 L3.86673391,6.87197909 L6.8117414,3.82614058 C6.95595275,3.67743704 7.03505843,3.47599424 7.03505843,3.26456741 C7.03505843,3.05314057 6.95595275,2.85310729 6.8117414,2.70405137 L6.3534976,2.23092509 C6.20940007,2.08222155 6.01738385,2 5.81261967,2 C5.60774167,2 5.41561163,2.08163425 5.2715141,2.23033779 L0.223206253,7.43954269 C0.0785396177,7.58883353 -0.000566056144,7.78769222 3.04942307e-06,7.99923651 C-0.000566056144,8.2119554 0.0785396177,8.41093155 0.223206253,8.55998747 L5.2715141,13.7696622 C5.41561163,13.9182483 5.60762784,14 5.81261967,14 C6.01738385,14 6.20940007,13.9181308 6.3534976,13.7696622 L6.8117414,13.2965359 C6.95595275,13.1480673 7.03505843,12.9497959 7.03505843,12.7383691 C7.03505843,12.5270597 6.95595275,12.3392422 6.8117414,12.1906561 L3.83349815,9.12778599 L13.2235124,9.12778599 C13.6454472,9.12778599 14,8.75250335 14,8.31731645 L14,7.6481505 C14,7.2129636 13.6349757,6.8670458 13.2130408,6.8670458 Z" id="Shape"></path>
                </g>
            </g>
        </g>
    </g>
</svg>