<?xml version="1.0" encoding="UTF-8"?>
<svg width="14px" height="12px" viewBox="0 0 14 12" version="1.1" xmlns="http://www.w3.org/2000/svg" xmlns:xlink="http://www.w3.org/1999/xlink">
    <!-- Generator: Sketch 49.3 (51167) - http://www.bohemiancoding.com/sketch -->
    <title>Shape</title>
    <desc>Created with Sketch.</desc>
    <defs></defs>
    <g id="Symbols" stroke="none" stroke-width="1" fill="none" fill-rule="evenodd">
        <g id="button_cart_1" transform="translate(-233.000000, -19.000000)" fill="#FFFFFF" fill-rule="nonzero">
            <g id="button">
                <g id="Group-3" transform="translate(25.000000, 17.000000)">
                    <path d="M221.213041,6.8670458 L211.866734,6.87197909 L214.811741,3.82614058 C214.955953,3.67743704 215.035058,3.47599424 215.035058,3.26456741 C215.035058,3.05314057 214.955953,2.85310729 214.811741,2.70405137 L214.353498,2.23092509 C214.2094,2.08222155 214.017384,2 213.81262,2 C213.607742,2 213.415612,2.08163425 213.271514,2.23033779 L208.223206,7.43954269 C208.07854,7.58883353 207.999434,7.78769222 208.000003,7.99923651 C207.999434,8.2119554 208.07854,8.41093155 208.223206,8.55998747 L213.271514,13.7696622 C213.415612,13.9182483 213.607628,14 213.81262,14 C214.017384,14 214.2094,13.9181308 214.353498,13.7696622 L214.811741,13.2965359 C214.955953,13.1480673 215.035058,12.9497959 215.035058,12.7383691 C215.035058,12.5270597 214.955953,12.3392422 214.811741,12.1906561 L211.833498,9.12778599 L221.223512,9.12778599 C221.645447,9.12778599 222,8.75250335 222,8.31731645 L222,7.6481505 C222,7.2129636 221.634976,6.8670458 221.213041,6.8670458 Z" id="Shape" transform="translate(215.000000, 8.000000) scale(-1, 1) translate(-215.000000, -8.000000) "></path>
                </g>
            </g>
        </g>
    </g>
</svg>