<?xml version="1.0" encoding="UTF-8"?>
<svg width="19px" height="21px" viewBox="0 0 19 21" version="1.1" xmlns="http://www.w3.org/2000/svg" xmlns:xlink="http://www.w3.org/1999/xlink">
    <!-- Generator: sketchtool 49.3 (51167) - http://www.bohemiancoding.com/sketch -->
    <title>99DEF163-CAFA-44D9-9AA0-A332D2F781C9</title>
    <desc>Created with sketchtool.</desc>
    <defs></defs>
    <g id="Page-1" stroke="none" stroke-width="1" fill="none" fill-rule="evenodd">
        <g id="Time-Resist-Ultra-Hydrating-Moisturizer-(J)---full-menu" transform="translate(-1516.000000, -42.000000)" fill="#FFFFFF" fill-rule="nonzero">
            <path d="M1532.84091,47.840625 C1532.84091,47.5125 1532.51705,47.25 1532.19318,47.25 L1528.95455,47.25 L1528.95455,45.9375 C1528.95455,43.771875 1527.20568,42 1525.06818,42 C1522.93068,42 1521.18182,43.771875 1521.18182,45.9375 L1521.18182,47.25 L1517.94318,47.25 C1517.61932,47.25 1517.36023,47.5125 1517.29545,47.840625 L1516,62.278125 C1516,62.475 1516.06477,62.671875 1516.19432,62.803125 C1516.32386,62.934375 1516.45341,63 1516.64773,63 L1533.48864,63 C1533.68295,63 1533.8125,62.934375 1533.94205,62.803125 C1534.07159,62.671875 1534.13636,62.475 1534.13636,62.278125 L1532.84091,47.840625 Z M1522.80114,45.871875 C1522.80114,44.625 1523.8375,43.575 1525.06818,43.575 C1526.29886,43.575 1527.33523,44.625 1527.33523,45.871875 L1527.33523,47.053125 L1522.80114,47.053125 L1522.80114,45.871875 Z M1530.9625,49.21875 L1532.12841,61.03125 L1518.00795,61.03125 L1519.17386,49.21875 L1530.9625,49.21875 Z" id="cart"></path>
        </g>
    </g>
</svg>