<?xml version="1.0" encoding="UTF-8"?>
<svg width="11px" height="9px" viewBox="0 0 11 9" version="1.1" xmlns="http://www.w3.org/2000/svg" xmlns:xlink="http://www.w3.org/1999/xlink">
    <!-- Generator: Sketch 49.3 (51167) - http://www.bohemiancoding.com/sketch -->
    <title>left-arrow</title>
    <desc>Created with Sketch.</desc>
    <defs></defs>
    <g id="Page-1" stroke="none" stroke-width="1" fill="none" fill-rule="evenodd">
        <g id="Blog" transform="translate(-791.000000, -3264.000000)" fill="#87DADB" fill-rule="nonzero">
            <g id="pagination" transform="translate(489.000000, 3239.000000)">
                <g id="Group-4" transform="translate(302.000000, 11.000000)">
                    <g id="left-arrow" transform="translate(5.500000, 18.500000) scale(-1, 1) rotate(-180.000000) translate(-5.500000, -18.500000) translate(0.000000, 14.000000)">
                        <path d="M10.3816749,3.65028435 L10.3988457,3.65398432 L3.03814808,3.65398432 L5.35208253,1.36960543 C5.46539145,1.25807778 5.52754591,1.10699568 5.52754591,0.948425555 C5.52754591,0.789855427 5.46539145,0.639830467 5.35208253,0.528038527 L4.99203383,0.173193818 C4.87881434,0.0616661609 4.72794446,0 4.56705831,0 C4.40608274,0 4.25512342,0.0612256884 4.14190393,0.172753345 L0.175376342,4.07965702 C0.0617096996,4.19162515 -0.000444758399,4.34076916 2.39597527e-06,4.49942739 C-0.000444758399,4.65896655 0.0617096996,4.80819866 0.175376342,4.9199906 L4.14190393,8.82724665 C4.25512342,8.93868622 4.40599331,9 4.56705831,9 C4.72794446,9 4.87881434,8.93859812 4.99203383,8.82724665 L5.35208253,8.47240195 C5.46539145,8.36105048 5.52754591,8.21234694 5.52754591,8.05377681 C5.52754591,7.89529477 5.46539145,7.75443164 5.35208253,7.64299208 L3.01203426,5.34583949 L10.3899026,5.34583949 C10.7214228,5.34583949 11,5.06437751 11,4.73798733 L11,4.23611288 C11,3.9097227 10.7131952,3.65028435 10.3816749,3.65028435 Z" id="Shape"></path>
                    </g>
                </g>
            </g>
        </g>
    </g>
</svg>