<?xml version="1.0" encoding="UTF-8"?>
<svg width="20px" height="22px" viewBox="0 0 20 22" version="1.1" xmlns="http://www.w3.org/2000/svg" xmlns:xlink="http://www.w3.org/1999/xlink">
    <!-- Generator: sketchtool 49.3 (51167) - http://www.bohemiancoding.com/sketch -->
    <title>E23A5E93-7FC2-4226-BC3D-F5E409E2CE14</title>
    <desc>Created with sketchtool.</desc>
    <defs></defs>
    <g id="Page-1" stroke="none" stroke-width="1" fill="none" fill-rule="evenodd">
        <g id="Time-Resist-Ultra-Hydrating-Moisturizer-(J)---full-menu" transform="translate(-1464.000000, -42.000000)" fill="#FFFFFF" fill-rule="nonzero">
            <g id="user" transform="translate(1464.000000, 42.000000)">
                <path d="M9.5,11 C12.5375275,11 15,8.53752751 15,5.5 C15,2.46247249 12.5375275,0 9.5,0 C6.46247249,0 4,2.46234089 4,5.5 C4,8.53765911 6.46247249,11 9.5,11 Z M9.5,1.609375 C11.6487986,1.609375 13.390625,3.35120137 13.390625,5.5 C13.390625,7.64879863 11.6487986,9.390625 9.5,9.390625 C7.35120137,9.390625 5.609375,7.64879863 5.609375,5.5 C5.609375,3.35120137 7.35120137,1.609375 9.5,1.609375 Z" id="Shape"></path>
                <path d="M12.0757967,12.0012818 C12.0505038,12.0016919 12.0253476,12.0023753 12.0001914,12.0030586 L8.00008203,12.0030586 C3.70178964,11.8840133 0.120859139,15.2709977 0.00177734028,19.5679754 C0.00109374786,19.5931239 0.000546873932,19.6184091 0,19.6435576 L0,20.7860379 C0,21.5715187 0.785721122,22 1.57144224,22 L18.4285578,22 C19.2142789,22 20,21.5715187 20,20.7860379 L20,19.6435576 C19.9228908,15.3456232 16.3750461,11.9240595 12.0757967,12.0012818 Z M2,20 C2.16328284,17.0000957 4.69393256,14 7.71427455,14 L12.2857254,14 C15.3062237,14 17.8368734,16.9999043 18,20 L2,20 Z" id="Shape"></path>
            </g>
        </g>
    </g>
</svg>